BertiogaSans[wght].glyphspackage
{
glyphname = exclam;
layers = (
{
layerId = "40F9559D-0C66-47C0-904D-85A1A1CF5568";
shapes = (
{
closed = 1;
nodes = (
(557,1409,l),
(197,1409,l),
(234,445,l),
(519,445,l)
);
},
{
closed = 1;
nodes = (
(549,316,l),
(198,316,l),
(198,0,l),
(549,0,l)
);
}
);
width = 757;
},
{
layerId = "5D6D431B-CC1B-4FAD-85A4-67ADFEBCB3CA";
shapes = (
{
closed = 1;
nodes = (
(493,1409,l),
(189,1409,l),
(221,428,l),
(459,428,l)
);
},
{
closed = 1;
nodes = (
(486,277,l),
(188,277,l),
(188,0,l),
(486,0,l)
);
}
);
width = 682;
},
{
layerId = "4F4EDE15-BE4F-4838-A8D1-739248E5F6B1";
shapes = (
{
closed = 1;
nodes = (
(394,1409,l),
(174,1409,l),
(200,404,l),
(368,404,l)
);
},
{
closed = 1;
nodes = (
(389,217,l),
(173,217,l),
(173,0,l),
(389,0,l)
);
}
);
width = 569;
},
{
layerId = "B3E42AB7-2F0B-4826-A062-029E39AD2446";
shapes = (
{
closed = 1;
nodes = (
(349,1409,l),
(185,1409,l),
(206,387,l),
(327,387,l)
);
},
{
closed = 1;
nodes = (
(345,178,l),
(182,178,l),
(182,0,l),
(345,0,l)
);
}
);
width = 531;
}
);
unicode = 33;
}
{
glyphname = quotedbl;
layers = (
{
layerId = "48B546D8-C5CA-40A8-8404-D5B3E1476F73";
shapes = (
{
closed = 1;
nodes = (
(967,1409,l),
(631,1409,l),
(663,852,l),
(934,852,l)
);
},
{
closed = 1;
nodes = (
(500,1409,l),
(167,1409,l),
(198,852,l),
(469,852,l)
);
}
);
width = 1134;
},
{
layerId = "9443E7DC-0C4A-42CC-997B-DD23E98306F4";
shapes = (
{
closed = 1;
nodes = (
(843,1409,l),
(559,1409,l),
(587,891,l),
(814,891,l)
);
},
{
closed = 1;
nodes = (
(410,1409,l),
(128,1409,l),
(155,891,l),
(382,891,l)
);
}
);
width = 971;
},
{
layerId = "F7133933-345E-44EA-AD01-EBD83B4D43ED";
shapes = (
{
closed = 1;
nodes = (
(658,1409,l),
(452,1409,l),
(474,949,l),
(635,949,l)
);
},
{
closed = 1;
nodes = (
(275,1409,l),
(69,1409,l),
(92,949,l),
(251,949,l)
);
}
);
width = 727;
},
{
layerId = "F39F01FC-5766-40F9-87FF-669365FEE249";
shapes = (
{
closed = 1;
nodes = (
(575,1409,l),
(421,1409,l),
(439,988,l),
(556,988,l)
);
},
{
closed = 1;
nodes = (
(226,1409,l),
(71,1409,l),
(90,988,l),
(205,988,l)
);
}
);
width = 646;
}
);
unicode = 34;
}
{
glyphname = numbersign;
layers = (
{
layerId = "9CBD3AC2-9D8D-48B9-985E-25F89544A3BC";
shapes = (
{
closed = 1;
nodes = (
(360,363,l),
(630,363,l),
(554,0,l),
(740,0,l),
(818,363,l),
(1040,363,l),
(1040,539,l),
(855,539,l),
(918,847,l),
(1091,847,l),
(1091,1021,l),
(958,1021,l),
(1039,1391,l),
(853,1391,l),
(771,1021,l),
(502,1021,l),
(580,1391,l),
(398,1391,l),
(317,1021,l),
(103,1021,l),
(103,847,l),
(280,847,l),
(216,539,l),
(52,539,l),
(52,363,l),
(177,363,l),
(101,0,l),
(283,0,l)
);
},
{
closed = 1;
nodes = (
(398,539,l),
(465,847,l),
(737,847,l),
(672,539,l)
);
}
);
width = 1139;
},
{
layerId = "9CAA62FE-9EBF-4577-B1F1-D704579B9400";
shapes = (
{
closed = 1;
nodes = (
(346,378,l),
(648,378,l),
(569,0,l),
(729,0,l),
(810,378,l),
(1053,378,l),
(1053,531,l),
(842,531,l),
(911,860,l),
(1104,860,l),
(1104,1011,l),
(944,1011,l),
(1028,1394,l),
(868,1394,l),
(784,1011,l),
(483,1011,l),
(564,1394,l),
(407,1394,l),
(323,1011,l),
(88,1011,l),
(88,860,l),
(291,860,l),
(222,531,l),
(37,531,l),
(37,378,l),
(188,378,l),
(110,0,l),
(267,0,l)
);
},
{
closed = 1;
nodes = (
(380,531,l),
(451,860,l),
(754,860,l),
(684,531,l)
);
}
);
width = 1139;
},
{
layerId = "4CFB2959-BEB7-4CB7-85AA-15E8C72B431E";
shapes = (
{
closed = 1;
nodes = (
(326,402,l),
(676,402,l),
(591,0,l),
(711,0,l),
(798,402,l),
(1073,402,l),
(1073,519,l),
(824,519,l),
(899,880,l),
(1124,880,l),
(1124,997,l),
(924,997,l),
(1010,1400,l),
(890,1400,l),
(802,997,l),
(453,997,l),
(540,1400,l),
(419,1400,l),
(331,997,l),
(66,997,l),
(66,880,l),
(307,880,l),
(232,519,l),
(15,519,l),
(15,402,l),
(206,402,l),
(122,0,l),
(243,0,l)
);
},
{
closed = 1;
nodes = (
(352,519,l),
(431,880,l),
(778,880,l),
(702,519,l)
);
}
);
width = 1139;
},
{
layerId = "6C107EBF-3F3D-4659-9DBC-490DE09F0738";
shapes = (
{
closed = 1;
nodes = (
(312,417,l),
(694,417,l),
(606,0,l),
(700,0,l),
(790,417,l),
(1086,417,l),
(1086,511,l),
(811,511,l),
(892,893,l),
(1137,893,l),
(1137,987,l),
(910,987,l),
(999,1403,l),
(905,1403,l),
(815,987,l),
(434,987,l),
(524,1403,l),
(428,1403,l),
(337,987,l),
(51,987,l),
(51,893,l),
(318,893,l),
(238,511,l),
(0,511,l),
(0,417,l),
(217,417,l),
(131,0,l),
(227,0,l)
);
},
{
closed = 1;
nodes = (
(334,511,l),
(417,893,l),
(795,893,l),
(714,511,l)
);
}
);
width = 1139;
}
);
unicode = 35;
}
{
glyphname = dollar;
layers = (
{
layerId = "1DEF85E5-E6DA-4BD7-A4F9-3FA9E428A319";
shapes = (
{
closed = 1;
nodes = (
(521,-159,l),
(620,-159,l),
(620,25,l),
(786,30,o),
(910,66,o),
(991,132,cs),
(1072,198,o),
(1113,295,o),
(1113,423,cs),
(1113,526,o),
(1083,612,o),
(1023,683,cs),
(963,754,o),
(876,804,o),
(763,834,c),
(698,853,o),
(654,864,o),
(632,868,cs),
(610,871,o),
(606,870,o),
(620,865,c),
(620,1155,l),
(657,1148,o),
(686,1129,o),
(707,1100,cs),
(728,1071,o),
(743,1028,o),
(751,974,c),
(1075,1017,l),
(1051,1116,o),
(1019,1191,o),
(979,1243,cs),
(939,1295,o),
(889,1331,o),
(830,1351,cs),
(771,1371,o),
(701,1383,o),
(620,1387,c),
(620,1523,l),
(521,1523,l),
(521,1387,l),
(370,1382,o),
(256,1348,o),
(178,1286,cs),
(101,1224,o),
(63,1135,o),
(63,1019,cs),
(63,943,o),
(78,878,o),
(109,823,cs),
(141,768,o),
(179,725,o),
(226,693,cs),
(252,676,o),
(285,659,o),
(326,645,c),
(366,630,o),
(405,617,o),
(442,607,cs),
(479,597,o),
(505,590,o),
(521,587,c),
(521,267,l),
(468,274,o),
(427,293,o),
(400,325,cs),
(373,356,o),
(354,408,o),
(344,481,c),
(30,427,l),
(57,288,o),
(109,187,o),
(188,123,cs),
(266,59,o),
(377,25,o),
(521,20,c)
);
},
{
closed = 1;
nodes = (
(385,1107,o),
(430,1152,o),
(521,1161,c),
(521,888,l),
(490,903,o),
(463,915,o),
(442,924,cs),
(421,933,o),
(405,948,o),
(395,970,c),
(388,983,o),
(385,1001,o),
(385,1025,cs)
);
},
{
closed = 1;
nodes = (
(794,371,o),
(780,335,o),
(752,311,cs),
(724,287,o),
(680,272,o),
(620,267,c),
(620,567,l),
(686,546,o),
(727,531,o),
(744,521,cs),
(762,511,o),
(774,498,o),
(782,482,cs),
(790,465,o),
(794,444,o),
(794,417,cs)
);
}
);
width = 1139;
},
{
layerId = "F8FBB777-9D69-46EE-A2C4-A8FDEBDF8C7E";
shapes = (
{
closed = 1;
nodes = (
(520,-153,l),
(627,-153,l),
(627,23,l),
(787,29,o),
(908,65,o),
(989,132,cs),
(1070,198,o),
(1111,292,o),
(1111,414,cs),
(1111,509,o),
(1086,588,o),
(1035,652,cs),
(985,716,o),
(909,763,o),
(809,795,cs),
(757,812,o),
(717,823,o),
(688,830,cs),
(659,836,o),
(639,840,o),
(627,842,c),
(627,1185,l),
(678,1178,o),
(718,1158,o),
(746,1127,cs),
(773,1096,o),
(792,1051,o),
(802,994,c),
(1075,1034,l),
(1053,1123,o),
(1022,1192,o),
(984,1242,cs),
(945,1292,o),
(896,1328,o),
(838,1349,cs),
(779,1370,o),
(709,1382,o),
(627,1386,c),
(627,1521,l),
(520,1521,l),
(520,1386,l),
(373,1381,o),
(262,1347,o),
(185,1287,cs),
(109,1226,o),
(71,1140,o),
(71,1028,cs),
(71,953,o),
(85,890,o),
(116,838,cs),
(147,786,o),
(189,743,o),
(243,710,cs),
(265,697,o),
(293,682,o),
(328,670,c),
(362,657,o),
(397,646,o),
(432,636,cs),
(467,626,o),
(496,619,o),
(520,613,c),
(520,233,l),
(453,240,o),
(400,260,o),
(365,295,c),
(329,329,o),
(304,383,o),
(292,459,c),
(27,410,l),
(53,280,o),
(106,184,o),
(186,122,cs),
(265,59,o),
(377,25,o),
(520,20,c)
);
},
{
closed = 1;
nodes = (
(342,1128,o),
(401,1180,o),
(520,1189,c),
(520,866,l),
(474,882,o),
(438,896,o),
(413,909,cs),
(388,921,o),
(369,939,o),
(357,963,c),
(346,980,o),
(342,1004,o),
(342,1033,cs)
);
},
{
closed = 1;
nodes = (
(842,356,o),
(824,314,o),
(789,285,cs),
(753,256,o),
(699,238,o),
(627,233,c),
(627,590,l),
(703,568,o),
(752,551,o),
(774,538,cs),
(797,525,o),
(814,509,o),
(825,489,cs),
(836,468,o),
(842,442,o),
(842,409,cs)
);
}
);
width = 1139;
},
{
layerId = "6975E435-B590-441E-B7DA-A87770204C86";
shapes = (
{
closed = 1;
nodes = (
(518,-145,l),
(639,-145,l),
(639,21,l),
(790,28,o),
(905,65,o),
(986,131,cs),
(1067,198,o),
(1107,287,o),
(1107,400,cs),
(1107,484,o),
(1089,552,o),
(1054,605,cs),
(1017,658,o),
(959,702,o),
(877,737,cs),
(847,749,o),
(811,761,o),
(771,773,cs),
(731,784,o),
(687,795,o),
(639,806,c),
(639,1229,l),
(711,1222,o),
(765,1201,o),
(803,1167,cs),
(842,1133,o),
(867,1085,o),
(880,1024,c),
(1075,1058,l),
(1056,1133,o),
(1028,1194,o),
(991,1241,cs),
(955,1288,o),
(907,1322,o),
(849,1345,cs),
(792,1368,o),
(722,1382,o),
(639,1386,c),
(639,1517,l),
(518,1517,l),
(518,1386,l),
(379,1379,o),
(271,1347,o),
(195,1288,cs),
(120,1229,o),
(83,1147,o),
(83,1042,cs),
(82,969,o),
(97,908,o),
(126,860,cs),
(156,812,o),
(203,771,o),
(267,736,cs),
(284,727,o),
(306,718,o),
(331,709,cs),
(356,699,o),
(385,689,o),
(417,680,cs),
(448,671,o),
(482,661,o),
(518,653,c),
(518,183,l),
(429,189,o),
(361,212,o),
(311,250,cs),
(262,288,o),
(230,347,o),
(214,425,c),
(23,386,l),
(47,269,o),
(100,180,o),
(182,119,cs),
(264,59,o),
(376,26,o),
(518,20,c)
);
},
{
closed = 1;
nodes = (
(276,1161,o),
(357,1223,o),
(518,1232,c),
(518,832,l),
(451,850,o),
(401,868,o),
(370,885,cs),
(339,903,o),
(315,924,o),
(299,951,cs),
(284,976,o),
(276,1007,o),
(276,1045,cs)
);
},
{
closed = 1;
nodes = (
(914,332,o),
(891,281,o),
(843,245,cs),
(796,208,o),
(728,187,o),
(639,181,c),
(639,626,l),
(729,601,o),
(789,580,o),
(820,564,c),
(851,546,o),
(874,524,o),
(890,498,cs),
(906,471,o),
(914,438,o),
(914,397,cs)
);
}
);
width = 1139;
},
{
layerId = "AB1FD75E-92AF-4808-893A-81D0A5D4219E";
shapes = (
{
closed = 1;
nodes = (
(517,-139,l),
(646,-139,l),
(646,19,l),
(791,27,o),
(903,64,o),
(984,131,cs),
(1065,198,o),
(1105,284,o),
(1105,391,cs),
(1105,467,o),
(1092,528,o),
(1066,574,cs),
(1039,620,o),
(992,661,o),
(923,698,c),
(906,708,o),
(874,720,o),
(827,735,cs),
(780,749,o),
(720,765,o),
(646,783,c),
(646,1259,l),
(732,1252,o),
(797,1230,o),
(842,1194,cs),
(887,1158,o),
(916,1108,o),
(931,1044,c),
(1075,1075,l),
(1058,1140,o),
(1031,1195,o),
(996,1240,cs),
(961,1285,o),
(914,1319,o),
(857,1343,cs),
(800,1367,o),
(730,1381,o),
(646,1385,c),
(646,1515,l),
(517,1515,l),
(517,1385,l),
(382,1378,o),
(277,1346,o),
(202,1289,cs),
(128,1231,o),
(91,1152,o),
(91,1051,c),
(90,979,o),
(104,920,o),
(133,875,cs),
(162,830,o),
(213,789,o),
(284,753,c),
(297,748,o),
(314,741,o),
(333,734,cs),
(352,726,o),
(377,718,o),
(407,709,cs),
(436,700,o),
(473,690,o),
(517,679,c),
(517,149,l),
(414,155,o),
(334,179,o),
(276,220,cs),
(218,261,o),
(180,322,o),
(162,403,c),
(20,369,l),
(43,261,o),
(97,177,o),
(180,118,cs),
(263,59,o),
(376,26,o),
(517,20,c)
);
},
{
closed = 1;
nodes = (
(233,1182,o),
(328,1251,o),
(517,1260,c),
(517,810,l),
(435,829,o),
(376,849,o),
(341,870,cs),
(306,891,o),
(279,915,o),
(261,944,cs),
(242,973,o),
(233,1010,o),
(233,1053,cs)
);
},
{
closed = 1;
nodes = (
(962,317,o),
(935,260,o),
(880,219,cs),
(825,177,o),
(747,153,o),
(646,147,c),
(646,649,l),
(746,623,o),
(814,600,o),
(850,581,c),
(886,560,o),
(914,535,o),
(933,505,cs),
(952,474,o),
(962,436,o),
(962,389,cs)
);
}
);
width = 1139;
}
);
unicode = 36;
}
{
glyphname = percent;
layers = (
{
layerId = "0A527CAB-40A8-47D6-8FB3-136A5153B95C";
shapes = (
{
closed = 1;
nodes = (
(286,1428,o),
(190,1391,o),
(128,1318,cs),
(67,1245,o),
(36,1131,o),
(36,978,cs),
(36,831,o),
(68,720,o),
(132,644,cs),
(195,569,o),
(289,531,o),
(412,531,cs),
(537,531,o),
(632,569,o),
(698,645,cs),
(763,722,o),
(796,833,o),
(796,978,cs),
(796,1278,o),
(669,1428,o),
(417,1428,cs)
);
},
{
closed = 1;
nodes = (
(1491,1409,l),
(1247,1409,l),
(329,0,l),
(569,0,l)
);
},
{
closed = 1;
nodes = (
(532,879,o),
(523,811,o),
(506,773,cs),
(489,735,o),
(459,715,o),
(415,715,cs),
(373,715,o),
(343,735,o),
(324,774,cs),
(306,813,o),
(297,881,o),
(297,978,cs),
(297,1074,o),
(305,1142,o),
(322,1182,cs),
(338,1221,o),
(370,1241,o),
(417,1241,cs),
(460,1241,o),
(489,1222,o),
(506,1183,cs),
(523,1144,o),
(532,1076,o),
(532,978,cs)
);
},
{
closed = 1;
nodes = (
(1780,579,o),
(1749,690,o),
(1689,765,cs),
(1628,841,o),
(1534,878,o),
(1407,878,cs),
(1274,878,o),
(1177,841,o),
(1115,765,cs),
(1054,690,o),
(1023,578,o),
(1023,431,cs),
(1023,284,o),
(1055,173,o),
(1118,96,cs),
(1182,20,o),
(1277,-19,o),
(1403,-19,cs),
(1526,-19,o),
(1620,20,o),
(1684,96,cs),
(1748,172,o),
(1780,284,o),
(1780,431,cs)
);
},
{
closed = 1;
nodes = (
(1520,334,o),
(1511,266,o),
(1494,227,cs),
(1477,189,o),
(1447,170,o),
(1405,170,cs),
(1363,170,o),
(1333,188,o),
(1315,223,cs),
(1296,259,o),
(1287,328,o),
(1287,431,cs),
(1287,523,o),
(1295,590,o),
(1311,632,cs),
(1326,674,o),
(1359,696,o),
(1407,696,cs),
(1449,696,o),
(1478,676,o),
(1495,637,cs),
(1511,598,o),
(1520,529,o),
(1520,431,cs)
);
}
);
width = 1821;
},
{
layerId = "878309BC-9289-4993-9212-ED28064DE1EA";
shapes = (
{
closed = 1;
nodes = (
(285,1426,o),
(194,1389,o),
(135,1315,cs),
(78,1242,o),
(49,1128,o),
(49,977,cs),
(49,830,o),
(79,719,o),
(139,643,cs),
(199,567,o),
(288,529,o),
(405,529,cs),
(523,529,o),
(612,567,o),
(674,644,cs),
(735,721,o),
(766,832,o),
(766,977,c),
(765,1276,o),
(646,1426,o),
(409,1426,cs)
);
},
{
closed = 1;
nodes = (
(1477,1409,l),
(1263,1409,l),
(344,0,l),
(555,0,l)
);
},
{
closed = 1;
nodes = (
(542,873,o),
(531,799,o),
(511,755,cs),
(490,711,o),
(456,688,o),
(407,688,cs),
(358,688,o),
(324,711,o),
(302,755,c),
(281,800,o),
(271,874,o),
(271,977,cs),
(271,1081,o),
(280,1155,o),
(301,1200,cs),
(320,1243,o),
(357,1266,o),
(409,1266,cs),
(458,1266,o),
(492,1244,o),
(511,1200,cs),
(531,1156,o),
(542,1081,o),
(542,977,cs)
);
},
{
closed = 1;
nodes = (
(1769,580,o),
(1740,691,o),
(1683,767,cs),
(1626,843,o),
(1537,880,o),
(1416,880,cs),
(1290,880,o),
(1199,843,o),
(1140,768,cs),
(1083,693,o),
(1054,581,o),
(1054,432,cs),
(1054,285,o),
(1084,174,o),
(1143,97,c),
(1204,22,o),
(1293,-17,o),
(1412,-17,cs),
(1529,-17,o),
(1618,22,o),
(1678,99,cs),
(1739,175,o),
(1769,286,o),
(1769,432,cs)
);
},
{
closed = 1;
nodes = (
(1547,330,o),
(1537,256,o),
(1516,211,cs),
(1496,167,o),
(1461,145,o),
(1414,145,cs),
(1365,145,o),
(1331,167,o),
(1310,208,cs),
(1288,251,o),
(1278,325,o),
(1278,432,cs),
(1278,534,o),
(1288,608,o),
(1308,653,c),
(1327,699,o),
(1363,723,o),
(1416,723,cs),
(1464,723,o),
(1498,701,o),
(1518,656,cs),
(1537,612,o),
(1547,537,o),
(1547,432,cs)
);
}
);
width = 1821;
},
{
layerId = "6543F4AE-1A40-4DBA-A005-BFFCCFE6B0CF";
shapes = (
{
closed = 1;
nodes = (
(283,1422,o),
(199,1385,o),
(147,1311,cs),
(94,1236,o),
(67,1125,o),
(67,975,c),
(68,829,o),
(95,717,o),
(150,640,cs),
(204,564,o),
(285,525,o),
(393,525,cs),
(501,525,o),
(583,564,o),
(638,641,cs),
(693,719,o),
(720,830,o),
(720,975,cs),
(720,1273,o),
(612,1422,o),
(397,1422,cs)
);
},
{
closed = 1;
nodes = (
(1457,1409,l),
(1287,1409,l),
(366,0,l),
(533,0,l)
);
},
{
closed = 1;
nodes = (
(556,864,o),
(543,782,o),
(517,729,cs),
(492,675,o),
(451,648,o),
(395,648,cs),
(337,649,o),
(294,675,o),
(269,728,cs),
(244,780,o),
(231,862,o),
(231,975,cs),
(231,1092,o),
(244,1176,o),
(269,1226,cs),
(294,1277,o),
(336,1302,o),
(397,1302,cs),
(455,1302,o),
(495,1277,o),
(520,1225,cs),
(544,1173,o),
(556,1090,o),
(556,975,cs)
);
},
{
closed = 1;
nodes = (
(1753,582,o),
(1727,694,o),
(1675,769,cs),
(1622,846,o),
(1540,884,o),
(1428,884,cs),
(1314,884,o),
(1231,847,o),
(1179,772,cs),
(1126,698,o),
(1100,585,o),
(1100,434,cs),
(1100,286,o),
(1127,175,o),
(1182,100,cs),
(1236,24,o),
(1318,-13,o),
(1424,-13,cs),
(1532,-13,o),
(1614,26,o),
(1670,102,cs),
(1725,179,o),
(1753,290,o),
(1753,434,cs)
);
},
{
closed = 1;
nodes = (
(1589,323,o),
(1575,241,o),
(1550,188,cs),
(1524,135,o),
(1483,109,o),
(1426,109,cs),
(1369,109,o),
(1327,134,o),
(1302,187,cs),
(1277,239,o),
(1264,322,o),
(1264,434,cs),
(1264,551,o),
(1277,634,o),
(1302,686,cs),
(1327,737,o),
(1370,763,o),
(1428,763,cs),
(1487,763,o),
(1528,737,o),
(1552,686,cs),
(1576,634,o),
(1589,550,o),
(1589,434,cs)
);
}
);
width = 1821;
},
{
layerId = "1E741E55-12B1-42F1-9EAF-651FD3104344";
shapes = (
{
closed = 1;
nodes = (
(282,1420,o),
(203,1383,o),
(154,1308,cs),
(105,1233,o),
(80,1122,o),
(80,974,c),
(81,828,o),
(106,716,o),
(157,639,cs),
(208,562,o),
(284,523,o),
(386,523,cs),
(487,523,o),
(563,562,o),
(614,640,cs),
(665,718,o),
(690,829,o),
(690,974,c),
(689,1271,o),
(589,1420,o),
(389,1420,cs)
);
},
{
closed = 1;
nodes = (
(1443,1409,l),
(1303,1409,l),
(381,0,l),
(519,0,l)
);
},
{
closed = 1;
nodes = (
(566,858,o),
(551,770,o),
(522,711,cs),
(493,651,o),
(448,621,o),
(387,621,c),
(322,622,o),
(275,651,o),
(247,709,cs),
(219,767,o),
(205,855,o),
(205,974,cs),
(205,1099,o),
(219,1189,o),
(248,1244,cs),
(276,1299,o),
(323,1327,o),
(389,1327,cs),
(453,1327,o),
(498,1299,o),
(525,1242,cs),
(552,1185,o),
(566,1095,o),
(566,974,cs)
);
},
{
closed = 1;
nodes = (
(1742,583,o),
(1718,695,o),
(1669,771,cs),
(1620,848,o),
(1543,886,o),
(1437,886,cs),
(1330,886,o),
(1253,849,o),
(1204,775,cs),
(1155,701,o),
(1131,588,o),
(1131,435,cs),
(1131,287,o),
(1156,176,o),
(1207,101,cs),
(1258,26,o),
(1334,-11,o),
(1433,-11,cs),
(1535,-11,o),
(1612,28,o),
(1664,105,cs),
(1716,182,o),
(1742,292,o),
(1742,435,cs)
);
},
{
closed = 1;
nodes = (
(1616,319,o),
(1601,231,o),
(1572,172,cs),
(1543,113,o),
(1497,84,o),
(1435,84,cs),
(1371,84,o),
(1325,113,o),
(1297,172,cs),
(1269,231,o),
(1255,319,o),
(1255,435,cs),
(1255,562,o),
(1270,652,o),
(1299,707,cs),
(1328,762,o),
(1374,790,o),
(1437,790,cs),
(1502,790,o),
(1548,762,o),
(1575,705,cs),
(1602,648,o),
(1616,558,o),
(1616,435,cs)
);
}
);
width = 1821;
}
);
unicode = 37;
}
{
glyphname = ampersand;
layers = (
{
layerId = "40F9559D-0C66-47C0-904D-85A1A1CF5568";
shapes = (
{
closed = 1;
nodes = (
(102,263,o),
(146,161,o),
(235,89,cs),
(324,16,o),
(449,-20,o),
(610,-20,cs),
(747,-20,o),
(875,22,o),
(994,105,c),
(1045,68,o),
(1103,39,o),
(1166,19,cs),
(1229,-2,o),
(1289,-12,o),
(1345,-12,cs),
(1392,-12,o),
(1433,-5,o),
(1469,10,c),
(1469,259,l),
(1433,248,o),
(1394,243,o),
(1352,243,cs),
(1299,243,o),
(1246,261,o),
(1194,299,c),
(1268,411,o),
(1328,540,o),
(1375,686,c),
(1123,774,l),
(1089,655,o),
(1039,545,o),
(973,443,c),
(895,526,o),
(825,621,o),
(762,728,c),
(817,756,o),
(864,781,o),
(901,802,cs),
(938,823,o),
(966,840,o),
(984,853,cs),
(1031,887,o),
(1070,925,o),
(1099,967,cs),
(1128,1009,o),
(1143,1057,o),
(1143,1111,cs),
(1143,1205,o),
(1109,1279,o),
(1042,1334,cs),
(975,1389,o),
(881,1417,o),
(762,1417,cs),
(635,1417,o),
(538,1388,o),
(470,1331,cs),
(402,1274,o),
(367,1192,o),
(367,1085,cs),
(367,1045,o),
(372,1005,o),
(382,965,cs),
(392,925,o),
(410,878,o),
(437,822,c),
(318,764,o),
(232,701,o),
(180,631,cs),
(128,562,o),
(102,483,o),
(102,394,cs)
);
},
{
closed = 1;
nodes = (
(871,1083,o),
(864,1061,o),
(851,1042,cs),
(837,1023,o),
(819,1006,o),
(797,988,c),
(774,971,o),
(733,950,o),
(674,923,c),
(643,983,o),
(627,1036,o),
(627,1082,cs),
(627,1120,o),
(639,1152,o),
(661,1177,cs),
(684,1202,o),
(717,1214,o),
(760,1214,cs),
(794,1214,o),
(821,1204,o),
(841,1185,cs),
(861,1165,o),
(871,1139,o),
(871,1108,cs)
);
},
{
closed = 1;
nodes = (
(771,257,o),
(752,246,o),
(725,231,cs),
(699,217,o),
(665,210,o),
(624,210,cs),
(559,210,o),
(508,227,o),
(470,262,c),
(433,298,o),
(414,344,o),
(414,400,cs),
(414,481,o),
(457,544,o),
(543,589,c),
(575,532,o),
(611,476,o),
(651,422,cs),
(691,368,o),
(735,316,o),
(783,265,c)
);
}
);
width = 1554;
},
{
layerId = "5D6D431B-CC1B-4FAD-85A4-67ADFEBCB3CA";
shapes = (
{
closed = 1;
nodes = (
(87,258,o),
(129,158,o),
(215,87,cs),
(300,15,o),
(420,-20,o),
(575,-20,cs),
(715,-20,o),
(842,23,o),
(955,108,c),
(1003,70,o),
(1056,40,o),
(1115,19,cs),
(1173,-2,o),
(1231,-12,o),
(1288,-12,cs),
(1339,-12,o),
(1382,-5,o),
(1418,10,c),
(1418,220,l),
(1384,209,o),
(1345,204,o),
(1301,204,cs),
(1240,204,o),
(1182,227,o),
(1126,274,c),
(1209,399,o),
(1272,537,o),
(1317,689,c),
(1102,762,l),
(1066,628,o),
(1014,509,o),
(945,404,c),
(851,506,o),
(772,616,o),
(706,733,c),
(763,759,o),
(812,784,o),
(851,806,cs),
(891,828,o),
(923,847,o),
(946,864,cs),
(993,900,o),
(1030,938,o),
(1057,979,cs),
(1083,1020,o),
(1096,1067,o),
(1096,1118,cs),
(1096,1210,o),
(1063,1283,o),
(998,1336,cs),
(933,1390,o),
(843,1417,o),
(731,1417,cs),
(609,1417,o),
(515,1389,o),
(450,1332,cs),
(384,1276,o),
(351,1195,o),
(351,1091,cs),
(351,1048,o),
(357,1004,o),
(369,959,cs),
(381,913,o),
(399,866,o),
(425,815,c),
(307,759,o),
(221,696,o),
(167,626,cs),
(114,556,o),
(87,476,o),
(87,386,cs)
);
},
{
closed = 1;
nodes = (
(865,1088,o),
(857,1062,o),
(842,1039,c),
(825,1016,o),
(803,996,o),
(774,975,cs),
(745,955,o),
(696,931,o),
(627,901,c),
(592,970,o),
(574,1033,o),
(574,1089,cs),
(574,1135,o),
(588,1172,o),
(613,1200,c),
(640,1228,o),
(679,1242,o),
(729,1242,cs),
(771,1242,o),
(804,1231,o),
(829,1208,c),
(853,1184,o),
(865,1153,o),
(865,1117,cs)
);
},
{
closed = 1;
nodes = (
(762,232,o),
(735,215,o),
(701,199,cs),
(668,184,o),
(630,176,o),
(586,176,cs),
(513,176,o),
(456,195,o),
(413,234,c),
(371,274,o),
(350,327,o),
(350,391,cs),
(350,490,o),
(405,565,o),
(515,618,c),
(550,555,o),
(590,492,o),
(634,431,cs),
(679,369,o),
(728,309,o),
(782,248,c)
);
}
);
width = 1479;
},
{
layerId = "4F4EDE15-BE4F-4838-A8D1-739248E5F6B1";
shapes = (
{
closed = 1;
nodes = (
(62,250,o),
(102,154,o),
(182,85,cs),
(263,15,o),
(376,-20,o),
(522,-20,cs),
(666,-20,o),
(790,25,o),
(896,114,c),
(937,72,o),
(985,40,o),
(1036,20,cs),
(1088,-1,o),
(1143,-12,o),
(1201,-12,cs),
(1257,-12,o),
(1303,-5,o),
(1339,10,c),
(1339,162,l),
(1308,151,o),
(1269,146,o),
(1222,146,cs),
(1151,146,o),
(1084,176,o),
(1021,238,c),
(1118,380,o),
(1188,532,o),
(1230,695,c),
(1069,744,l),
(1031,589,o),
(974,456,o),
(900,346,c),
(785,477,o),
(691,608,o),
(619,739,c),
(679,764,o),
(731,787,o),
(776,811,cs),
(820,835,o),
(857,859,o),
(887,882,cs),
(934,918,o),
(970,957,o),
(991,998,c),
(1013,1038,o),
(1025,1082,o),
(1025,1130,cs),
(1025,1219,o),
(994,1288,o),
(931,1340,cs),
(868,1391,o),
(786,1417,o),
(682,1417,cs),
(568,1417,o),
(480,1389,o),
(418,1334,cs),
(356,1278,o),
(324,1201,o),
(324,1099,cs),
(324,1054,o),
(332,1004,o),
(347,949,cs),
(362,896,o),
(382,847,o),
(404,803,c),
(289,751,o),
(203,690,o),
(147,619,cs),
(90,548,o),
(62,466,o),
(62,374,cs)
);
},
{
closed = 1;
nodes = (
(856,1095,o),
(846,1064,o),
(826,1035,cs),
(807,1007,o),
(777,980,o),
(739,955,c),
(700,931,o),
(639,901,o),
(556,867,c),
(514,951,o),
(493,1028,o),
(493,1099,cs),
(493,1156,o),
(509,1202,o),
(541,1235,cs),
(573,1268,o),
(619,1284,o),
(680,1284,c),
(734,1285,o),
(777,1270,o),
(808,1241,cs),
(840,1212,o),
(856,1175,o),
(856,1129,cs)
);
},
{
closed = 1;
nodes = (
(747,193,o),
(709,170,o),
(665,152,cs),
(621,134,o),
(575,126,o),
(529,126,cs),
(443,125,o),
(375,148,o),
(325,193,cs),
(276,239,o),
(251,300,o),
(251,377,cs),
(251,502,o),
(325,598,o),
(472,662,c),
(512,589,o),
(557,517,o),
(608,444,cs),
(658,371,o),
(716,297,o),
(779,224,c)
);
}
);
width = 1366;
},
{
layerId = "B3E42AB7-2F0B-4826-A062-029E39AD2446";
shapes = (
{
closed = 1;
nodes = (
(66,245,o),
(104,151,o),
(181,83,cs),
(258,14,o),
(366,-20,o),
(506,-20,cs),
(653,-20,o),
(776,26,o),
(876,117,c),
(914,74,o),
(957,41,o),
(1004,20,cs),
(1051,-1,o),
(1104,-12,o),
(1163,-12,cs),
(1223,-12,o),
(1271,-5,o),
(1307,10,c),
(1307,123,l),
(1278,112,o),
(1239,107,o),
(1190,107,cs),
(1111,107,o),
(1039,142,o),
(972,213,c),
(1078,368,o),
(1151,529,o),
(1191,698,c),
(1067,732,l),
(1027,562,o),
(968,420,o),
(891,307,c),
(760,457,o),
(657,603,o),
(582,744,c),
(644,767,o),
(698,790,o),
(745,815,cs),
(792,840,o),
(833,866,o),
(868,893,cs),
(915,931,o),
(949,970,o),
(968,1010,cs),
(987,1049,o),
(997,1092,o),
(997,1137,cs),
(997,1224,o),
(967,1292,o),
(906,1342,cs),
(845,1392,o),
(767,1417,o),
(670,1417,cs),
(561,1417,o),
(476,1390,o),
(417,1335,cs),
(357,1280,o),
(327,1204,o),
(327,1105,cs),
(327,1057,o),
(336,1003,o),
(353,943,cs),
(370,884,o),
(390,835,o),
(411,796,c),
(297,746,o),
(211,685,o),
(153,614,cs),
(95,542,o),
(66,459,o),
(66,366,cs)
);
},
{
closed = 1;
nodes = (
(869,1100,o),
(858,1065,o),
(836,1032,cs),
(814,1000,o),
(780,970,o),
(735,942,cs),
(690,915,o),
(621,882,o),
(528,845,c),
(482,938,o),
(459,1025,o),
(459,1106,cs),
(459,1171,o),
(477,1222,o),
(512,1258,cs),
(548,1294,o),
(600,1312,o),
(668,1312,c),
(730,1313,o),
(779,1297,o),
(815,1264,cs),
(851,1231,o),
(869,1189,o),
(869,1138,cs)
);
},
{
closed = 1;
nodes = (
(757,168,o),
(711,139,o),
(660,120,cs),
(609,101,o),
(559,92,o),
(510,92,c),
(416,91,o),
(342,116,o),
(287,165,cs),
(233,215,o),
(206,283,o),
(206,368,cs),
(206,511,o),
(292,619,o),
(463,691,c),
(506,612,o),
(555,533,o),
(610,453,cs),
(665,372,o),
(728,290,o),
(797,207,c)
);
}
);
width = 1328;
}
);
unicode = 38;
}
{
glyphname = quotesingle;
layers = (
{
layerId = "0A527CAB-40A8-47D6-8FB3-136A5153B95C";
shapes = (
{
closed = 1;
nodes = (
(443,1409,l),
(112,1409,l),
(142,852,l),
(413,852,l)
);
}
);
width = 551;
},
{
layerId = "878309BC-9289-4993-9212-ED28064DE1EA";
shapes = (
{
closed = 1;
nodes = (
(385,1409,l),
(104,1409,l),
(131,891,l),
(358,891,l)
);
}
);
width = 487;
},
{
layerId = "6543F4AE-1A40-4DBA-A005-BFFCCFE6B0CF";
shapes = (
{
closed = 1;
nodes = (
(298,1409,l),
(93,1409,l),
(116,949,l),
(275,949,l)
);
}
);
width = 391;
},
{
layerId = "1E741E55-12B1-42F1-9EAF-651FD3104344";
shapes = (
{
closed = 1;
nodes = (
(257,1409,l),
(102,1409,l),
(122,988,l),
(237,988,l)
);
}
);
width = 359;
}
);
unicode = 39;
}
{
glyphname = parenleft;
layers = (
{
layerId = "40F9559D-0C66-47C0-904D-85A1A1CF5568";
shapes = (
{
closed = 1;
nodes = (
(687,-426,l),
(625,-315,o),
(575,-210,o),
(537,-110,cs),
(498,-10,o),
(470,91,o),
(453,194,cs),
(435,298,o),
(427,410,o),
(427,530,cs),
(427,711,o),
(447,875,o),
(487,1022,cs),
(528,1169,o),
(594,1323,o),
(687,1484,c),
(334,1484,l),
(274,1377,o),
(226,1274,o),
(189,1175,cs),
(152,1076,o),
(125,974,o),
(109,870,cs),
(93,765,o),
(85,653,o),
(85,533,cs),
(85,411,o),
(93,298,o),
(110,192,cs),
(126,87,o),
(153,-15,o),
(189,-115,cs),
(226,-215,o),
(275,-318,o),
(334,-426,c)
);
}
);
width = 682;
},
{
layerId = "5D6D431B-CC1B-4FAD-85A4-67ADFEBCB3CA";
shapes = (
{
closed = 1;
nodes = (
(681,-425,l),
(612,-320,o),
(555,-218,o),
(512,-118,cs),
(468,-18,o),
(436,84,o),
(416,189,cs),
(396,295,o),
(386,409,o),
(386,530,cs),
(386,712,o),
(409,879,o),
(456,1029,cs),
(503,1179,o),
(577,1331,o),
(681,1484,c),
(389,1484,l),
(321,1383,o),
(266,1283,o),
(223,1184,cs),
(180,1086,o),
(148,983,o),
(129,877,cs),
(109,770,o),
(99,655,o),
(99,531,c),
(100,407,o),
(109,292,o),
(129,185,cs),
(149,78,o),
(180,-24,o),
(223,-124,cs),
(266,-223,o),
(322,-323,o),
(389,-425,c)
);
}
);
width = 682;
},
{
layerId = "4F4EDE15-BE4F-4838-A8D1-739248E5F6B1";
shapes = (
{
closed = 1;
nodes = (
(673,-425,l),
(591,-328,o),
(526,-230,o),
(475,-130,cs),
(423,-31,o),
(386,74,o),
(362,183,cs),
(337,292,o),
(326,408,o),
(326,530,c),
(325,715,o),
(353,884,o),
(408,1039,cs),
(464,1194,o),
(553,1342,o),
(673,1484,c),
(473,1484,l),
(393,1391,o),
(327,1296,o),
(275,1198,cs),
(222,1100,o),
(184,996,o),
(158,886,cs),
(133,776,o),
(121,657,o),
(121,529,cs),
(121,402,o),
(134,284,o),
(159,174,cs),
(183,65,o),
(222,-39,o),
(273,-137,cs),
(326,-236,o),
(392,-332,o),
(473,-425,c)
);
}
);
width = 682;
},
{
layerId = "B3E42AB7-2F0B-4826-A062-029E39AD2446";
shapes = (
{
closed = 1;
nodes = (
(667,-424,l),
(578,-333,o),
(506,-238,o),
(450,-138,cs),
(393,-39,o),
(352,67,o),
(325,178,cs),
(298,289,o),
(285,407,o),
(285,530,c),
(284,716,o),
(315,888,o),
(377,1046,cs),
(439,1204,o),
(536,1350,o),
(667,1484,c),
(528,1484,l),
(440,1397,o),
(367,1305,o),
(309,1207,cs),
(250,1110,o),
(207,1005,o),
(178,893,cs),
(149,781,o),
(135,659,o),
(135,527,c),
(136,398,o),
(150,278,o),
(178,167,cs),
(206,56,o),
(249,-48,o),
(307,-146,cs),
(366,-244,o),
(439,-337,o),
(528,-424,c)
);
}
);
width = 682;
}
);
unicode = 40;
}
{
glyphname = parenright;
layers = (
{
layerId = "1DEF85E5-E6DA-4BD7-A4F9-3FA9E428A319";
shapes = (
{
closed = 1;
nodes = (
(348,-426,l),
(410,-317,o),
(459,-213,o),
(495,-112,cs),
(530,-12,o),
(557,91,o),
(573,195,cs),
(589,299,o),
(597,411,o),
(597,530,cs),
(597,649,o),
(589,761,o),
(573,866,cs),
(557,970,o),
(530,1072,o),
(495,1173,cs),
(459,1273,o),
(410,1377,o),
(348,1484,c),
(-5,1484,l),
(87,1326,o),
(153,1173,o),
(194,1024,cs),
(235,876,o),
(255,712,o),
(255,530,cs),
(255,410,o),
(247,299,o),
(229,195,cs),
(212,92,o),
(184,-10,o),
(146,-109,cs),
(108,-209,o),
(58,-315,o),
(-5,-426,c)
);
}
);
width = 682;
},
{
layerId = "F8FBB777-9D69-46EE-A2C4-A8FDEBDF8C7E";
shapes = (
{
closed = 1;
nodes = (
(293,-425,l),
(362,-323,o),
(418,-222,o),
(460,-122,cs),
(502,-23,o),
(534,81,o),
(553,187,cs),
(573,293,o),
(583,408,o),
(583,531,cs),
(583,653,o),
(573,767,o),
(553,874,cs),
(534,980,o),
(502,1083,o),
(460,1183,cs),
(418,1282,o),
(362,1383,o),
(293,1484,c),
(1,1484,l),
(104,1332,o),
(179,1181,o),
(226,1030,cs),
(272,879,o),
(296,713,o),
(296,530,cs),
(296,409,o),
(286,296,o),
(266,190,cs),
(246,85,o),
(214,-18,o),
(171,-118,cs),
(127,-218,o),
(71,-320,o),
(1,-425,c)
);
}
);
width = 682;
},
{
layerId = "6975E435-B590-441E-B7DA-A87770204C86";
shapes = (
{
closed = 1;
nodes = (
(209,-425,l),
(291,-331,o),
(357,-235,o),
(409,-137,cs),
(460,-39,o),
(498,65,o),
(524,175,cs),
(549,285,o),
(561,404,o),
(561,531,cs),
(561,658,o),
(549,777,o),
(524,886,cs),
(498,995,o),
(460,1099,o),
(409,1197,cs),
(357,1295,o),
(291,1391,o),
(209,1484,c),
(9,1484,l),
(129,1342,o),
(217,1194,o),
(273,1039,cs),
(329,885,o),
(356,716,o),
(356,530,cs),
(356,406,o),
(345,290,o),
(320,181,cs),
(296,73,o),
(259,-31,o),
(207,-130,cs),
(156,-230,o),
(90,-329,o),
(9,-425,c)
);
}
);
width = 682;
},
{
layerId = "AB1FD75E-92AF-4808-893A-81D0A5D4219E";
shapes = (
{
closed = 1;
nodes = (
(154,-424,l),
(243,-337,o),
(316,-244,o),
(374,-147,cs),
(432,-50,o),
(475,55,o),
(504,167,cs),
(533,279,o),
(547,401,o),
(547,532,cs),
(547,662,o),
(533,783,o),
(504,894,cs),
(475,1005,o),
(432,1110,o),
(374,1207,cs),
(316,1304,o),
(243,1397,o),
(154,1484,c),
(15,1484,l),
(146,1348,o),
(243,1202,o),
(305,1045,cs),
(366,888,o),
(397,717,o),
(397,530,cs),
(397,405,o),
(384,287,o),
(357,176,cs),
(330,66,o),
(289,-39,o),
(232,-139,cs),
(175,-239,o),
(103,-334,o),
(15,-424,c)
);
}
);
width = 682;
}
);
unicode = 41;
}
{
glyphname = asterisk;
layers = (
{
layerId = "48B546D8-C5CA-40A8-8404-D5B3E1476F73";
shapes = (
{
closed = 1;
nodes = (
(773,772,l),
(587,960,l),
(815,1013,l),
(732,1254,l),
(516,1149,l),
(537,1409,l),
(270,1409,l),
(292,1150,l),
(71,1252,l),
(-12,1013,l),
(218,960,l),
(27,774,l),
(258,617,l),
(402,866,l),
(546,618,l)
);
}
);
width = 797;
},
{
layerId = "9443E7DC-0C4A-42CC-997B-DD23E98306F4";
shapes = (
{
closed = 1;
nodes = (
(737,769,l),
(552,978,l),
(798,1038,l),
(728,1241,l),
(495,1137,l),
(514,1409,l),
(292,1409,l),
(310,1137,l),
(73,1241,l),
(3,1038,l),
(251,978,l),
(60,771,l),
(253,643,l),
(401,894,l),
(547,643,l)
);
}
);
width = 797;
},
{
layerId = "F7133933-345E-44EA-AD01-EBD83B4D43ED";
shapes = (
{
closed = 1;
nodes = (
(683,763,l),
(498,1004,l),
(772,1074,l),
(722,1223,l),
(465,1119,l),
(478,1409,l),
(324,1409,l),
(338,1117,l),
(77,1223,l),
(27,1074,l),
(299,1004,l),
(110,765,l),
(245,681,l),
(399,936,l),
(549,679,l)
);
}
);
width = 797;
},
{
layerId = "F39F01FC-5766-40F9-87FF-669365FEE249";
shapes = (
{
closed = 1;
nodes = (
(647,760,l),
(463,1022,l),
(755,1099,l),
(718,1210,l),
(444,1107,l),
(455,1409,l),
(346,1409,l),
(356,1104,l),
(79,1212,l),
(42,1099,l),
(332,1022,l),
(143,762,l),
(240,707,l),
(398,964,l),
(550,704,l)
);
}
);
width = 797;
}
);
unicode = 42;
}
{
glyphname = plus;
layers = (
{
layerId = "9CBD3AC2-9D8D-48B9-985E-25F89544A3BC";
shapes = (
{
closed = 1;
nodes = (
(738,543,l),
(1125,543,l),
(1125,819,l),
(738,819,l),
(738,1214,l),
(459,1214,l),
(459,819,l),
(77,819,l),
(77,543,l),
(459,543,l),
(459,148,l),
(738,148,l)
);
}
);
width = 1196;
},
{
layerId = "9CAA62FE-9EBF-4577-B1F1-D704579B9400";
shapes = (
{
closed = 1;
nodes = (
(715,565,l),
(1115,565,l),
(1115,797,l),
(715,797,l),
(715,1203,l),
(481,1203,l),
(481,797,l),
(85,797,l),
(85,565,l),
(481,565,l),
(481,159,l),
(715,159,l)
);
}
);
width = 1196;
},
{
layerId = "4CFB2959-BEB7-4CB7-85AA-15E8C72B431E";
shapes = (
{
closed = 1;
nodes = (
(681,599,l),
(1099,599,l),
(1099,763,l),
(681,763,l),
(681,1187,l),
(515,1187,l),
(515,763,l),
(97,763,l),
(97,599,l),
(515,599,l),
(515,175,l),
(681,175,l)
);
}
);
width = 1196;
},
{
layerId = "6C107EBF-3F3D-4659-9DBC-490DE09F0738";
shapes = (
{
closed = 1;
nodes = (
(658,621,l),
(1089,621,l),
(1089,741,l),
(658,741,l),
(658,1176,l),
(537,1176,l),
(537,741,l),
(105,741,l),
(105,621,l),
(537,621,l),
(537,186,l),
(658,186,l)
);
}
);
width = 1196;
}
);
unicode = 43;
}
{
glyphname = comma;
layers = (
{
layerId = "0A527CAB-40A8-47D6-8FB3-136A5153B95C";
shapes = (
{
closed = 1;
nodes = (
(463,363,l),
(112,363,l),
(112,0,l),
(268,0,l),
(268,-56,o),
(253,-117,o),
(222,-183,cs),
(191,-248,o),
(154,-305,o),
(109,-354,c),
(335,-354,l),
(381,-295,o),
(414,-230,o),
(434,-159,cs),
(454,-89,o),
(463,-10,o),
(463,76,cs)
);
}
);
width = 569;
},
{
layerId = "878309BC-9289-4993-9212-ED28064DE1EA";
shapes = (
{
closed = 1;
nodes = (
(436,314,l),
(139,314,l),
(139,0,l),
(271,0,l),
(271,-51,o),
(259,-106,o),
(233,-164,cs),
(207,-222,o),
(175,-275,o),
(135,-323,c),
(325,-323,l),
(365,-269,o),
(393,-211,o),
(411,-148,cs),
(428,-85,o),
(436,-13,o),
(436,67,cs)
);
}
);
width = 569;
},
{
layerId = "6543F4AE-1A40-4DBA-A005-BFFCCFE6B0CF";
shapes = (
{
closed = 1;
nodes = (
(396,240,l),
(179,240,l),
(179,0,l),
(277,0,l),
(277,-44,o),
(268,-90,o),
(250,-137,cs),
(232,-183,o),
(207,-229,o),
(173,-275,c),
(311,-275,l),
(340,-229,o),
(363,-181,o),
(376,-130,cs),
(390,-80,o),
(396,-18,o),
(396,55,cs)
);
}
);
width = 569;
},
{
layerId = "1E741E55-12B1-42F1-9EAF-651FD3104344";
shapes = (
{
closed = 1;
nodes = (
(369,191,l),
(206,191,l),
(206,0,l),
(280,0,l),
(280,-39,o),
(274,-79,o),
(261,-118,cs),
(248,-157,o),
(228,-199,o),
(199,-244,c),
(301,-244,l),
(324,-203,o),
(342,-162,o),
(353,-119,cs),
(364,-76,o),
(369,-21,o),
(369,46,cs)
);
}
);
width = 569;
}
);
unicode = 44;
}
{
glyphname = hyphen;
layers = (
{
layerId = "1DEF85E5-E6DA-4BD7-A4F9-3FA9E428A319";
shapes = (
{
closed = 1;
nodes = (
(606,672,l),
(73,672,l),
(73,372,l),
(606,372,l)
);
}
);
width = 682;
},
{
layerId = "F8FBB777-9D69-46EE-A2C4-A8FDEBDF8C7E";
shapes = (
{
closed = 1;
nodes = (
(601,655,l),
(79,655,l),
(79,403,l),
(601,403,l)
);
}
);
width = 682;
},
{
layerId = "6975E435-B590-441E-B7DA-A87770204C86";
shapes = (
{
closed = 1;
nodes = (
(593,631,l),
(89,631,l),
(89,451,l),
(593,451,l)
);
}
);
width = 682;
},
{
layerId = "AB1FD75E-92AF-4808-893A-81D0A5D4219E";
shapes = (
{
closed = 1;
nodes = (
(588,614,l),
(95,614,l),
(95,482,l),
(588,482,l)
);
}
);
width = 682;
}
);
unicode = 45;
}
{
glyphname = period;
layers = (
{
layerId = "0223EC17-1D6C-4E86-A3CA-0633C37BA543";
shapes = (
{
closed = 1;
nodes = (
(459,363,l),
(107,363,l),
(107,0,l),
(459,0,l)
);
}
);
width = 569;
},
{
layerId = "D23BE918-FDD7-48F3-9118-B5187C1A8D3A";
shapes = (
{
closed = 1;
nodes = (
(433,314,l),
(134,314,l),
(134,0,l),
(433,0,l)
);
}
);
width = 569;
},
{
layerId = "18E55F76-04A3-47B5-A890-6BB42B40107E";
shapes = (
{
closed = 1;
nodes = (
(393,240,l),
(176,240,l),
(176,0,l),
(393,0,l)
);
}
);
width = 569;
},
{
layerId = "68B4E185-86CD-4FB2-9D99-F65C6A982671";
shapes = (
{
closed = 1;
nodes = (
(367,191,l),
(203,191,l),
(203,0,l),
(367,0,l)
);
}
);
width = 569;
}
);
unicode = 46;
}
{
glyphname = slash;
layers = (
{
layerId = "0A527CAB-40A8-47D6-8FB3-136A5153B95C";
shapes = (
{
closed = 1;
nodes = (
(536,1484,l),
(244,1484,l),
(33,-55,l),
(331,-55,l)
);
}
);
width = 569;
},
{
layerId = "878309BC-9289-4993-9212-ED28064DE1EA";
shapes = (
{
closed = 1;
nodes = (
(547,1484,l),
(301,1484,l),
(22,-43,l),
(273,-43,l)
);
}
);
width = 569;
},
{
layerId = "6543F4AE-1A40-4DBA-A005-BFFCCFE6B0CF";
shapes = (
{
closed = 1;
nodes = (
(565,1484,l),
(387,1484,l),
(4,-25,l),
(187,-25,l)
);
}
);
width = 569;
},
{
layerId = "1E741E55-12B1-42F1-9EAF-651FD3104344";
shapes = (
{
closed = 1;
nodes = (
(576,1484,l),
(444,1484,l),
(-7,-13,l),
(129,-13,l)
);
}
);
width = 569;
}
);
unicode = 47;
}
{
glyphname = zero;
layers = (
{
layerId = "0A527CAB-40A8-47D6-8FB3-136A5153B95C";
shapes = (
{
closed = 1;
nodes = (
(1052,949,o),
(1014,1131,o),
(938,1250,cs),
(862,1370,o),
(740,1430,o),
(573,1430,cs),
(397,1430,o),
(271,1372,o),
(195,1256,cs),
(120,1139,o),
(82,956,o),
(82,705,cs),
(82,461,o),
(122,279,o),
(202,159,cs),
(282,40,o),
(403,-20,o),
(564,-20,cs),
(728,-20,o),
(850,41,o),
(931,163,cs),
(1012,284,o),
(1052,465,o),
(1052,705,cs)
);
},
{
closed = 1;
nodes = (
(704,533,o),
(697,415,o),
(682,349,cs),
(667,283,o),
(628,251,o),
(566,251,cs),
(523,251,o),
(492,263,o),
(473,288,cs),
(453,313,o),
(441,359,o),
(436,425,cs),
(431,490,o),
(429,584,o),
(429,705,cs),
(429,823,o),
(431,916,o),
(435,982,cs),
(440,1048,o),
(452,1094,o),
(472,1121,cs),
(491,1147,o),
(524,1160,o),
(570,1160,cs),
(610,1160,o),
(640,1148,o),
(659,1122,c),
(679,1097,o),
(691,1051,o),
(696,985,cs),
(701,919,o),
(704,825,o),
(704,705,cs)
);
}
);
width = 1139;
},
{
layerId = "878309BC-9289-4993-9212-ED28064DE1EA";
shapes = (
{
closed = 1;
nodes = (
(1054,948,o),
(1016,1129,o),
(939,1249,cs),
(862,1370,o),
(740,1430,o),
(573,1430,cs),
(399,1430,o),
(273,1371,o),
(196,1254,cs),
(120,1135,o),
(81,953,o),
(81,705,cs),
(81,464,o),
(122,282,o),
(202,161,cs),
(283,41,o),
(404,-20,o),
(565,-20,cs),
(728,-20,o),
(851,41,o),
(932,164,cs),
(1014,286,o),
(1054,466,o),
(1054,705,cs)
);
},
{
closed = 1;
nodes = (
(763,525,o),
(750,398,o),
(723,322,cs),
(696,246,o),
(644,209,o),
(567,209,c),
(515,208,o),
(475,223,o),
(446,254,cs),
(418,284,o),
(398,336,o),
(387,409,cs),
(377,481,o),
(372,580,o),
(372,705,cs),
(372,830,o),
(377,929,o),
(386,1001,cs),
(397,1074,o),
(417,1125,o),
(445,1157,c),
(474,1187,o),
(516,1202,o),
(571,1202,cs),
(622,1202,o),
(661,1188,o),
(689,1157,c),
(718,1127,o),
(737,1075,o),
(747,1003,cs),
(757,930,o),
(763,830,o),
(763,705,cs)
);
}
);
width = 1139;
},
{
layerId = "6543F4AE-1A40-4DBA-A005-BFFCCFE6B0CF";
shapes = (
{
closed = 1;
nodes = (
(1058,945,o),
(1018,1126,o),
(940,1247,cs),
(862,1369,o),
(739,1430,o),
(573,1430,cs),
(401,1430,o),
(276,1370,o),
(198,1250,cs),
(120,1130,o),
(81,948,o),
(81,705,cs),
(81,467,o),
(121,287,o),
(202,164,cs),
(283,41,o),
(405,-20,o),
(567,-20,cs),
(729,-20,o),
(851,42,o),
(934,166,cs),
(1016,289,o),
(1058,469,o),
(1058,705,cs)
);
},
{
closed = 1;
nodes = (
(851,512,o),
(829,371,o),
(785,280,cs),
(741,190,o),
(669,145,o),
(569,145,cs),
(502,145,o),
(448,164,o),
(407,202,cs),
(364,241,o),
(334,302,o),
(315,384,cs),
(295,466,o),
(286,573,o),
(286,705,cs),
(286,839,o),
(295,948,o),
(314,1031,cs),
(333,1113,o),
(363,1173,o),
(406,1210,cs),
(447,1247,o),
(503,1266,o),
(573,1266,cs),
(639,1266,o),
(694,1247,o),
(735,1209,cs),
(776,1171,o),
(806,1112,o),
(824,1029,cs),
(842,947,o),
(851,839,o),
(851,705,cs)
);
}
);
width = 1139;
},
{
layerId = "1E741E55-12B1-42F1-9EAF-651FD3104344";
shapes = (
{
closed = 1;
nodes = (
(1060,944,o),
(1020,1124,o),
(941,1246,cs),
(862,1369,o),
(739,1430,o),
(573,1430,cs),
(403,1430,o),
(278,1369,o),
(199,1248,cs),
(120,1126,o),
(80,945,o),
(80,705,cs),
(80,470,o),
(121,290,o),
(202,166,cs),
(284,42,o),
(406,-20,o),
(568,-20,cs),
(729,-20,o),
(852,42,o),
(935,167,cs),
(1018,291,o),
(1060,470,o),
(1060,705,cs)
);
},
{
closed = 1;
nodes = (
(910,504,o),
(882,354,o),
(826,253,cs),
(770,153,o),
(685,103,o),
(570,103,c),
(494,102,o),
(431,124,o),
(380,168,cs),
(329,212,o),
(291,279,o),
(266,368,cs),
(241,457,o),
(229,569,o),
(229,705,cs),
(229,846,o),
(241,961,o),
(265,1050,cs),
(290,1139,o),
(328,1204,o),
(379,1246,cs),
(430,1287,o),
(495,1308,o),
(574,1308,cs),
(651,1308,o),
(715,1287,o),
(765,1244,cs),
(815,1201,o),
(852,1136,o),
(875,1047,cs),
(898,958,o),
(910,844,o),
(910,705,cs)
);
}
);
width = 1139;
}
);
unicode = 48;
}
{
glyphname = one;
layers = (
{
layerId = "9CBD3AC2-9D8D-48B9-985E-25F89544A3BC";
shapes = (
{
closed = 1;
nodes = (
(1111,247,l),
(801,247,l),
(801,1409,l),
(468,1409,l),
(102,1180,l),
(102,925,l),
(453,1125,l),
(453,247,l),
(111,247,l),
(111,0,l),
(1111,0,l)
);
}
);
width = 1139;
},
{
layerId = "9CAA62FE-9EBF-4577-B1F1-D704579B9400";
shapes = (
{
closed = 1;
nodes = (
(1086,215,l),
(765,215,l),
(765,1409,l),
(489,1409,l),
(135,1180,l),
(135,954,l),
(474,1163,l),
(474,215,l),
(126,215,l),
(126,0,l),
(1086,0,l)
);
}
);
width = 1139;
},
{
layerId = "4CFB2959-BEB7-4CB7-85AA-15E8C72B431E";
shapes = (
{
closed = 1;
nodes = (
(1050,167,l),
(711,167,l),
(711,1409,l),
(521,1409,l),
(183,1180,l),
(183,998,l),
(506,1221,l),
(506,167,l),
(150,167,l),
(150,0,l),
(1050,0,l)
);
}
);
width = 1139;
},
{
layerId = "6C107EBF-3F3D-4659-9DBC-490DE09F0738";
shapes = (
{
closed = 1;
nodes = (
(1025,135,l),
(675,135,l),
(675,1409,l),
(542,1409,l),
(216,1180,l),
(216,1027,l),
(527,1259,l),
(527,135,l),
(165,135,l),
(165,0,l),
(1025,0,l)
);
}
);
width = 1139;
}
);
unicode = 49;
}
{
glyphname = two;
layers = (
{
layerId = "0A527CAB-40A8-47D6-8FB3-136A5153B95C";
shapes = (
{
closed = 1;
nodes = (
(1071,283,l),
(471,283,l),
(489,324,o),
(515,360,o),
(548,390,c),
(582,419,o),
(612,444,o),
(639,464,cs),
(666,484,o),
(703,511,o),
(749,544,cs),
(796,577,o),
(842,617,o),
(886,664,cs),
(930,710,o),
(968,762,o),
(1001,819,cs),
(1033,877,o),
(1049,946,o),
(1049,1027,cs),
(1049,1154,o),
(1007,1253,o),
(922,1324,cs),
(837,1395,o),
(716,1430,o),
(557,1430,cs),
(409,1430,o),
(294,1395,o),
(213,1325,cs),
(132,1255,o),
(82,1149,o),
(64,1006,c),
(414,991,l),
(423,1048,o),
(438,1090,o),
(458,1116,cs),
(477,1142,o),
(511,1155,o),
(560,1155,cs),
(609,1155,o),
(644,1144,o),
(665,1121,cs),
(686,1099,o),
(697,1062,o),
(697,1011,cs),
(697,1008,o),
(698,1001,o),
(698,988,c),
(699,976,o),
(694,958,o),
(683,936,cs),
(671,913,o),
(645,881,o),
(603,840,cs),
(561,799,o),
(504,748,o),
(433,690,cs),
(362,631,o),
(300,574,o),
(248,519,cs),
(196,463,o),
(155,413,o),
(124,367,cs),
(93,320,o),
(68,278,o),
(50,241,c),
(50,0,l),
(1071,0,l)
);
}
);
width = 1139;
},
{
layerId = "878309BC-9289-4993-9212-ED28064DE1EA";
shapes = (
{
closed = 1;
nodes = (
(1059,238,l),
(413,238,l),
(432,281,o),
(460,322,o),
(497,359,c),
(535,395,o),
(575,430,o),
(618,464,cs),
(660,497,o),
(705,532,o),
(752,569,cs),
(799,605,o),
(844,645,o),
(885,690,cs),
(927,734,o),
(963,784,o),
(993,840,cs),
(1022,897,o),
(1037,961,o),
(1037,1033,cs),
(1037,1159,o),
(996,1256,o),
(914,1326,cs),
(832,1396,o),
(715,1430,o),
(562,1430,cs),
(421,1430,o),
(309,1396,o),
(227,1327,cs),
(146,1258,o),
(97,1158,o),
(80,1025,c),
(373,1009,l),
(382,1073,o),
(402,1120,o),
(432,1151,cs),
(462,1183,o),
(506,1198,o),
(564,1198,cs),
(624,1198,o),
(669,1184,o),
(698,1154,cs),
(727,1125,o),
(742,1080,o),
(742,1020,cs),
(742,999,o),
(738,976,o),
(729,952,cs),
(721,929,o),
(708,904,o),
(690,879,cs),
(671,853,o),
(644,824,o),
(608,789,cs),
(573,755,o),
(524,713,o),
(464,664,cs),
(403,615,o),
(346,564,o),
(293,511,cs),
(241,458,o),
(196,407,o),
(159,356,cs),
(122,304,o),
(92,253,o),
(68,202,c),
(68,0,l),
(1059,0,l)
);
}
);
width = 1139;
},
{
layerId = "6543F4AE-1A40-4DBA-A005-BFFCCFE6B0CF";
shapes = (
{
closed = 1;
nodes = (
(1041,172,l),
(325,172,l),
(345,218,o),
(377,264,o),
(420,312,cs),
(464,359,o),
(519,410,o),
(585,463,cs),
(652,517,o),
(709,565,o),
(755,605,cs),
(803,646,o),
(846,688,o),
(884,729,cs),
(922,770,o),
(954,818,o),
(980,872,cs),
(1006,926,o),
(1019,983,o),
(1019,1041,cs),
(1019,1165,o),
(981,1262,o),
(903,1329,cs),
(825,1396,o),
(715,1430,o),
(570,1430,cs),
(438,1430,o),
(331,1396,o),
(249,1329,cs),
(166,1262,o),
(118,1170,o),
(104,1053,c),
(313,1037,l),
(322,1109,o),
(349,1165,o),
(394,1205,cs),
(438,1244,o),
(497,1264,o),
(570,1264,cs),
(646,1264,o),
(705,1244,o),
(747,1204,cs),
(789,1164,o),
(810,1108,o),
(810,1034,cs),
(810,984,o),
(799,940,o),
(776,899,cs),
(754,859,o),
(728,824,o),
(699,794,cs),
(670,764,o),
(643,737,o),
(617,714,cs),
(590,690,o),
(555,660,o),
(510,626,cs),
(466,591,o),
(416,549,o),
(362,500,cs),
(307,450,o),
(258,397,o),
(212,339,cs),
(167,281,o),
(127,216,o),
(96,144,c),
(96,0,l),
(1041,0,l)
);
}
);
width = 1139;
},
{
layerId = "1E741E55-12B1-42F1-9EAF-651FD3104344";
shapes = (
{
closed = 1;
nodes = (
(1029,127,l),
(267,127,l),
(288,175,o),
(322,226,o),
(369,281,cs),
(417,335,o),
(482,396,o),
(564,463,cs),
(646,530,o),
(711,586,o),
(758,630,cs),
(806,674,o),
(848,716,o),
(883,755,cs),
(919,794,o),
(949,840,o),
(972,893,cs),
(995,946,o),
(1007,998,o),
(1007,1047,cs),
(1007,1170,o),
(970,1265,o),
(895,1331,cs),
(820,1397,o),
(714,1430,o),
(575,1430,cs),
(450,1430,o),
(346,1397,o),
(263,1331,cs),
(180,1265,o),
(133,1179,o),
(120,1072,c),
(272,1055,l),
(281,1134,o),
(313,1195,o),
(368,1240,cs),
(423,1285,o),
(492,1307,o),
(574,1307,cs),
(661,1307,o),
(730,1284,o),
(780,1237,cs),
(830,1190,o),
(855,1126,o),
(855,1043,cs),
(855,975,o),
(839,915,o),
(807,863,cs),
(776,812,o),
(742,770,o),
(706,737,cs),
(670,704,o),
(642,680,o),
(622,663,cs),
(602,646,o),
(575,625,o),
(541,600,cs),
(507,575,o),
(462,539,o),
(407,492,cs),
(352,445,o),
(299,391,o),
(247,328,cs),
(196,265,o),
(151,191,o),
(114,105,c),
(114,0,l),
(1029,0,l)
);
}
);
width = 1139;
}
);
unicode = 50;
}
{
glyphname = three;
layers = (
{
layerId = "0223EC17-1D6C-4E86-A3CA-0633C37BA543";
shapes = (
{
closed = 1;
nodes = (
(1076,483,o),
(1047,558,o),
(989,616,cs),
(930,673,o),
(846,709,o),
(737,722,c),
(737,726,l),
(835,744,o),
(910,781,o),
(963,838,cs),
(1015,895,o),
(1042,967,o),
(1042,1054,cs),
(1042,1171,o),
(999,1263,o),
(913,1330,cs),
(826,1397,o),
(708,1430,o),
(556,1430,cs),
(411,1430,o),
(295,1394,o),
(206,1323,cs),
(118,1252,o),
(66,1153,o),
(50,1028,c),
(398,1004,l),
(402,1052,o),
(417,1090,o),
(444,1116,cs),
(470,1142,o),
(506,1155,o),
(549,1155,cs),
(594,1155,o),
(629,1142,o),
(653,1116,cs),
(678,1090,o),
(690,1054,o),
(690,1008,cs),
(690,956,o),
(674,918,o),
(642,891,cs),
(611,865,o),
(561,852,o),
(492,852,cs),
(404,852,l),
(404,577,l),
(500,577,ls),
(574,577,o),
(630,564,o),
(666,537,cs),
(702,510,o),
(720,470,o),
(720,417,cs),
(720,361,o),
(706,320,o),
(678,295,c),
(651,269,o),
(611,256,o),
(559,256,cs),
(453,256,o),
(393,313,o),
(379,427,c),
(26,397,l),
(41,262,o),
(95,158,o),
(187,85,cs),
(279,12,o),
(404,-25,o),
(561,-25,cs),
(725,-25,o),
(852,11,o),
(942,84,cs),
(1031,156,o),
(1076,259,o),
(1076,392,cs)
);
}
);
width = 1139;
},
{
layerId = "D23BE918-FDD7-48F3-9118-B5187C1A8D3A";
shapes = (
{
closed = 1;
nodes = (
(1067,482,o),
(1038,557,o),
(980,615,cs),
(921,673,o),
(837,708,o),
(730,721,c),
(730,725,l),
(827,744,o),
(901,781,o),
(953,838,cs),
(1005,895,o),
(1031,967,o),
(1031,1055,cs),
(1031,1172,o),
(990,1264,o),
(906,1331,cs),
(822,1397,o),
(707,1430,o),
(558,1430,cs),
(419,1430,o),
(306,1395,o),
(219,1326,cs),
(133,1258,o),
(83,1162,o),
(68,1040,c),
(359,1019,l),
(364,1076,o),
(384,1121,o),
(418,1152,cs),
(452,1183,o),
(497,1198,o),
(553,1198,cs),
(613,1198,o),
(658,1182,o),
(689,1150,cs),
(721,1118,o),
(736,1074,o),
(736,1018,cs),
(736,958,o),
(716,913,o),
(677,880,cs),
(638,848,o),
(579,833,o),
(499,833,cs),
(408,833,l),
(408,598,l),
(506,598,ls),
(593,598,o),
(659,582,o),
(703,550,cs),
(747,517,o),
(769,471,o),
(769,410,cs),
(769,343,o),
(751,293,o),
(714,261,cs),
(679,229,o),
(628,213,o),
(563,213,cs),
(432,212,o),
(357,278,o),
(340,410,c),
(44,385,l),
(59,253,o),
(112,152,o),
(202,82,cs),
(291,12,o),
(412,-23,o),
(564,-23,cs),
(725,-23,o),
(849,13,o),
(936,85,cs),
(1023,157,o),
(1067,259,o),
(1067,391,cs)
);
}
);
width = 1139;
},
{
layerId = "18E55F76-04A3-47B5-A890-6BB42B40107E";
shapes = (
{
closed = 1;
nodes = (
(1053,479,o),
(1024,554,o),
(965,614,cs),
(906,672,o),
(825,708,o),
(718,719,c),
(718,723,l),
(814,743,o),
(888,781,o),
(939,837,cs),
(989,894,o),
(1015,967,o),
(1015,1057,cs),
(1015,1174,o),
(975,1266,o),
(896,1331,cs),
(816,1397,o),
(704,1430,o),
(562,1430,cs),
(430,1430,o),
(323,1397,o),
(240,1332,cs),
(157,1266,o),
(108,1174,o),
(94,1058,c),
(299,1043,l),
(307,1113,o),
(334,1168,o),
(380,1206,cs),
(425,1244,o),
(485,1264,o),
(559,1264,cs),
(640,1264,o),
(702,1243,o),
(743,1202,cs),
(785,1161,o),
(806,1105,o),
(806,1034,cs),
(805,961,o),
(780,904,o),
(728,864,cs),
(677,824,o),
(605,803,o),
(511,803,cs),
(414,803,l),
(414,630,l),
(516,630,ls),
(622,630,o),
(703,610,o),
(758,569,cs),
(813,529,o),
(841,471,o),
(841,398,cs),
(841,315,o),
(817,253,o),
(769,211,cs),
(721,168,o),
(655,147,o),
(569,147,cs),
(399,147,o),
(303,227,o),
(280,386,c),
(70,367,l),
(87,240,o),
(138,144,o),
(223,78,cs),
(309,12,o),
(425,-21,o),
(570,-21,cs),
(724,-21,o),
(844,15,o),
(928,87,cs),
(1011,158,o),
(1053,259,o),
(1053,389,cs)
);
}
);
width = 1139;
},
{
layerId = "68B4E185-86CD-4FB2-9D99-F65C6A982671";
shapes = (
{
closed = 1;
nodes = (
(1044,478,o),
(1015,553,o),
(956,613,cs),
(897,672,o),
(816,707,o),
(711,718,c),
(711,722,l),
(806,743,o),
(879,781,o),
(929,837,cs),
(979,894,o),
(1004,967,o),
(1004,1058,cs),
(1004,1175,o),
(966,1267,o),
(889,1332,cs),
(812,1397,o),
(703,1430,o),
(564,1430,cs),
(438,1430,o),
(334,1398,o),
(253,1335,cs),
(172,1272,o),
(125,1183,o),
(112,1070,c),
(260,1058,l),
(269,1137,o),
(301,1199,o),
(354,1242,cs),
(407,1285,o),
(476,1307,o),
(563,1307,cs),
(659,1307,o),
(731,1283,o),
(779,1236,cs),
(828,1189,o),
(852,1125,o),
(852,1044,c),
(851,963,o),
(822,899,o),
(763,853,cs),
(704,807,o),
(623,784,o),
(518,784,cs),
(418,784,l),
(418,651,l),
(522,651,ls),
(641,651,o),
(732,628,o),
(795,582,cs),
(858,536,o),
(890,472,o),
(890,391,cs),
(890,297,o),
(862,226,o),
(805,177,cs),
(749,128,o),
(672,104,o),
(573,104,c),
(378,103,o),
(267,192,o),
(241,369,c),
(88,355,l),
(105,231,o),
(155,138,o),
(238,75,cs),
(321,12,o),
(433,-19,o),
(573,-19,cs),
(724,-19,o),
(841,17,o),
(922,88,cs),
(1003,159,o),
(1044,259,o),
(1044,388,cs)
);
}
);
width = 1139;
}
);
unicode = 51;
}
{
glyphname = four;
layers = (
{
layerId = "0A527CAB-40A8-47D6-8FB3-136A5153B95C";
shapes = (
{
closed = 1;
nodes = (
(980,266,l),
(1161,266,l),
(1161,519,l),
(980,519,l),
(980,1409,l),
(582,1409,l),
(20,524,l),
(20,266,l),
(646,266,l),
(646,0,l),
(980,0,l)
);
},
{
closed = 1;
nodes = (
(291,519,l),
(549,930,ls),
(580,980,o),
(605,1022,o),
(624,1054,cs),
(643,1087,o),
(654,1109,o),
(658,1121,c),
(657,1121,o),
(655,1097,o),
(651,1047,cs),
(648,997,o),
(646,952,o),
(646,913,cs),
(646,519,l)
);
}
);
width = 1139;
},
{
layerId = "878309BC-9289-4993-9212-ED28064DE1EA";
shapes = (
{
closed = 1;
nodes = (
(946,284,l),
(1133,284,l),
(1133,499,l),
(946,499,l),
(946,1409,l),
(620,1409,l),
(29,502,l),
(29,284,l),
(668,284,l),
(668,0,l),
(946,0,l)
);
},
{
closed = 1;
nodes = (
(264,499,l),
(582,984,l),
(605,1021,o),
(625,1054,o),
(641,1081,cs),
(658,1110,o),
(670,1132,o),
(677,1150,c),
(676,1140,o),
(674,1114,o),
(672,1070,cs),
(670,1027,o),
(668,987,o),
(668,951,cs),
(668,499,l)
);
}
);
width = 1139;
},
{
layerId = "6543F4AE-1A40-4DBA-A005-BFFCCFE6B0CF";
shapes = (
{
closed = 1;
nodes = (
(896,312,l),
(1091,312,l),
(1091,469,l),
(896,469,l),
(896,1409,l),
(676,1409,l),
(43,468,l),
(43,312,l),
(702,312,l),
(702,0,l),
(896,0,l)
);
},
{
closed = 1;
nodes = (
(224,469,l),
(630,1064,ls),
(643,1083,o),
(655,1103,o),
(668,1123,cs),
(680,1143,o),
(693,1167,o),
(707,1194,c),
(705,1167,o),
(704,1138,o),
(702,1105,c),
(702,1071,o),
(702,1039,o),
(702,1007,cs),
(702,469,l)
);
}
);
width = 1139;
},
{
layerId = "1E741E55-12B1-42F1-9EAF-651FD3104344";
shapes = (
{
closed = 1;
nodes = (
(862,330,l),
(1063,330,l),
(1063,449,l),
(862,449,l),
(862,1409,l),
(714,1409,l),
(52,446,l),
(52,330,l),
(724,330,l),
(724,0,l),
(862,0,l)
);
},
{
closed = 1;
nodes = (
(197,449,l),
(663,1118,l),
(668,1124,o),
(675,1135,o),
(685,1150,cs),
(695,1166,o),
(709,1190,o),
(726,1223,c),
(724,1186,o),
(723,1155,o),
(723,1128,c),
(724,1101,o),
(724,1074,o),
(724,1045,cs),
(724,449,l)
);
}
);
width = 1139;
}
);
unicode = 52;
}
{
glyphname = five;
layers = (
{
layerId = "0A527CAB-40A8-47D6-8FB3-136A5153B95C";
shapes = (
{
closed = 1;
nodes = (
(1101,578,o),
(1084,664,o),
(1048,736,cs),
(1012,807,o),
(962,862,o),
(897,900,cs),
(831,938,o),
(755,957,o),
(668,957,cs),
(576,957,o),
(499,927,o),
(437,867,c),
(458,1162,l),
(1019,1162,l),
(1019,1409,l),
(142,1409,l),
(91,593,l),
(431,593,l),
(444,619,o),
(463,640,o),
(488,655,c),
(514,669,o),
(542,677,o),
(574,677,cs),
(630,677,o),
(672,658,o),
(701,621,cs),
(730,583,o),
(744,533,o),
(744,468,cs),
(744,396,o),
(728,343,o),
(695,307,cs),
(662,272,o),
(619,254,o),
(567,254,cs),
(525,254,o),
(489,265,o),
(460,287,cs),
(430,309,o),
(409,347,o),
(398,401,c),
(50,377,l),
(69,248,o),
(123,150,o),
(211,82,cs),
(299,14,o),
(417,-20,o),
(565,-20,cs),
(730,-20,o),
(861,25,o),
(957,116,cs),
(1053,206,o),
(1101,326,o),
(1101,476,cs)
);
}
);
width = 1139;
},
{
layerId = "878309BC-9289-4993-9212-ED28064DE1EA";
shapes = (
{
closed = 1;
nodes = (
(1084,567,o),
(1067,650,o),
(1031,720,cs),
(994,789,o),
(943,843,o),
(877,881,cs),
(810,918,o),
(733,937,o),
(644,937,cs),
(544,937,o),
(460,907,o),
(392,847,c),
(416,1194,l),
(1002,1194,l),
(1002,1409,l),
(152,1409,l),
(102,613,l),
(386,613,l),
(409,643,o),
(436,665,o),
(466,680,cs),
(498,695,o),
(532,703,o),
(569,703,cs),
(638,703,o),
(691,681,o),
(729,638,cs),
(767,594,o),
(786,536,o),
(786,463,cs),
(786,381,o),
(766,319,o),
(726,275,cs),
(685,232,o),
(631,211,o),
(564,211,cs),
(509,211,o),
(464,224,o),
(428,250,cs),
(391,276,o),
(366,319,o),
(352,379,c),
(61,356,l),
(81,234,o),
(134,141,o),
(219,77,cs),
(305,12,o),
(419,-20,o),
(561,-20,cs),
(723,-20,o),
(851,24,o),
(944,113,cs),
(1038,202,o),
(1084,321,o),
(1084,470,cs)
);
}
);
width = 1139;
},
{
layerId = "6543F4AE-1A40-4DBA-A005-BFFCCFE6B0CF";
shapes = (
{
closed = 1;
nodes = (
(1060,552,o),
(1041,629,o),
(1004,696,cs),
(968,763,o),
(916,814,o),
(848,851,cs),
(780,889,o),
(700,907,o),
(608,907,cs),
(495,907,o),
(401,877,o),
(326,817,c),
(352,1242,l),
(978,1242,l),
(978,1409,l),
(166,1409,l),
(118,643,l),
(318,643,l),
(355,678,o),
(394,704,o),
(434,719,cs),
(473,733,o),
(516,741,o),
(563,741,cs),
(651,741,o),
(721,715,o),
(772,663,cs),
(823,610,o),
(848,542,o),
(848,457,cs),
(848,359,o),
(823,283,o),
(771,228,cs),
(720,173,o),
(648,145,o),
(558,145,cs),
(486,145,o),
(426,162,o),
(380,195,cs),
(334,228,o),
(302,278,o),
(284,345,c),
(77,324,l),
(98,212,o),
(150,127,o),
(232,68,cs),
(313,10,o),
(421,-20,o),
(555,-20,cs),
(713,-20,o),
(836,23,o),
(926,110,cs),
(1015,195,o),
(1060,312,o),
(1060,462,cs)
);
}
);
width = 1139;
},
{
layerId = "1E741E55-12B1-42F1-9EAF-651FD3104344";
shapes = (
{
closed = 1;
nodes = (
(1043,541,o),
(1024,615,o),
(987,680,cs),
(950,745,o),
(897,795,o),
(828,832,cs),
(759,869,o),
(678,887,o),
(584,887,cs),
(463,887,o),
(362,857,o),
(281,797,c),
(310,1274,l),
(961,1274,l),
(961,1409,l),
(176,1409,l),
(129,663,l),
(273,663,l),
(320,702,o),
(367,729,o),
(412,744,cs),
(457,759,o),
(506,767,o),
(558,767,cs),
(659,767,o),
(740,738,o),
(800,680,cs),
(860,621,o),
(890,545,o),
(890,452,cs),
(890,344,o),
(861,259,o),
(802,196,cs),
(743,133,o),
(660,102,o),
(555,102,cs),
(470,102,o),
(401,121,o),
(348,158,cs),
(295,195,o),
(259,250,o),
(238,323,c),
(88,303,l),
(110,198,o),
(161,118,o),
(240,63,cs),
(319,8,o),
(423,-20,o),
(551,-20,cs),
(706,-20,o),
(826,22,o),
(913,107,cs),
(1000,191,o),
(1043,307,o),
(1043,456,cs)
);
}
);
width = 1139;
}
);
unicode = 53;
}
{
glyphname = six;
layers = (
{
layerId = "9CBD3AC2-9D8D-48B9-985E-25F89544A3BC";
shapes = (
{
closed = 1;
nodes = (
(1076,598,o),
(1040,707,o),
(969,786,cs),
(897,865,o),
(800,904,o),
(677,904,cs),
(616,904,o),
(560,893,o),
(511,869,cs),
(462,846,o),
(423,813,o),
(395,770,c),
(395,905,o),
(412,1003,o),
(446,1065,cs),
(480,1126,o),
(526,1157,o),
(583,1157,cs),
(650,1157,o),
(693,1118,o),
(711,1040,c),
(1038,1081,l),
(1009,1202,o),
(959,1291,o),
(889,1346,cs),
(818,1402,o),
(719,1430,o),
(591,1430,cs),
(419,1430,o),
(286,1368,o),
(194,1243,cs),
(102,1119,o),
(56,928,o),
(56,672,cs),
(56,441,o),
(102,268,o),
(194,153,cs),
(286,38,o),
(418,-20,o),
(589,-20,cs),
(741,-20,o),
(860,22,o),
(946,107,cs),
(1033,192,o),
(1076,310,o),
(1076,461,cs)
);
},
{
closed = 1;
nodes = (
(727,389,o),
(714,339,o),
(688,303,cs),
(663,267,o),
(626,249,o),
(578,249,cs),
(545,249,o),
(517,259,o),
(492,279,cs),
(467,299,o),
(449,325,o),
(436,359,cs),
(423,393,o),
(416,431,o),
(416,474,cs),
(416,526,o),
(430,568,o),
(458,602,cs),
(486,635,o),
(523,652,o),
(570,652,cs),
(618,652,o),
(657,635,o),
(685,601,cs),
(713,568,o),
(727,518,o),
(727,453,cs)
);
}
);
width = 1139;
},
{
layerId = "9CAA62FE-9EBF-4577-B1F1-D704579B9400";
shapes = (
{
closed = 1;
nodes = (
(1067,598,o),
(1030,707,o),
(957,787,cs),
(884,867,o),
(785,906,o),
(659,906,cs),
(593,906,o),
(533,894,o),
(480,867,cs),
(428,841,o),
(386,804,o),
(357,755,c),
(357,906,o),
(377,1017,o),
(419,1091,cs),
(461,1164,o),
(518,1200,o),
(591,1200,cs),
(676,1200,o),
(731,1155,o),
(754,1065,c),
(1028,1102,l),
(1000,1214,o),
(951,1297,o),
(882,1350,cs),
(812,1403,o),
(718,1430,o),
(597,1430,cs),
(428,1430,o),
(299,1367,o),
(208,1240,cs),
(118,1114,o),
(73,924,o),
(73,672,c),
(72,443,o),
(117,271,o),
(206,154,cs),
(296,38,o),
(424,-20,o),
(591,-20,cs),
(739,-20,o),
(856,22,o),
(940,108,cs),
(1025,193,o),
(1067,311,o),
(1067,461,cs)
);
},
{
closed = 1;
nodes = (
(774,376,o),
(757,316,o),
(723,272,cs),
(690,228,o),
(643,207,o),
(581,207,cs),
(540,207,o),
(505,219,o),
(474,243,cs),
(443,266,o),
(420,298,o),
(403,340,cs),
(386,382,o),
(377,428,o),
(377,481,cs),
(377,545,o),
(395,596,o),
(431,635,cs),
(467,674,o),
(514,693,o),
(574,693,cs),
(636,693,o),
(686,672,o),
(721,631,c),
(757,591,o),
(774,531,o),
(774,453,cs)
);
}
);
width = 1139;
},
{
layerId = "4CFB2959-BEB7-4CB7-85AA-15E8C72B431E";
shapes = (
{
closed = 1;
nodes = (
(1053,598,o),
(1015,708,o),
(940,789,cs),
(864,869,o),
(761,910,o),
(633,910,cs),
(558,910,o),
(491,894,o),
(434,864,cs),
(376,834,o),
(331,789,o),
(299,731,c),
(299,906,o),
(326,1039,o),
(379,1130,cs),
(432,1220,o),
(507,1266,o),
(603,1266,cs),
(715,1266,o),
(787,1211,o),
(820,1101,c),
(1014,1134,l),
(987,1233,o),
(940,1307,o),
(872,1356,cs),
(804,1406,o),
(715,1430,o),
(605,1430,cs),
(443,1430,o),
(317,1365,o),
(229,1235,cs),
(141,1105,o),
(97,917,o),
(97,672,cs),
(97,446,o),
(139,274,o),
(225,157,cs),
(310,39,o),
(433,-20,o),
(593,-20,cs),
(737,-20,o),
(849,23,o),
(930,108,cs),
(1012,195,o),
(1053,312,o),
(1053,461,cs)
);
},
{
closed = 1;
nodes = (
(846,357,o),
(823,281,o),
(777,226,cs),
(732,171,o),
(668,143,o),
(587,143,cs),
(534,143,o),
(488,158,o),
(447,188,cs),
(406,218,o),
(375,259,o),
(352,312,cs),
(329,364,o),
(317,425,o),
(317,493,cs),
(317,574,o),
(341,638,o),
(390,685,cs),
(438,731,o),
(502,755,o),
(580,755,cs),
(664,754,o),
(729,728,o),
(776,676,cs),
(822,624,o),
(846,549,o),
(846,453,cs)
);
}
);
width = 1139;
},
{
layerId = "6C107EBF-3F3D-4659-9DBC-490DE09F0738";
shapes = (
{
closed = 1;
nodes = (
(1044,598,o),
(1005,708,o),
(928,790,cs),
(851,871,o),
(746,912,o),
(615,912,cs),
(535,912,o),
(464,895,o),
(403,862,cs),
(342,829,o),
(294,780,o),
(261,716,c),
(261,907,o),
(291,1053,o),
(352,1156,cs),
(413,1258,o),
(499,1309,o),
(611,1309,cs),
(741,1309,o),
(825,1248,o),
(863,1126,c),
(1004,1155,l),
(978,1245,o),
(932,1313,o),
(865,1360,cs),
(798,1407,o),
(714,1430,o),
(611,1430,cs),
(452,1430,o),
(330,1364,o),
(243,1232,cs),
(157,1100,o),
(114,913,o),
(114,672,c),
(113,448,o),
(154,277,o),
(237,158,cs),
(320,39,o),
(439,-20,o),
(595,-20,cs),
(735,-20,o),
(845,23,o),
(924,109,cs),
(1004,196,o),
(1044,313,o),
(1044,461,cs)
);
},
{
closed = 1;
nodes = (
(893,344,o),
(866,258,o),
(812,195,cs),
(759,132,o),
(685,101,o),
(590,101,cs),
(529,101,o),
(476,118,o),
(429,152,cs),
(382,185,o),
(346,232,o),
(319,293,cs),
(292,353,o),
(278,422,o),
(278,500,cs),
(278,593,o),
(306,666,o),
(363,718,cs),
(419,770,o),
(493,796,o),
(584,796,c),
(682,795,o),
(758,765,o),
(812,706,cs),
(866,647,o),
(893,562,o),
(893,453,cs)
);
}
);
width = 1139;
}
);
unicode = 54;
}
{
glyphname = seven;
layers = (
{
layerId = "9CBD3AC2-9D8D-48B9-985E-25F89544A3BC";
shapes = (
{
closed = 1;
nodes = (
(1058,1409,l),
(77,1409,l),
(77,1126,l),
(738,1126,l),
(646,992,o),
(575,887,o),
(525,811,cs),
(475,736,o),
(436,674,o),
(407,625,c),
(351,518,o),
(310,416,o),
(284,320,cs),
(258,223,o),
(245,117,o),
(245,0,c),
(608,0,l),
(608,100,o),
(618,193,o),
(639,280,cs),
(660,367,o),
(686,448,o),
(716,522,c),
(766,639,o),
(822,747,o),
(882,846,cs),
(941,945,o),
(1000,1041,o),
(1058,1134,c)
);
}
);
width = 1139;
},
{
layerId = "9CAA62FE-9EBF-4577-B1F1-D704579B9400";
shapes = (
{
closed = 1;
nodes = (
(1051,1409,l),
(87,1409,l),
(87,1171,l),
(780,1171,l),
(690,1039,o),
(618,930,o),
(564,842,cs),
(510,755,o),
(467,679,o),
(434,612,cs),
(383,506,o),
(345,404,o),
(322,308,cs),
(298,211,o),
(286,109,o),
(286,0,c),
(589,0,l),
(589,110,o),
(601,214,o),
(625,313,cs),
(649,412,o),
(681,507,o),
(721,599,cs),
(764,697,o),
(815,794,o),
(872,888,cs),
(928,982,o),
(988,1079,o),
(1051,1178,c)
);
}
);
width = 1139;
},
{
layerId = "4CFB2959-BEB7-4CB7-85AA-15E8C72B431E";
shapes = (
{
closed = 1;
nodes = (
(1039,1409,l),
(101,1409,l),
(101,1237,l),
(844,1237,l),
(757,1111,o),
(683,994,o),
(623,889,cs),
(563,784,o),
(514,685,o),
(476,594,cs),
(431,487,o),
(399,386,o),
(378,290,cs),
(358,193,o),
(348,97,o),
(348,0,c),
(561,0,l),
(561,126,o),
(575,247,o),
(603,363,cs),
(631,479,o),
(674,596,o),
(729,713,cs),
(761,784,o),
(804,863,o),
(856,951,cs),
(908,1039,o),
(969,1137,o),
(1039,1244,c)
);
}
);
width = 1139;
},
{
layerId = "6C107EBF-3F3D-4659-9DBC-490DE09F0738";
shapes = (
{
closed = 1;
nodes = (
(1032,1409,l),
(111,1409,l),
(111,1282,l),
(886,1282,l),
(801,1158,o),
(726,1037,o),
(662,920,cs),
(598,803,o),
(545,690,o),
(503,581,cs),
(463,475,o),
(434,374,o),
(416,278,cs),
(398,181,o),
(389,89,o),
(389,0,c),
(542,0,l),
(542,136,o),
(558,268,o),
(589,396,cs),
(620,524,o),
(669,655,o),
(734,790,cs),
(759,842,o),
(797,910,o),
(846,993,cs),
(895,1076,o),
(957,1175,o),
(1032,1288,c)
);
}
);
width = 1139;
}
);
unicode = 55;
}
{
glyphname = eight;
layers = (
{
layerId = "0A527CAB-40A8-47D6-8FB3-136A5153B95C";
shapes = (
{
closed = 1;
nodes = (
(1093,495,o),
(1067,571,o),
(1014,630,cs),
(961,688,o),
(890,724,o),
(798,739,c),
(798,743,l),
(877,758,o),
(940,794,o),
(987,851,cs),
(1035,908,o),
(1058,973,o),
(1058,1047,cs),
(1058,1173,o),
(1017,1268,o),
(935,1333,cs),
(852,1398,o),
(730,1430,o),
(568,1430,cs),
(409,1430,o),
(288,1397,o),
(206,1330,cs),
(123,1263,o),
(82,1170,o),
(82,1049,cs),
(82,975,o),
(106,909,o),
(154,851,cs),
(202,794,o),
(264,757,o),
(340,741,c),
(340,737,l),
(249,721,o),
(178,683,o),
(126,622,cs),
(75,561,o),
(49,486,o),
(49,398,cs),
(49,266,o),
(94,164,o),
(185,90,cs),
(275,17,o),
(404,-20,o),
(572,-20,cs),
(739,-20,o),
(867,17,o),
(958,90,cs),
(1048,163,o),
(1093,266,o),
(1093,400,cs)
);
},
{
closed = 1;
nodes = (
(701,967,o),
(691,923,o),
(670,897,cs),
(649,871,o),
(615,857,o),
(570,857,cs),
(523,857,o),
(489,871,o),
(469,899,cs),
(448,927,o),
(438,970,o),
(438,1029,cs),
(438,1137,o),
(481,1191,o),
(568,1191,cs),
(657,1191,o),
(701,1137,o),
(701,1029,cs)
);
},
{
closed = 1;
nodes = (
(733,353,o),
(720,300,o),
(695,268,cs),
(670,236,o),
(629,220,o),
(574,220,cs),
(516,220,o),
(474,236,o),
(447,266,cs),
(420,297,o),
(407,349,o),
(407,423,cs),
(407,488,o),
(420,537,o),
(446,570,cs),
(473,603,o),
(512,619,o),
(564,619,cs),
(624,619,o),
(667,603,o),
(693,571,cs),
(720,539,o),
(733,491,o),
(733,427,cs)
);
}
);
width = 1139;
},
{
layerId = "878309BC-9289-4993-9212-ED28064DE1EA";
shapes = (
{
closed = 1;
nodes = (
(1078,492,o),
(1052,568,o),
(1001,628,cs),
(949,687,o),
(878,724,o),
(787,739,c),
(787,743,l),
(865,758,o),
(927,795,o),
(974,853,cs),
(1020,911,o),
(1043,978,o),
(1043,1054,cs),
(1043,1175,o),
(1003,1268,o),
(921,1333,cs),
(839,1398,o),
(721,1430,o),
(567,1430,cs),
(416,1430,o),
(300,1397,o),
(219,1330,cs),
(136,1263,o),
(96,1172,o),
(96,1056,cs),
(96,980,o),
(119,912,o),
(166,853,cs),
(213,795,o),
(274,758,o),
(350,741,c),
(350,737,l),
(262,722,o),
(193,684,o),
(140,622,cs),
(89,561,o),
(63,485,o),
(63,396,cs),
(63,264,o),
(107,162,o),
(196,89,cs),
(284,16,o),
(409,-20,o),
(571,-20,cs),
(734,-20,o),
(859,17,o),
(947,90,cs),
(1035,163,o),
(1078,265,o),
(1078,398,cs)
);
},
{
closed = 1;
nodes = (
(744,968,o),
(730,917,o),
(701,887,cs),
(672,856,o),
(628,840,o),
(569,840,cs),
(510,840,o),
(466,857,o),
(437,890,cs),
(407,923,o),
(393,972,o),
(393,1039,cs),
(393,1164,o),
(451,1227,o),
(567,1227,cs),
(686,1227,o),
(744,1164,o),
(744,1039,cs)
);
},
{
closed = 1;
nodes = (
(778,337,o),
(761,277,o),
(728,240,cs),
(695,203,o),
(643,184,o),
(573,184,cs),
(501,184,o),
(448,203,o),
(414,239,cs),
(379,276,o),
(362,336,o),
(362,417,cs),
(362,489,o),
(379,543,o),
(414,581,cs),
(449,619,o),
(499,638,o),
(565,638,cs),
(636,638,o),
(690,620,o),
(724,584,cs),
(760,547,o),
(778,493,o),
(778,421,cs)
);
}
);
width = 1139;
},
{
layerId = "6543F4AE-1A40-4DBA-A005-BFFCCFE6B0CF";
shapes = (
{
closed = 1;
nodes = (
(1056,487,o),
(1031,564,o),
(980,626,cs),
(930,687,o),
(860,724,o),
(769,739,c),
(769,743,l),
(847,758,o),
(909,795,o),
(953,855,cs),
(999,915,o),
(1021,984,o),
(1021,1064,cs),
(1022,1178,o),
(981,1267,o),
(901,1332,cs),
(820,1397,o),
(709,1430,o),
(567,1430,cs),
(428,1430,o),
(318,1397,o),
(237,1330,cs),
(157,1263,o),
(116,1176,o),
(116,1066,cs),
(116,986,o),
(139,917,o),
(183,857,cs),
(228,798,o),
(289,759,o),
(366,741,c),
(366,737,l),
(282,723,o),
(214,685,o),
(162,623,cs),
(109,560,o),
(83,484,o),
(83,392,cs),
(83,260,o),
(126,159,o),
(212,87,cs),
(298,16,o),
(418,-20,o),
(571,-20,cs),
(727,-20,o),
(847,16,o),
(931,89,cs),
(1014,162,o),
(1056,264,o),
(1056,394,cs)
);
},
{
closed = 1;
nodes = (
(810,969,o),
(790,909,o),
(749,872,cs),
(708,835,o),
(648,816,o),
(569,816,cs),
(490,816,o),
(430,836,o),
(388,876,cs),
(346,916,o),
(325,976,o),
(325,1053,cs),
(325,1205,o),
(405,1281,o),
(567,1281,cs),
(728,1281,o),
(810,1205,o),
(810,1053,cs)
);
},
{
closed = 1;
nodes = (
(844,314,o),
(822,242,o),
(777,197,cs),
(733,152,o),
(665,130,o),
(573,130,cs),
(480,130,o),
(410,153,o),
(363,199,cs),
(317,246,o),
(294,315,o),
(294,409,cs),
(294,489,o),
(318,552,o),
(365,598,cs),
(413,644,o),
(480,666,o),
(565,666,cs),
(655,666,o),
(723,645,o),
(772,602,cs),
(820,560,o),
(844,497,o),
(844,413,cs)
);
}
);
width = 1139;
},
{
layerId = "1E741E55-12B1-42F1-9EAF-651FD3104344";
shapes = (
{
closed = 1;
nodes = (
(1041,484,o),
(1016,561,o),
(967,624,cs),
(918,686,o),
(848,724,o),
(758,739,c),
(758,743,l),
(835,758,o),
(896,796,o),
(940,857,cs),
(984,918,o),
(1006,989,o),
(1006,1071,c),
(1007,1180,o),
(967,1267,o),
(887,1332,cs),
(807,1397,o),
(700,1430,o),
(566,1430,cs),
(435,1430,o),
(330,1397,o),
(250,1330,cs),
(170,1263,o),
(130,1178,o),
(130,1073,cs),
(130,991,o),
(152,920,o),
(195,859,cs),
(239,799,o),
(299,760,o),
(376,741,c),
(376,737,l),
(295,724,o),
(229,686,o),
(176,623,cs),
(123,560,o),
(97,483,o),
(97,390,cs),
(97,258,o),
(139,157,o),
(223,86,cs),
(307,15,o),
(423,-20,o),
(570,-20,cs),
(722,-20,o),
(839,16,o),
(920,89,cs),
(1001,162,o),
(1041,263,o),
(1041,392,cs)
);
},
{
closed = 1;
nodes = (
(853,970,o),
(829,903,o),
(780,862,cs),
(731,820,o),
(661,799,o),
(568,799,cs),
(477,799,o),
(407,822,o),
(356,867,cs),
(305,912,o),
(280,978,o),
(280,1063,cs),
(280,1232,o),
(375,1317,o),
(566,1317,cs),
(757,1317,o),
(853,1232,o),
(853,1063,cs)
);
},
{
closed = 1;
nodes = (
(889,298,o),
(863,219,o),
(810,169,cs),
(758,119,o),
(679,94,o),
(572,94,cs),
(465,94,o),
(384,120,o),
(330,172,cs),
(276,225,o),
(249,302,o),
(249,403,cs),
(249,490,o),
(277,558,o),
(333,609,cs),
(389,660,o),
(467,685,o),
(566,685,cs),
(667,685,o),
(746,662,o),
(803,615,cs),
(860,568,o),
(889,499,o),
(889,407,cs)
);
}
);
width = 1139;
}
);
unicode = 56;
}
{
glyphname = nine;
layers = (
{
layerId = "0A527CAB-40A8-47D6-8FB3-136A5153B95C";
shapes = (
{
closed = 1;
nodes = (
(1077,959,o),
(1035,1136,o),
(952,1253,cs),
(868,1371,o),
(738,1430,o),
(562,1430,cs),
(399,1430,o),
(273,1389,o),
(186,1306,cs),
(98,1223,o),
(54,1108,o),
(54,959,cs),
(54,863,o),
(70,780,o),
(102,711,cs),
(134,642,o),
(180,589,o),
(239,551,cs),
(298,513,o),
(369,494,o),
(451,494,cs),
(510,494,o),
(566,506,o),
(619,529,cs),
(672,552,o),
(711,585,o),
(735,628,c),
(735,500,o),
(718,406,o),
(686,344,cs),
(653,283,o),
(605,252,o),
(543,252,cs),
(469,252,o),
(422,294,o),
(402,379,c),
(77,336,l),
(106,214,o),
(158,124,o),
(231,66,cs),
(304,9,o),
(407,-20,o),
(540,-20,cs),
(711,-20,o),
(844,40,o),
(937,160,cs),
(1030,280,o),
(1077,468,o),
(1077,723,cs)
);
},
{
closed = 1;
nodes = (
(712,897,o),
(706,863,o),
(693,835,cs),
(681,808,o),
(663,786,o),
(640,771,cs),
(616,756,o),
(589,748,o),
(557,748,cs),
(508,748,o),
(471,768,o),
(446,806,cs),
(420,845,o),
(408,895,o),
(408,956,cs),
(408,1021,o),
(421,1071,o),
(447,1107,cs),
(473,1143,o),
(509,1160,o),
(554,1160,cs),
(601,1160,o),
(639,1140,o),
(669,1100,cs),
(698,1060,o),
(712,1005,o),
(712,935,cs)
);
}
);
width = 1139;
},
{
layerId = "878309BC-9289-4993-9212-ED28064DE1EA";
shapes = (
{
closed = 1;
nodes = (
(1065,961,o),
(1024,1137,o),
(941,1254,cs),
(859,1371,o),
(733,1430,o),
(563,1430,cs),
(406,1430,o),
(283,1389,o),
(198,1305,cs),
(111,1222,o),
(68,1106,o),
(68,958,cs),
(68,862,o),
(85,779,o),
(118,709,cs),
(151,639,o),
(198,586,o),
(258,547,cs),
(318,509,o),
(390,489,o),
(473,489,cs),
(538,490,o),
(599,504,o),
(656,531,cs),
(713,559,o),
(754,597,o),
(779,646,c),
(778,501,o),
(757,392,o),
(717,318,c),
(675,245,o),
(616,209,o),
(540,209,cs),
(450,208,o),
(391,256,o),
(366,352,c),
(94,315,l),
(122,199,o),
(173,114,o),
(244,60,cs),
(314,7,o),
(412,-20,o),
(537,-20,cs),
(706,-20,o),
(836,42,o),
(928,165,cs),
(1019,289,o),
(1065,476,o),
(1065,726,cs)
);
},
{
closed = 1;
nodes = (
(758,881,o),
(749,842,o),
(732,809,cs),
(715,777,o),
(691,751,o),
(661,733,cs),
(630,715,o),
(596,705,o),
(557,705,cs),
(495,705,o),
(448,729,o),
(415,774,cs),
(380,820,o),
(364,881,o),
(364,956,cs),
(364,1033,o),
(381,1094,o),
(415,1137,cs),
(450,1181,o),
(496,1202,o),
(556,1202,cs),
(616,1202,o),
(665,1177,o),
(703,1127,cs),
(740,1077,o),
(758,1010,o),
(758,925,cs)
);
}
);
width = 1139;
},
{
layerId = "6543F4AE-1A40-4DBA-A005-BFFCCFE6B0CF";
shapes = (
{
closed = 1;
nodes = (
(1047,965,o),
(1006,1140,o),
(926,1255,cs),
(844,1372,o),
(724,1430,o),
(565,1430,cs),
(415,1430,o),
(299,1388,o),
(215,1304,cs),
(132,1219,o),
(90,1104,o),
(90,956,cs),
(90,861,o),
(107,778,o),
(141,707,cs),
(175,636,o),
(224,580,o),
(286,542,cs),
(348,502,o),
(421,483,o),
(505,483,cs),
(580,483,o),
(648,500,o),
(711,535,cs),
(774,569,o),
(819,615,o),
(845,672,c),
(843,501,o),
(815,371,o),
(762,280,cs),
(709,189,o),
(633,143,o),
(536,143,cs),
(420,143,o),
(346,199,o),
(312,312,c),
(118,283,l),
(147,177,o),
(195,100,o),
(262,52,cs),
(330,4,o),
(420,-20,o),
(533,-20,cs),
(697,-20,o),
(825,44,o),
(913,173,cs),
(1002,301,o),
(1047,488,o),
(1047,732,cs)
);
},
{
closed = 1;
nodes = (
(826,858,o),
(814,811,o),
(789,770,cs),
(765,730,o),
(733,698,o),
(692,675,cs),
(651,652,o),
(606,641,o),
(557,641,cs),
(477,641,o),
(414,669,o),
(367,726,cs),
(321,783,o),
(298,859,o),
(298,956,cs),
(298,1052,o),
(321,1127,o),
(368,1183,cs),
(414,1238,o),
(478,1266,o),
(558,1266,cs),
(640,1266,o),
(705,1234,o),
(754,1169,cs),
(802,1104,o),
(826,1018,o),
(826,911,cs)
);
}
);
width = 1139;
},
{
layerId = "1E741E55-12B1-42F1-9EAF-651FD3104344";
shapes = (
{
closed = 1;
nodes = (
(1035,967,o),
(995,1141,o),
(915,1256,cs),
(835,1372,o),
(719,1430,o),
(566,1430,cs),
(422,1430,o),
(309,1388,o),
(227,1303,cs),
(145,1218,o),
(104,1102,o),
(104,955,cs),
(104,860,o),
(122,777,o),
(157,705,cs),
(192,633,o),
(242,577,o),
(305,538,cs),
(368,498,o),
(442,478,o),
(527,478,c),
(608,479,o),
(681,498,o),
(748,537,cs),
(815,576,o),
(862,627,o),
(889,690,c),
(886,502,o),
(854,357,o),
(793,254,cs),
(731,151,o),
(644,100,o),
(533,100,c),
(401,99,o),
(315,161,o),
(276,285,c),
(135,262,l),
(163,162,o),
(210,90,o),
(275,46,cs),
(340,2,o),
(425,-20,o),
(530,-20,cs),
(692,-20,o),
(817,46,o),
(904,178,cs),
(991,310,o),
(1035,496,o),
(1035,735,cs)
);
},
{
closed = 1;
nodes = (
(872,842,o),
(857,790,o),
(828,744,cs),
(799,699,o),
(761,663,o),
(713,637,cs),
(665,611,o),
(613,598,o),
(557,598,cs),
(464,598,o),
(391,630,o),
(336,694,cs),
(281,758,o),
(254,845,o),
(254,956,cs),
(254,1064,o),
(281,1150,o),
(336,1213,cs),
(391,1276,o),
(465,1308,o),
(560,1308,cs),
(655,1308,o),
(731,1271,o),
(788,1196,cs),
(844,1121,o),
(872,1023,o),
(872,901,cs)
);
}
);
width = 1139;
}
);
unicode = 57;
}
{
glyphname = colon;
layers = (
{
layerId = "9CBD3AC2-9D8D-48B9-985E-25F89544A3BC";
shapes = (
{
closed = 1;
nodes = (
(554,1002,l),
(204,1002,l),
(204,670,l),
(554,670,l)
);
},
{
closed = 1;
nodes = (
(554,331,l),
(204,331,l),
(204,0,l),
(554,0,l)
);
}
);
width = 757;
},
{
layerId = "9CAA62FE-9EBF-4577-B1F1-D704579B9400";
shapes = (
{
closed = 1;
nodes = (
(490,1029,l),
(193,1029,l),
(193,740,l),
(490,740,l)
);
},
{
closed = 1;
nodes = (
(490,289,l),
(193,289,l),
(193,0,l),
(490,0,l)
);
}
);
width = 682;
},
{
layerId = "4CFB2959-BEB7-4CB7-85AA-15E8C72B431E";
shapes = (
{
closed = 1;
nodes = (
(393,1071,l),
(176,1071,l),
(176,846,l),
(393,846,l)
);
},
{
closed = 1;
nodes = (
(393,225,l),
(176,225,l),
(176,0,l),
(393,0,l)
);
}
);
width = 569;
},
{
layerId = "6C107EBF-3F3D-4659-9DBC-490DE09F0738";
shapes = (
{
closed = 1;
nodes = (
(348,1098,l),
(184,1098,l),
(184,916,l),
(348,916,l)
);
},
{
closed = 1;
nodes = (
(348,183,l),
(184,183,l),
(184,0,l),
(348,0,l)
);
}
);
width = 531;
}
);
unicode = 58;
}
{
glyphname = semicolon;
layers = (
{
layerId = "9CBD3AC2-9D8D-48B9-985E-25F89544A3BC";
shapes = (
{
closed = 1;
nodes = (
(555,1002,l),
(205,1002,l),
(205,670,l),
(555,670,l)
);
},
{
closed = 1;
nodes = (
(555,331,l),
(205,331,l),
(205,0,l),
(362,0,l),
(362,-51,o),
(348,-108,o),
(320,-170,cs),
(292,-233,o),
(253,-294,o),
(202,-354,c),
(427,-354,l),
(473,-295,o),
(506,-230,o),
(525,-159,cs),
(545,-89,o),
(555,-10,o),
(555,76,cs)
);
}
);
width = 757;
},
{
layerId = "9CAA62FE-9EBF-4577-B1F1-D704579B9400";
shapes = (
{
closed = 1;
nodes = (
(492,1029,l),
(195,1029,l),
(195,740,l),
(492,740,l)
);
},
{
closed = 1;
nodes = (
(492,289,l),
(195,289,l),
(195,0,l),
(328,0,l),
(328,-48,o),
(316,-100,o),
(293,-156,cs),
(269,-212,o),
(235,-267,o),
(191,-323,c),
(381,-323,l),
(420,-269,o),
(449,-211,o),
(465,-148,c),
(483,-85,o),
(492,-13,o),
(492,67,cs)
);
}
);
width = 682;
},
{
layerId = "4CFB2959-BEB7-4CB7-85AA-15E8C72B431E";
shapes = (
{
closed = 1;
nodes = (
(395,1071,l),
(178,1071,l),
(178,846,l),
(395,846,l)
);
},
{
closed = 1;
nodes = (
(395,225,l),
(178,225,l),
(178,0,l),
(277,0,l),
(277,-43,o),
(268,-88,o),
(250,-134,cs),
(232,-181,o),
(206,-228,o),
(172,-275,c),
(310,-275,l),
(340,-229,o),
(361,-181,o),
(375,-130,cs),
(388,-80,o),
(395,-18,o),
(395,55,cs)
);
}
);
width = 569;
},
{
layerId = "6C107EBF-3F3D-4659-9DBC-490DE09F0738";
shapes = (
{
closed = 1;
nodes = (
(351,1098,l),
(187,1098,l),
(187,916,l),
(351,916,l)
);
},
{
closed = 1;
nodes = (
(351,183,l),
(187,183,l),
(187,0,l),
(262,0,l),
(262,-40,o),
(255,-80,o),
(242,-120,cs),
(228,-160,o),
(207,-201,o),
(180,-244,c),
(283,-244,l),
(306,-203,o),
(323,-162,o),
(334,-119,cs),
(345,-76,o),
(351,-21,o),
(351,46,cs)
);
}
);
width = 531;
}
);
unicode = 59;
}
{
glyphname = less;
layers = (
{
layerId = "1DEF85E5-E6DA-4BD7-A4F9-3FA9E428A319";
shapes = (
{
closed = 1;
nodes = (
(1124,382,l),
(308,677,l),
(1124,975,l),
(1124,1252,l),
(76,880,l),
(76,479,l),
(1124,106,l)
);
}
);
width = 1196;
},
{
layerId = "F8FBB777-9D69-46EE-A2C4-A8FDEBDF8C7E";
shapes = (
{
closed = 1;
nodes = (
(1114,356,l),
(284,676,l),
(1114,997,l),
(1114,1232,l),
(85,845,l),
(85,510,l),
(1114,123,l)
);
}
);
width = 1196;
},
{
layerId = "6975E435-B590-441E-B7DA-A87770204C86";
shapes = (
{
closed = 1;
nodes = (
(1100,318,l),
(248,674,l),
(1100,1031,l),
(1100,1202,l),
(97,791,l),
(97,558,l),
(1100,147,l)
);
}
);
width = 1196;
},
{
layerId = "AB1FD75E-92AF-4808-893A-81D0A5D4219E";
shapes = (
{
closed = 1;
nodes = (
(1090,292,l),
(224,673,l),
(1090,1053,l),
(1090,1182,l),
(106,756,l),
(106,589,l),
(1090,164,l)
);
}
);
width = 1196;
}
);
unicode = 60;
}
{
glyphname = equal;
layers = (
{
layerId = "48B546D8-C5CA-40A8-8404-D5B3E1476F73";
shapes = (
{
closed = 1;
nodes = (
(1123,1106,l),
(75,1106,l),
(75,833,l),
(1123,833,l)
);
},
{
closed = 1;
nodes = (
(1123,525,l),
(75,525,l),
(75,255,l),
(1123,255,l)
);
}
);
width = 1196;
},
{
layerId = "9443E7DC-0C4A-42CC-997B-DD23E98306F4";
shapes = (
{
closed = 1;
nodes = (
(1113,1071,l),
(84,1071,l),
(84,841,l),
(1113,841,l)
);
},
{
closed = 1;
nodes = (
(1113,514,l),
(84,514,l),
(84,285,l),
(1113,285,l)
);
}
);
width = 1196;
},
{
layerId = "F7133933-345E-44EA-AD01-EBD83B4D43ED";
shapes = (
{
closed = 1;
nodes = (
(1099,1019,l),
(96,1019,l),
(96,853,l),
(1099,853,l)
);
},
{
closed = 1;
nodes = (
(1099,496,l),
(96,496,l),
(96,331,l),
(1099,331,l)
);
}
);
width = 1196;
},
{
layerId = "F39F01FC-5766-40F9-87FF-669365FEE249";
shapes = (
{
closed = 1;
nodes = (
(1089,984,l),
(105,984,l),
(105,861,l),
(1089,861,l)
);
},
{
closed = 1;
nodes = (
(1089,485,l),
(105,485,l),
(105,361,l),
(1089,361,l)
);
}
);
width = 1196;
}
);
unicode = 61;
}
{
glyphname = greater;
layers = (
{
layerId = "40F9559D-0C66-47C0-904D-85A1A1CF5568";
shapes = (
{
closed = 1;
nodes = (
(1124,479,l),
(1124,880,l),
(76,1252,l),
(76,975,l),
(891,677,l),
(76,382,l),
(76,106,l)
);
}
);
width = 1196;
},
{
layerId = "5D6D431B-CC1B-4FAD-85A4-67ADFEBCB3CA";
shapes = (
{
closed = 1;
nodes = (
(1114,510,l),
(1114,845,l),
(85,1232,l),
(85,997,l),
(914,676,l),
(85,356,l),
(85,123,l)
);
}
);
width = 1196;
},
{
layerId = "4F4EDE15-BE4F-4838-A8D1-739248E5F6B1";
shapes = (
{
closed = 1;
nodes = (
(1100,558,l),
(1100,791,l),
(97,1202,l),
(97,1031,l),
(950,674,l),
(97,318,l),
(97,147,l)
);
}
);
width = 1196;
},
{
layerId = "B3E42AB7-2F0B-4826-A062-029E39AD2446";
shapes = (
{
closed = 1;
nodes = (
(1090,589,l),
(1090,756,l),
(106,1182,l),
(106,1053,l),
(973,673,l),
(106,292,l),
(106,164,l)
);
}
);
width = 1196;
}
);
unicode = 62;
}
{
glyphname = question;
layers = (
{
layerId = "0223EC17-1D6C-4E86-A3CA-0633C37BA543";
shapes = (
{
closed = 1;
nodes = (
(1180,1149,o),
(1133,1249,o),
(1039,1321,cs),
(946,1394,o),
(817,1430,o),
(652,1430,cs),
(499,1430,o),
(373,1391,o),
(275,1312,cs),
(177,1234,o),
(119,1126,o),
(101,988,c),
(453,976,l),
(460,1030,o),
(484,1074,o),
(523,1108,cs),
(563,1143,o),
(608,1160,o),
(658,1160,cs),
(713,1160,o),
(756,1146,o),
(785,1119,cs),
(815,1092,o),
(829,1054,o),
(829,1007,cs),
(829,990,o),
(825,972,o),
(817,951,cs),
(809,930,o),
(793,906,o),
(767,879,cs),
(742,852,o),
(702,819,o),
(647,782,cs),
(597,748,o),
(558,712,o),
(530,675,c),
(501,639,o),
(481,602,o),
(469,565,cs),
(457,529,o),
(449,493,o),
(446,459,c),
(775,459,l),
(781,527,o),
(826,591,o),
(909,650,cs),
(983,703,ls),
(1061,757,o),
(1113,810,o),
(1140,860,cs),
(1167,910,o),
(1180,964,o),
(1180,1022,cs)
);
},
{
closed = 1;
nodes = (
(790,316,l),
(438,316,l),
(438,0,l),
(790,0,l)
);
}
);
width = 1326;
},
{
layerId = "D23BE918-FDD7-48F3-9118-B5187C1A8D3A";
shapes = (
{
closed = 1;
nodes = (
(1134,1152,o),
(1088,1251,o),
(997,1322,cs),
(907,1394,o),
(782,1430,o),
(623,1430,cs),
(473,1430,o),
(351,1392,o),
(257,1316,cs),
(163,1241,o),
(107,1135,o),
(89,999,c),
(384,987,l),
(391,1050,o),
(418,1101,o),
(462,1139,cs),
(508,1178,o),
(563,1198,o),
(627,1198,cs),
(696,1198,o),
(749,1181,o),
(785,1148,cs),
(823,1115,o),
(841,1070,o),
(841,1013,cs),
(841,984,o),
(835,957,o),
(823,932,cs),
(811,906,o),
(791,880,o),
(763,853,cs),
(735,826,o),
(697,795,o),
(648,761,cs),
(603,730,o),
(565,697,o),
(536,663,c),
(505,629,o),
(482,592,o),
(467,554,cs),
(452,516,o),
(443,474,o),
(440,431,c),
(716,431,l),
(720,506,o),
(766,575,o),
(853,637,cs),
(930,692,ls),
(1009,748,o),
(1062,802,o),
(1091,853,cs),
(1120,904,o),
(1134,961,o),
(1134,1025,cs)
);
},
{
closed = 1;
nodes = (
(730,277,l),
(432,277,l),
(432,0,l),
(730,0,l)
);
}
);
width = 1251;
},
{
layerId = "18E55F76-04A3-47B5-A890-6BB42B40107E";
shapes = (
{
closed = 1;
nodes = (
(1066,1155,o),
(1023,1253,o),
(936,1324,cs),
(849,1395,o),
(730,1430,o),
(579,1430,cs),
(436,1430,o),
(320,1394,o),
(231,1322,cs),
(143,1250,o),
(90,1148,o),
(73,1015,c),
(280,1003,l),
(290,1081,o),
(321,1142,o),
(373,1187,cs),
(425,1232,o),
(495,1254,o),
(583,1254,cs),
(670,1254,o),
(738,1233,o),
(787,1192,cs),
(835,1151,o),
(859,1093,o),
(859,1021,cs),
(859,975,o),
(850,936,o),
(832,903,cs),
(814,871,o),
(790,841,o),
(758,814,cs),
(727,787,o),
(691,759,o),
(650,731,cs),
(612,704,o),
(578,675,o),
(545,644,cs),
(512,614,o),
(486,578,o),
(466,536,cs),
(446,495,o),
(434,447,o),
(432,389,c),
(630,389,l),
(631,474,o),
(678,550,o),
(771,617,cs),
(850,676,ls),
(931,735,o),
(988,791,o),
(1019,843,cs),
(1050,895,o),
(1066,958,o),
(1066,1031,cs)
);
},
{
closed = 1;
nodes = (
(642,217,l),
(424,217,l),
(424,0,l),
(642,0,l)
);
}
);
width = 1139;
},
{
layerId = "68B4E185-86CD-4FB2-9D99-F65C6A982671";
shapes = (
{
closed = 1;
nodes = (
(1040,1158,o),
(998,1255,o),
(914,1325,cs),
(830,1395,o),
(715,1430,o),
(570,1430,cs),
(430,1430,o),
(318,1395,o),
(233,1326,cs),
(149,1257,o),
(98,1157,o),
(81,1026,c),
(231,1014,l),
(241,1101,o),
(275,1169,o),
(332,1218,cs),
(390,1267,o),
(470,1292,o),
(572,1292,cs),
(673,1292,o),
(751,1268,o),
(807,1221,cs),
(863,1174,o),
(891,1109,o),
(891,1027,cs),
(891,969,o),
(880,921,o),
(858,884,cs),
(836,847,o),
(808,815,o),
(774,788,cs),
(740,761,o),
(706,735,o),
(671,710,cs),
(638,686,o),
(605,660,o),
(571,632,cs),
(536,604,o),
(507,568,o),
(484,525,cs),
(461,482,o),
(448,428,o),
(446,361,c),
(591,361,l),
(590,453,o),
(638,534,o),
(735,604,c),
(817,665,ls),
(899,726,o),
(957,783,o),
(990,836,cs),
(1023,889,o),
(1040,955,o),
(1040,1034,cs)
);
},
{
closed = 1;
nodes = (
(602,178,l),
(438,178,l),
(438,0,l),
(602,0,l)
);
}
);
width = 1102;
}
);
unicode = 63;
}
{
glyphname = at;
layers = (
{
layerId = "40F9559D-0C66-47C0-904D-85A1A1CF5568";
shapes = (
{
closed = 1;
nodes = (
(1862,850,o),
(1831,978,o),
(1768,1088,cs),
(1705,1198,o),
(1614,1283,o),
(1494,1344,cs),
(1374,1404,o),
(1232,1434,o),
(1069,1434,cs),
(884,1434,o),
(717,1392,o),
(567,1309,cs),
(417,1226,o),
(300,1108,o),
(216,955,cs),
(130,803,o),
(88,631,o),
(88,441,cs),
(88,284,o),
(122,145,o),
(191,23,cs),
(261,-99,o),
(355,-192,o),
(475,-255,cs),
(593,-319,o),
(730,-351,o),
(886,-351,cs),
(996,-351,o),
(1103,-339,o),
(1206,-313,cs),
(1309,-288,o),
(1421,-242,o),
(1544,-175,c),
(1477,-46,l),
(1384,-93,o),
(1288,-130,o),
(1191,-157,cs),
(1094,-183,o),
(996,-197,o),
(897,-197,cs),
(770,-197,o),
(659,-172,o),
(566,-124,cs),
(472,-75,o),
(398,-1,o),
(344,98,cs),
(290,197,o),
(264,312,o),
(264,441,cs),
(264,603,o),
(298,749,o),
(367,880,cs),
(436,1010,o),
(531,1110,o),
(652,1179,cs),
(772,1248,o),
(912,1283,o),
(1071,1283,cs),
(1197,1283,o),
(1308,1259,o),
(1404,1211,cs),
(1500,1163,o),
(1574,1095,o),
(1624,1008,cs),
(1674,921,o),
(1699,819,o),
(1699,703,cs),
(1699,613,o),
(1684,530,o),
(1654,454,cs),
(1624,378,o),
(1583,318,o),
(1532,272,cs),
(1481,225,o),
(1429,201,o),
(1376,201,cs),
(1359,201,o),
(1343,207,o),
(1326,220,cs),
(1309,233,o),
(1300,257,o),
(1300,292,cs),
(1300,328,o),
(1312,406,o),
(1337,523,c),
(1455,1029,l),
(1299,1029,l),
(1260,882,l),
(1254,882,l),
(1214,995,o),
(1134,1051,o),
(1015,1051,cs),
(919,1051,o),
(834,1024,o),
(759,970,cs),
(684,917,o),
(624,842,o),
(581,746,cs),
(538,649,o),
(516,546,o),
(516,439,cs),
(516,317,o),
(545,223,o),
(602,155,cs),
(660,88,o),
(741,54,o),
(846,54,cs),
(910,54,o),
(975,77,o),
(1041,125,cs),
(1108,172,o),
(1154,226,o),
(1180,288,c),
(1186,288,l),
(1183,279,o),
(1181,269,o),
(1179,259,cs),
(1178,249,o),
(1177,237,o),
(1178,223,c),
(1178,172,o),
(1193,131,o),
(1224,100,cs),
(1255,69,o),
(1300,54,o),
(1358,54,cs),
(1446,54,o),
(1530,83,o),
(1609,140,cs),
(1687,198,o),
(1750,276,o),
(1795,376,cs),
(1840,476,o),
(1862,585,o),
(1862,705,cs)
);
},
{
closed = 1;
nodes = (
(1187,677,o),
(1184,644,o),
(1177,606,cs),
(1170,567,o),
(1160,527,o),
(1146,485,cs),
(1133,444,o),
(1117,405,o),
(1098,369,cs),
(1068,314,o),
(1034,272,o),
(996,244,cs),
(958,216,o),
(920,202,o),
(882,202,cs),
(815,202,o),
(765,223,o),
(732,266,cs),
(699,309,o),
(683,368,o),
(683,441,cs),
(683,517,o),
(696,594,o),
(722,671,cs),
(748,748,o),
(785,808,o),
(834,850,cs),
(881,890,o),
(934,911,o),
(994,911,cs),
(1049,911,o),
(1096,891,o),
(1132,852,cs),
(1169,813,o),
(1187,764,o),
(1187,704,cs)
);
}
);
width = 1942;
},
{
layerId = "5D6D431B-CC1B-4FAD-85A4-67ADFEBCB3CA";
shapes = (
{
closed = 1;
nodes = (
(1880,867,o),
(1849,995,o),
(1786,1105,cs),
(1724,1215,o),
(1633,1300,o),
(1515,1361,cs),
(1395,1421,o),
(1255,1451,o),
(1092,1451,cs),
(908,1451,o),
(742,1409,o),
(593,1325,cs),
(444,1242,o),
(328,1123,o),
(244,970,cs),
(159,818,o),
(117,647,o),
(117,458,cs),
(117,302,o),
(150,165,o),
(217,44,cs),
(285,-76,o),
(379,-169,o),
(499,-232,cs),
(618,-296,o),
(756,-328,o),
(913,-328,cs),
(1025,-328,o),
(1135,-314,o),
(1241,-287,cs),
(1348,-260,o),
(1458,-215,o),
(1571,-151,c),
(1508,-28,l),
(1411,-79,o),
(1312,-117,o),
(1214,-144,cs),
(1117,-169,o),
(1019,-183,o),
(920,-183,cs),
(792,-183,o),
(679,-157,o),
(584,-108,cs),
(488,-57,o),
(414,17,o),
(361,116,cs),
(307,215,o),
(281,329,o),
(281,458,cs),
(281,622,o),
(315,769,o),
(385,901,cs),
(455,1033,o),
(550,1134,o),
(673,1204,cs),
(794,1273,o),
(935,1309,o),
(1094,1309,cs),
(1222,1309,o),
(1333,1284,o),
(1429,1236,cs),
(1526,1187,o),
(1600,1118,o),
(1650,1030,cs),
(1701,940,o),
(1726,837,o),
(1726,720,cs),
(1726,627,o),
(1712,542,o),
(1683,465,cs),
(1655,387,o),
(1615,326,o),
(1566,280,cs),
(1518,233,o),
(1466,210,o),
(1413,210,cs),
(1393,210,o),
(1376,216,o),
(1360,230,cs),
(1344,244,o),
(1335,268,o),
(1335,302,cs),
(1335,346,o),
(1347,427,o),
(1372,540,cs),
(1490,1046,l),
(1334,1046,l),
(1295,895,l),
(1289,895,l),
(1244,1010,o),
(1157,1068,o),
(1029,1068,cs),
(933,1068,o),
(848,1041,o),
(772,986,cs),
(697,933,o),
(637,858,o),
(594,763,cs),
(551,666,o),
(529,564,o),
(529,456,cs),
(529,334,o),
(558,240,o),
(615,172,cs),
(673,105,o),
(754,71,o),
(859,71,cs),
(926,71,o),
(993,93,o),
(1059,139,cs),
(1125,184,o),
(1174,240,o),
(1206,309,c),
(1212,309,l),
(1210,299,o),
(1208,289,o),
(1207,278,cs),
(1206,267,o),
(1206,256,o),
(1206,242,cs),
(1206,189,o),
(1222,147,o),
(1255,116,cs),
(1287,86,o),
(1335,71,o),
(1395,71,cs),
(1482,71,o),
(1564,100,o),
(1639,156,cs),
(1714,213,o),
(1773,291,o),
(1816,391,cs),
(1859,491,o),
(1880,601,o),
(1880,722,cs)
);
},
{
closed = 1;
nodes = (
(1228,692,o),
(1225,658,o),
(1217,619,cs),
(1209,579,o),
(1198,537,o),
(1183,494,cs),
(1168,452,o),
(1150,413,o),
(1129,378,cs),
(1096,325,o),
(1059,284,o),
(1018,256,cs),
(977,227,o),
(935,213,o),
(892,213,cs),
(826,213,o),
(776,235,o),
(743,279,cs),
(711,322,o),
(695,383,o),
(695,458,cs),
(695,538,o),
(709,616,o),
(736,693,cs),
(763,769,o),
(802,829,o),
(852,871,cs),
(901,911,o),
(956,933,o),
(1019,933,cs),
(1080,932,o),
(1131,912,o),
(1169,872,cs),
(1209,832,o),
(1228,781,o),
(1228,719,cs)
);
}
);
width = 1997;
},
{
layerId = "4F4EDE15-BE4F-4838-A8D1-739248E5F6B1";
shapes = (
{
closed = 1;
nodes = (
(1906,893,o),
(1875,1021,o),
(1814,1131,cs),
(1752,1241,o),
(1663,1326,o),
(1545,1387,cs),
(1428,1447,o),
(1288,1477,o),
(1128,1477,cs),
(945,1477,o),
(780,1434,o),
(632,1350,cs),
(485,1265,o),
(369,1147,o),
(286,994,cs),
(202,841,o),
(161,670,o),
(161,484,c),
(160,330,o),
(192,194,o),
(257,76,cs),
(322,-43,o),
(414,-133,o),
(535,-196,cs),
(654,-260,o),
(794,-292,o),
(955,-292,cs),
(1070,-292,o),
(1183,-278,o),
(1295,-248,cs),
(1406,-219,o),
(1512,-174,o),
(1613,-115,c),
(1556,0,l),
(1451,-57,o),
(1349,-98,o),
(1250,-123,cs),
(1150,-149,o),
(1052,-161,o),
(956,-161,cs),
(824,-161,o),
(710,-135,o),
(612,-83,cs),
(513,-31,o),
(437,45,o),
(385,144,cs),
(333,241,o),
(307,355,o),
(307,484,cs),
(307,649,o),
(342,800,o),
(412,934,cs),
(482,1067,o),
(580,1169,o),
(703,1240,cs),
(827,1312,o),
(969,1347,o),
(1130,1347,cs),
(1258,1347,o),
(1371,1323,o),
(1468,1273,cs),
(1564,1224,o),
(1639,1154,o),
(1690,1062,cs),
(1740,970,o),
(1766,864,o),
(1766,746,cs),
(1766,649,o),
(1753,560,o),
(1727,480,cs),
(1700,401,o),
(1664,338,o),
(1618,292,cs),
(1572,246,o),
(1523,222,o),
(1469,222,cs),
(1444,222,o),
(1424,230,o),
(1410,245,cs),
(1396,261,o),
(1389,284,o),
(1389,316,cs),
(1389,374,o),
(1401,457,o),
(1426,566,cs),
(1542,1072,l),
(1386,1072,l),
(1347,913,l),
(1341,913,l),
(1288,1034,o),
(1191,1094,o),
(1049,1094,cs),
(955,1093,o),
(869,1065,o),
(793,1011,cs),
(716,956,o),
(655,881,o),
(612,787,cs),
(569,692,o),
(547,590,o),
(547,482,cs),
(547,361,o),
(576,267,o),
(633,199,cs),
(691,131,o),
(772,97,o),
(877,97,cs),
(951,97,o),
(1020,118,o),
(1085,160,cs),
(1151,201,o),
(1205,262,o),
(1246,341,c),
(1252,341,l),
(1250,330,o),
(1250,318,o),
(1249,307,c),
(1249,295,o),
(1248,283,o),
(1248,272,cs),
(1248,214,o),
(1265,170,o),
(1300,141,cs),
(1336,111,o),
(1386,97,o),
(1451,97,cs),
(1537,97,o),
(1614,124,o),
(1684,179,cs),
(1753,235,o),
(1809,312,o),
(1848,413,cs),
(1887,513,o),
(1906,624,o),
(1906,748,cs)
);
},
{
closed = 1;
nodes = (
(1290,714,o),
(1285,680,o),
(1277,638,cs),
(1268,596,o),
(1255,553,o),
(1237,509,c),
(1221,465,o),
(1200,426,o),
(1175,390,c),
(1139,341,o),
(1098,302,o),
(1052,273,cs),
(1006,245,o),
(958,231,o),
(908,231,cs),
(841,230,o),
(792,252,o),
(761,297,cs),
(729,343,o),
(713,405,o),
(713,484,cs),
(713,569,o),
(727,650,o),
(757,725,cs),
(787,801,o),
(826,859,o),
(878,901,cs),
(930,944,o),
(989,965,o),
(1055,965,cs),
(1126,965,o),
(1183,944,o),
(1226,903,cs),
(1268,862,o),
(1290,808,o),
(1290,741,cs)
);
}
);
width = 2079;
},
{
layerId = "B3E42AB7-2F0B-4826-A062-029E39AD2446";
shapes = (
{
closed = 1;
nodes = (
(1910,910,o),
(1879,1038,o),
(1818,1148,cs),
(1757,1258,o),
(1668,1343,o),
(1552,1404,cs),
(1435,1464,o),
(1297,1494,o),
(1137,1494,cs),
(955,1494,o),
(791,1451,o),
(644,1366,cs),
(498,1281,o),
(383,1162,o),
(300,1009,cs),
(217,856,o),
(176,686,o),
(176,501,c),
(175,348,o),
(206,214,o),
(269,97,cs),
(332,-20,o),
(424,-110,o),
(545,-173,cs),
(665,-237,o),
(806,-269,o),
(968,-269,cs),
(1085,-269,o),
(1201,-253,o),
(1316,-222,cs),
(1431,-191,o),
(1535,-147,o),
(1626,-91,c),
(1573,18,l),
(1464,-43,o),
(1359,-85,o),
(1259,-110,cs),
(1159,-135,o),
(1061,-147,o),
(965,-147,cs),
(832,-147,o),
(716,-120,o),
(616,-67,cs),
(515,-13,o),
(439,63,o),
(388,162,c),
(336,259,o),
(310,372,o),
(310,501,cs),
(310,668,o),
(345,820,o),
(416,955,cs),
(487,1090,o),
(585,1193,o),
(710,1265,cs),
(835,1337,o),
(978,1373,o),
(1139,1373,cs),
(1269,1373,o),
(1382,1348,o),
(1479,1298,cs),
(1576,1248,o),
(1651,1177,o),
(1702,1084,cs),
(1753,989,o),
(1779,882,o),
(1779,763,cs),
(1779,663,o),
(1767,572,o),
(1742,491,cs),
(1717,410,o),
(1682,346,o),
(1638,300,cs),
(1595,254,o),
(1546,231,o),
(1492,231,cs),
(1464,231,o),
(1443,239,o),
(1430,255,cs),
(1417,272,o),
(1410,295,o),
(1410,326,cs),
(1410,392,o),
(1422,478,o),
(1447,583,cs),
(1563,1089,l),
(1407,1089,l),
(1368,926,l),
(1362,926,l),
(1304,1049,o),
(1200,1111,o),
(1049,1111,c),
(955,1110,o),
(869,1082,o),
(792,1027,cs),
(715,972,o),
(654,897,o),
(611,804,cs),
(568,709,o),
(546,608,o),
(546,499,cs),
(546,378,o),
(575,284,o),
(632,216,cs),
(690,148,o),
(771,114,o),
(876,114,cs),
(953,114,o),
(1024,134,o),
(1089,174,cs),
(1154,213,o),
(1211,276,o),
(1258,362,c),
(1264,362,l),
(1263,350,o),
(1263,338,o),
(1263,326,cs),
(1263,313,o),
(1263,302,o),
(1262,291,c),
(1262,231,o),
(1280,186,o),
(1317,157,cs),
(1354,128,o),
(1407,114,o),
(1474,114,cs),
(1559,114,o),
(1634,141,o),
(1700,195,cs),
(1766,250,o),
(1818,327,o),
(1855,428,cs),
(1892,528,o),
(1910,640,o),
(1910,765,cs)
);
},
{
closed = 1;
nodes = (
(1317,729,o),
(1312,694,o),
(1303,651,cs),
(1293,608,o),
(1279,563,o),
(1260,518,cs),
(1242,473,o),
(1219,434,o),
(1192,399,c),
(1153,352,o),
(1109,314,o),
(1060,285,cs),
(1011,256,o),
(959,242,o),
(904,242,c),
(838,241,o),
(789,264,o),
(758,310,cs),
(727,356,o),
(711,420,o),
(711,501,cs),
(711,590,o),
(726,672,o),
(757,747,cs),
(788,822,o),
(829,880,o),
(882,922,cs),
(936,965,o),
(997,987,o),
(1066,987,c),
(1143,986,o),
(1204,965,o),
(1249,923,cs),
(1294,881,o),
(1317,825,o),
(1317,756,cs)
);
}
);
width = 2106;
}
);
unicode = 64;
}
{
glyphname = B;
layers = (
{
layerId = "40F9559D-0C66-47C0-904D-85A1A1CF5568";
shapes = (
{
closed = 1;
nodes = (
(1472,503,o),
(1442,579,o),
(1383,636,cs),
(1324,692,o),
(1237,726,o),
(1122,740,c),
(1216,759,o),
(1285,796,o),
(1327,849,cs),
(1370,903,o),
(1391,969,o),
(1391,1047,cs),
(1391,1165,o),
(1345,1255,o),
(1253,1317,cs),
(1161,1378,o),
(1027,1409,o),
(850,1409,cs),
(116,1409,l),
(116,0,l),
(910,0,ls),
(1086,0,o),
(1224,35,o),
(1323,105,cs),
(1422,176,o),
(1472,276,o),
(1472,405,cs)
);
},
{
closed = 1;
nodes = (
(1024,952,o),
(1009,919,o),
(980,896,cs),
(951,873,o),
(901,862,o),
(830,862,cs),
(481,862,l),
(481,1146,l),
(827,1146,ls),
(893,1146,o),
(943,1134,o),
(975,1112,cs),
(1008,1089,o),
(1024,1050,o),
(1024,996,cs)
);
},
{
closed = 1;
nodes = (
(1107,377,o),
(1088,334,o),
(1051,306,cs),
(1014,277,o),
(955,263,o),
(875,263,cs),
(481,263,l),
(481,598,l),
(867,598,ls),
(1027,598,o),
(1107,543,o),
(1107,434,cs)
);
}
);
width = 1554;
},
{
layerId = "5D6D431B-CC1B-4FAD-85A4-67ADFEBCB3CA";
shapes = (
{
closed = 1;
nodes = (
(1394,499,o),
(1364,576,o),
(1304,634,cs),
(1244,692,o),
(1158,727,o),
(1044,741,c),
(1135,760,o),
(1203,797,o),
(1246,852,cs),
(1290,906,o),
(1312,974,o),
(1312,1054,cs),
(1312,1170,o),
(1268,1259,o),
(1179,1319,cs),
(1090,1379,o),
(960,1409,o),
(787,1409,cs),
(129,1409,l),
(129,0,l),
(847,0,ls),
(1018,0,o),
(1152,35,o),
(1249,105,cs),
(1345,175,o),
(1394,274,o),
(1394,402,cs)
);
},
{
closed = 1;
nodes = (
(1005,956,o),
(987,914,o),
(950,886,cs),
(914,858,o),
(855,844,o),
(774,844,cs),
(434,844,l),
(434,1184,l),
(772,1184,ls),
(849,1184,o),
(907,1170,o),
(946,1145,cs),
(986,1118,o),
(1005,1074,o),
(1005,1013,cs)
);
},
{
closed = 1;
nodes = (
(1088,360,o),
(1066,309,o),
(1023,276,cs),
(981,242,o),
(913,225,o),
(820,225,cs),
(434,225,l),
(434,620,l),
(810,620,ls),
(995,620,o),
(1088,555,o),
(1088,427,cs)
);
}
);
width = 1479;
},
{
layerId = "4F4EDE15-BE4F-4838-A8D1-739248E5F6B1";
shapes = (
{
closed = 1;
nodes = (
(1275,492,o),
(1244,570,o),
(1184,632,cs),
(1124,693,o),
(1037,730,o),
(925,743,c),
(1011,762,o),
(1078,800,o),
(1124,855,cs),
(1170,912,o),
(1193,981,o),
(1193,1064,cs),
(1193,1179,o),
(1151,1265,o),
(1067,1323,cs),
(983,1380,o),
(857,1409,o),
(690,1409,cs),
(146,1409,l),
(146,0,l),
(750,0,ls),
(915,0,o),
(1044,35,o),
(1136,104,cs),
(1229,174,o),
(1275,272,o),
(1275,398,cs)
);
},
{
closed = 1;
nodes = (
(976,963,o),
(952,908,o),
(905,872,cs),
(857,836,o),
(785,818,o),
(687,818,cs),
(363,818,l),
(363,1240,l),
(687,1240,ls),
(781,1240,o),
(853,1225,o),
(902,1193,cs),
(951,1162,o),
(976,1110,o),
(976,1037,cs)
);
},
{
closed = 1;
nodes = (
(1057,333,o),
(1032,272,o),
(981,231,cs),
(929,189,o),
(848,169,o),
(737,169,cs),
(363,169,l),
(363,652,l),
(723,652,ls),
(946,652,o),
(1057,573,o),
(1057,415,cs)
);
}
);
width = 1366;
},
{
layerId = "B3E42AB7-2F0B-4826-A062-029E39AD2446";
shapes = (
{
closed = 1;
nodes = (
(1216,488,o),
(1185,567,o),
(1124,630,cs),
(1063,693,o),
(977,731,o),
(866,744,c),
(949,763,o),
(1015,801,o),
(1062,858,cs),
(1109,915,o),
(1133,986,o),
(1133,1071,cs),
(1133,1184,o),
(1093,1269,o),
(1012,1325,cs),
(931,1381,o),
(809,1409,o),
(646,1409,cs),
(178,1409,l),
(178,0,l),
(706,0,ls),
(866,0,o),
(991,35,o),
(1081,104,cs),
(1171,173,o),
(1216,270,o),
(1216,395,cs)
);
},
{
closed = 1;
nodes = (
(976,967,o),
(949,903,o),
(894,862,cs),
(839,821,o),
(758,800,o),
(650,800,cs),
(335,800,l),
(335,1278,l),
(651,1278,ls),
(756,1278,o),
(836,1261,o),
(892,1226,cs),
(948,1191,o),
(976,1134,o),
(976,1054,cs)
);
},
{
closed = 1;
nodes = (
(1057,316,o),
(1029,247,o),
(972,201,cs),
(915,154,o),
(825,131,o),
(701,131,cs),
(335,131,l),
(335,674,l),
(685,674,ls),
(933,674,o),
(1057,585,o),
(1057,408,cs)
);
}
);
width = 1328;
}
);
unicode = 66;
}
{
glyphname = E;
layers = (
{
layerId = "48B546D8-C5CA-40A8-8404-D5B3E1476F73";
shapes = (
{
closed = 1;
nodes = (
(1291,276,l),
(481,276,l),
(481,567,l),
(1189,567,l),
(1189,844,l),
(481,844,l),
(481,1133,l),
(1250,1133,l),
(1250,1409,l),
(116,1409,l),
(116,0,l),
(1291,0,l)
);
}
);
width = 1366;
},
{
layerId = "9443E7DC-0C4A-42CC-997B-DD23E98306F4";
shapes = (
{
closed = 1;
nodes = (
(1286,235,l),
(439,235,l),
(439,594,l),
(1185,594,l),
(1185,829,l),
(439,829,l),
(439,1174,l),
(1245,1174,l),
(1245,1409,l),
(134,1409,l),
(134,0,l),
(1286,0,l)
);
}
);
width = 1366;
},
{
layerId = "F7133933-345E-44EA-AD01-EBD83B4D43ED";
shapes = (
{
closed = 1;
nodes = (
(1280,173,l),
(377,173,l),
(377,636,l),
(1179,636,l),
(1179,807,l),
(377,807,l),
(377,1236,l),
(1239,1236,l),
(1239,1409,l),
(160,1409,l),
(160,0,l),
(1280,0,l)
);
}
);
width = 1366;
},
{
layerId = "F39F01FC-5766-40F9-87FF-669365FEE249";
shapes = (
{
closed = 1;
nodes = (
(1275,132,l),
(335,132,l),
(335,663,l),
(1175,663,l),
(1175,792,l),
(335,792,l),
(335,1277,l),
(1234,1277,l),
(1234,1409,l),
(178,1409,l),
(178,0,l),
(1275,0,l)
);
}
);
width = 1366;
}
);
unicode = 69;
}
{
glyphname = F;
layers = (
{
layerId = "48B546D8-C5CA-40A8-8404-D5B3E1476F73";
shapes = (
{
closed = 1;
nodes = (
(481,481,l),
(1158,481,l),
(1158,756,l),
(481,756,l),
(481,1133,l),
(1181,1133,l),
(1181,1409,l),
(116,1409,l),
(116,0,l),
(481,0,l)
);
}
);
width = 1251;
},
{
layerId = "9443E7DC-0C4A-42CC-997B-DD23E98306F4";
shapes = (
{
closed = 1;
nodes = (
(439,512,l),
(1153,512,l),
(1153,747,l),
(439,747,l),
(439,1174,l),
(1177,1174,l),
(1177,1409,l),
(134,1409,l),
(134,0,l),
(439,0,l)
);
}
);
width = 1251;
},
{
layerId = "F7133933-345E-44EA-AD01-EBD83B4D43ED";
shapes = (
{
closed = 1;
nodes = (
(377,558,l),
(1147,558,l),
(1147,733,l),
(377,733,l),
(377,1236,l),
(1171,1236,l),
(1171,1409,l),
(160,1409,l),
(160,0,l),
(377,0,l)
);
}
);
width = 1251;
},
{
layerId = "F39F01FC-5766-40F9-87FF-669365FEE249";
shapes = (
{
closed = 1;
nodes = (
(335,589,l),
(1142,589,l),
(1142,724,l),
(335,724,l),
(335,1277,l),
(1167,1277,l),
(1167,1409,l),
(178,1409,l),
(178,0,l),
(335,0,l)
);
}
);
width = 1251;
}
);
unicode = 70;
}
{
glyphname = H;
layers = (
{
layerId = "9CBD3AC2-9D8D-48B9-985E-25F89544A3BC";
shapes = (
{
closed = 1;
nodes = (
(481,571,l),
(996,571,l),
(996,0,l),
(1360,0,l),
(1360,1409,l),
(996,1409,l),
(996,871,l),
(481,871,l),
(481,1409,l),
(116,1409,l),
(116,0,l),
(481,0,l)
);
}
);
width = 1479;
},
{
layerId = "9CAA62FE-9EBF-4577-B1F1-D704579B9400";
shapes = (
{
closed = 1;
nodes = (
(439,599,l),
(1039,599,l),
(1039,0,l),
(1343,0,l),
(1343,1409,l),
(1039,1409,l),
(1039,851,l),
(439,851,l),
(439,1409,l),
(134,1409,l),
(134,0,l),
(439,0,l)
);
}
);
width = 1479;
},
{
layerId = "4CFB2959-BEB7-4CB7-85AA-15E8C72B431E";
shapes = (
{
closed = 1;
nodes = (
(377,641,l),
(1103,641,l),
(1103,0,l),
(1319,0,l),
(1319,1409,l),
(1103,1409,l),
(1103,821,l),
(377,821,l),
(377,1409,l),
(160,1409,l),
(160,0,l),
(377,0,l)
);
}
);
width = 1479;
},
{
layerId = "6C107EBF-3F3D-4659-9DBC-490DE09F0738";
shapes = (
{
closed = 1;
nodes = (
(335,669,l),
(1146,669,l),
(1146,0,l),
(1302,0,l),
(1302,1409,l),
(1146,1409,l),
(1146,801,l),
(335,801,l),
(335,1409,l),
(178,1409,l),
(178,0,l),
(335,0,l)
);
}
);
width = 1479;
}
);
unicode = 72;
}
{
glyphname = I;
layers = (
{
layerId = "48B546D8-C5CA-40A8-8404-D5B3E1476F73";
shapes = (
{
closed = 1;
nodes = (
(467,1409,l),
(102,1409,l),
(102,0,l),
(467,0,l)
);
}
);
width = 569;
},
{
layerId = "9443E7DC-0C4A-42CC-997B-DD23E98306F4";
shapes = (
{
closed = 1;
nodes = (
(437,1409,l),
(132,1409,l),
(132,0,l),
(437,0,l)
);
}
);
width = 569;
},
{
layerId = "F7133933-345E-44EA-AD01-EBD83B4D43ED";
shapes = (
{
closed = 1;
nodes = (
(393,1409,l),
(176,1409,l),
(176,0,l),
(393,0,l)
);
}
);
width = 569;
},
{
layerId = "F39F01FC-5766-40F9-87FF-669365FEE249";
shapes = (
{
closed = 1;
nodes = (
(363,1409,l),
(206,1409,l),
(206,0,l),
(363,0,l)
);
}
);
width = 569;
}
);
unicode = 73;
}
{
glyphname = J;
layers = (
{
layerId = "0223EC17-1D6C-4E86-A3CA-0633C37BA543";
shapes = (
{
closed = 1;
nodes = (
(733,-20,o),
(860,22,o),
(950,107,cs),
(1039,191,o),
(1084,310,o),
(1084,463,cs),
(1084,1409,l),
(720,1409,l),
(720,454,ls),
(720,394,o),
(708,346,o),
(685,313,cs),
(661,279,o),
(623,262,o),
(572,262,cs),
(518,262,o),
(478,277,o),
(452,306,cs),
(426,335,o),
(406,385,o),
(394,454,c),
(30,403,l),
(59,250,o),
(114,141,o),
(198,77,cs),
(281,12,o),
(405,-20,o),
(569,-20,cs)
);
}
);
width = 1216;
},
{
layerId = "D23BE918-FDD7-48F3-9118-B5187C1A8D3A";
shapes = (
{
closed = 1;
nodes = (
(676,-20,o),
(795,21,o),
(879,104,cs),
(963,186,o),
(1005,301,o),
(1005,448,cs),
(1005,1409,l),
(701,1409,l),
(701,441,ls),
(701,370,o),
(686,315,o),
(658,277,cs),
(628,238,o),
(584,219,o),
(527,219,cs),
(470,219,o),
(425,236,o),
(394,270,cs),
(363,304,o),
(340,357,o),
(328,429,c),
(25,385,l),
(52,242,o),
(104,139,o),
(183,76,cs),
(262,12,o),
(376,-20,o),
(525,-20,cs)
);
}
);
width = 1139;
},
{
layerId = "18E55F76-04A3-47B5-A890-6BB42B40107E";
shapes = (
{
closed = 1;
nodes = (
(593,-20,o),
(698,20,o),
(775,99,cs),
(851,178,o),
(889,287,o),
(889,426,cs),
(889,1409,l),
(673,1409,l),
(673,421,l),
(674,335,o),
(655,268,o),
(617,222,cs),
(580,176,o),
(528,153,o),
(461,153,cs),
(399,153,o),
(348,174,o),
(308,215,cs),
(268,256,o),
(242,315,o),
(230,391,c),
(17,357,l),
(41,230,o),
(89,135,o),
(162,73,cs),
(234,11,o),
(333,-20,o),
(459,-20,cs)
);
}
);
width = 1024;
},
{
layerId = "68B4E185-86CD-4FB2-9D99-F65C6A982671";
shapes = (
{
closed = 1;
nodes = (
(556,-20,o),
(653,19,o),
(724,96,cs),
(795,173,o),
(830,278,o),
(830,411,cs),
(830,1409,l),
(674,1409,l),
(674,408,l),
(675,311,o),
(653,237,o),
(610,186,cs),
(567,135,o),
(509,110,o),
(436,110,cs),
(371,110,o),
(315,133,o),
(270,179,cs),
(225,225,o),
(196,287,o),
(184,366,c),
(32,339,l),
(54,222,o),
(99,133,o),
(167,72,cs),
(235,11,o),
(324,-20,o),
(435,-20,cs)
);
}
);
width = 986;
}
);
unicode = 74;
}
{
glyphname = K;
layers = (
{
layerId = "0223EC17-1D6C-4E86-A3CA-0633C37BA543";
shapes = (
{
closed = 1;
nodes = (
(481,497,l),
(648,625,l),
(1116,0,l),
(1538,0,l),
(907,824,l),
(1510,1409,l),
(1086,1409,l),
(481,815,l),
(481,1409,l),
(116,1409,l),
(116,0,l),
(481,0,l)
);
}
);
width = 1554;
},
{
layerId = "D23BE918-FDD7-48F3-9118-B5187C1A8D3A";
shapes = (
{
closed = 1;
nodes = (
(434,512,l),
(607,644,l),
(1108,0,l),
(1466,0,l),
(819,815,l),
(1420,1409,l),
(1064,1409,l),
(434,777,l),
(434,1409,l),
(129,1409,l),
(129,0,l),
(434,0,l)
);
}
);
width = 1479;
},
{
layerId = "18E55F76-04A3-47B5-A890-6BB42B40107E";
shapes = (
{
closed = 1;
nodes = (
(363,534,l),
(544,672,l),
(1093,0,l),
(1357,0,l),
(684,801,l),
(1285,1409,l),
(1031,1409,l),
(363,719,l),
(363,1409,l),
(146,1409,l),
(146,0,l),
(363,0,l)
);
}
);
width = 1366;
},
{
layerId = "68B4E185-86CD-4FB2-9D99-F65C6A982671";
shapes = (
{
closed = 1;
nodes = (
(335,549,l),
(522,691,l),
(1104,0,l),
(1304,0,l),
(615,792,l),
(1214,1409,l),
(1028,1409,l),
(335,681,l),
(335,1409,l),
(178,1409,l),
(178,0,l),
(335,0,l)
);
}
);
width = 1328;
}
);
unicode = 75;
}
{
glyphname = M;
layers = (
{
layerId = "48B546D8-C5CA-40A8-8404-D5B3E1476F73";
shapes = (
{
closed = 1;
nodes = (
(440,796,ls),
(440,805,o),
(439,835,o),
(437,887,cs),
(434,939,o),
(430,1012,o),
(425,1108,c),
(544,669,l),
(721,0,l),
(981,0,l),
(1162,669,ls),
(1172,706,o),
(1187,761,o),
(1207,834,cs),
(1226,907,o),
(1250,999,o),
(1278,1108,c),
(1274,1026,o),
(1272,952,o),
(1270,888,cs),
(1268,825,o),
(1267,794,o),
(1267,796,c),
(1267,0,l),
(1590,0,l),
(1590,1409,l),
(1098,1409,l),
(912,683,l),
(902,648,o),
(895,619,o),
(889,596,cs),
(884,573,o),
(879,552,o),
(874,531,cs),
(869,511,o),
(862,485,o),
(852,455,c),
(836,515,o),
(822,567,o),
(810,611,cs),
(798,655,o),
(787,701,o),
(777,748,c),
(608,1409,l),
(116,1409,l),
(116,0,l),
(440,0,l)
);
}
);
width = 1706;
},
{
layerId = "9443E7DC-0C4A-42CC-997B-DD23E98306F4";
shapes = (
{
closed = 1;
nodes = (
(405,845,ls),
(405,868,o),
(404,905,o),
(402,956,cs),
(400,1008,o),
(397,1073,o),
(393,1153,c),
(502,768,l),
(744,0,l),
(961,0,l),
(1205,768,ls),
(1216,804,o),
(1231,854,o),
(1249,918,cs),
(1266,982,o),
(1287,1061,o),
(1311,1153,c),
(1307,1083,o),
(1305,1017,o),
(1304,958,cs),
(1302,900,o),
(1301,862,o),
(1301,845,cs),
(1301,0,l),
(1572,0,l),
(1572,1409,l),
(1165,1409,l),
(917,597,ls),
(909,571,o),
(902,545,o),
(894,520,c),
(888,495,o),
(882,471,o),
(875,446,cs),
(868,422,o),
(862,396,o),
(854,370,c),
(842,417,o),
(830,462,o),
(818,506,cs),
(805,551,o),
(794,596,o),
(783,640,c),
(543,1409,l),
(134,1409,l),
(134,0,l),
(405,0,l)
);
}
);
width = 1706;
},
{
layerId = "F7133933-345E-44EA-AD01-EBD83B4D43ED";
shapes = (
{
closed = 1;
nodes = (
(353,919,ls),
(353,963,o),
(352,1010,o),
(351,1061,cs),
(349,1111,o),
(347,1164,o),
(345,1221,c),
(438,918,l),
(780,0,l),
(931,0,l),
(1269,918,ls),
(1282,952,o),
(1296,994,o),
(1311,1045,cs),
(1326,1096,o),
(1342,1155,o),
(1361,1221,c),
(1358,1168,o),
(1356,1115,o),
(1354,1063,cs),
(1352,1011,o),
(1351,963,o),
(1351,919,cs),
(1351,0,l),
(1546,0,l),
(1546,1409,l),
(1265,1409,l),
(923,468,ls),
(918,455,o),
(911,435,o),
(903,406,cs),
(894,377,o),
(885,348,o),
(877,318,cs),
(868,288,o),
(861,263,o),
(856,244,c),
(851,269,o),
(842,305,o),
(829,350,cs),
(817,394,o),
(804,437,o),
(791,478,c),
(447,1409,l),
(160,1409,l),
(160,0,l),
(353,0,l)
);
}
);
width = 1706;
},
{
layerId = "F39F01FC-5766-40F9-87FF-669365FEE249";
shapes = (
{
closed = 1;
nodes = (
(318,968,ls),
(318,1026,o),
(317,1080,o),
(316,1130,cs),
(315,1180,o),
(314,1225,o),
(313,1266,c),
(396,1017,l),
(803,0,l),
(911,0,l),
(1312,1017,l),
(1326,1050,o),
(1340,1087,o),
(1353,1129,cs),
(1366,1171,o),
(1379,1217,o),
(1394,1266,c),
(1391,1225,o),
(1389,1180,o),
(1388,1133,cs),
(1386,1086,o),
(1385,1031,o),
(1385,968,cs),
(1385,0,l),
(1528,0,l),
(1528,1409,l),
(1332,1409,l),
(928,382,l),
(925,378,o),
(918,361,o),
(908,330,cs),
(898,299,o),
(888,267,o),
(878,233,cs),
(867,199,o),
(861,174,o),
(858,159,c),
(857,171,o),
(850,200,o),
(837,245,cs),
(824,290,o),
(811,332,o),
(797,370,c),
(382,1409,l),
(178,1409,l),
(178,0,l),
(318,0,l)
);
}
);
width = 1706;
}
);
unicode = 77;
}
{
glyphname = P;
layers = (
{
layerId = "48B546D8-C5CA-40A8-8404-D5B3E1476F73";
shapes = (
{
closed = 1;
nodes = (
(1321,1095,o),
(1275,1209,o),
(1181,1289,cs),
(1087,1369,o),
(952,1409,o),
(776,1409,cs),
(116,1409,l),
(116,0,l),
(481,0,l),
(481,460,l),
(788,460,ls),
(898,460,o),
(993,482,o),
(1072,524,cs),
(1152,566,o),
(1213,624,o),
(1257,698,cs),
(1300,772,o),
(1321,855,o),
(1321,948,cs)
);
},
{
closed = 1;
nodes = (
(954,878,o),
(935,828,o),
(897,792,cs),
(860,756,o),
(809,738,o),
(744,738,cs),
(481,738,l),
(481,1129,l),
(736,1129,ls),
(882,1129,o),
(954,1066,o),
(954,941,cs)
);
}
);
width = 1366;
},
{
layerId = "9443E7DC-0C4A-42CC-997B-DD23E98306F4";
shapes = (
{
closed = 1;
nodes = (
(1299,1103,o),
(1254,1214,o),
(1163,1292,cs),
(1072,1370,o),
(941,1409,o),
(771,1409,cs),
(134,1409,l),
(134,0,l),
(439,0,l),
(439,490,l),
(783,490,ls),
(889,490,o),
(981,511,o),
(1058,551,cs),
(1135,591,o),
(1195,646,o),
(1237,717,cs),
(1279,788,o),
(1299,869,o),
(1299,961,cs)
);
},
{
closed = 1;
nodes = (
(992,881,o),
(971,824,o),
(927,785,c),
(885,745,o),
(824,725,o),
(745,725,cs),
(439,725,l),
(439,1172,l),
(737,1172,ls),
(907,1172,o),
(992,1100,o),
(992,955,cs)
);
}
);
width = 1366;
},
{
layerId = "F7133933-345E-44EA-AD01-EBD83B4D43ED";
shapes = (
{
closed = 1;
nodes = (
(1267,1116,o),
(1224,1222,o),
(1136,1297,cs),
(1048,1372,o),
(924,1409,o),
(763,1409,cs),
(160,1409,l),
(160,0,l),
(377,0,l),
(377,536,l),
(775,536,ls),
(877,536,o),
(964,554,o),
(1037,591,cs),
(1111,627,o),
(1167,679,o),
(1208,746,cs),
(1247,812,o),
(1267,890,o),
(1267,979,cs)
);
},
{
closed = 1;
nodes = (
(1050,887,o),
(1024,819,o),
(973,773,cs),
(922,728,o),
(846,705,o),
(745,705,cs),
(377,705,l),
(377,1238,l),
(737,1238,ls),
(946,1238,o),
(1050,1150,o),
(1050,977,cs)
);
}
);
width = 1366;
},
{
layerId = "F39F01FC-5766-40F9-87FF-669365FEE249";
shapes = (
{
closed = 1;
nodes = (
(1245,1124,o),
(1203,1227,o),
(1118,1300,cs),
(1033,1373,o),
(913,1409,o),
(758,1409,cs),
(178,1409,l),
(178,0,l),
(335,0,l),
(335,566,l),
(770,566,ls),
(868,566,o),
(952,583,o),
(1023,618,cs),
(1094,652,o),
(1149,701,o),
(1188,765,cs),
(1226,828,o),
(1245,904,o),
(1245,992,cs)
);
},
{
closed = 1;
nodes = (
(1088,890,o),
(1060,815,o),
(1003,766,cs),
(947,717,o),
(861,692,o),
(746,692,cs),
(335,692,l),
(335,1281,l),
(738,1281,ls),
(971,1281,o),
(1088,1184,o),
(1088,991,cs)
);
}
);
width = 1366;
}
);
unicode = 80;
}
{
glyphname = Q;
layers = (
{
layerId = "48B546D8-C5CA-40A8-8404-D5B3E1476F73";
shapes = (
{
closed = 1;
nodes = (
(1515,861,o),
(1486,990,o),
(1428,1097,cs),
(1370,1205,o),
(1287,1287,o),
(1180,1344,cs),
(1073,1401,o),
(944,1430,o),
(794,1430,cs),
(644,1430,o),
(515,1402,o),
(407,1345,cs),
(299,1288,o),
(217,1206,o),
(160,1098,cs),
(104,991,o),
(75,862,o),
(75,711,cs),
(75,575,o),
(98,456,o),
(144,354,cs),
(189,252,o),
(255,171,o),
(341,109,cs),
(426,48,o),
(530,10,o),
(651,-6,c),
(696,-152,o),
(756,-256,o),
(832,-319,cs),
(907,-382,o),
(1002,-414,o),
(1116,-414,cs),
(1208,-414,o),
(1303,-403,o),
(1401,-382,c),
(1404,-134,l),
(1367,-139,o),
(1326,-142,o),
(1282,-142,cs),
(1204,-142,o),
(1146,-130,o),
(1107,-106,cs),
(1069,-82,o),
(1039,-43,o),
(1020,11,c),
(1124,38,o),
(1213,83,o),
(1286,148,cs),
(1360,212,o),
(1416,291,o),
(1456,387,cs),
(1495,482,o),
(1515,590,o),
(1515,711,cs)
);
},
{
closed = 1;
nodes = (
(1143,567,o),
(1112,456,o),
(1051,378,cs),
(990,301,o),
(903,262,o),
(792,262,cs),
(720,262,o),
(658,280,o),
(605,316,cs),
(552,352,o),
(512,403,o),
(484,471,cs),
(455,538,o),
(441,618,o),
(441,711,cs),
(441,848,o),
(472,955,o),
(533,1032,cs),
(594,1109,o),
(681,1147,o),
(794,1147,cs),
(904,1147,o),
(989,1108,o),
(1051,1031,cs),
(1112,954,o),
(1143,847,o),
(1143,711,cs)
);
}
);
width = 1593;
},
{
layerId = "9443E7DC-0C4A-42CC-997B-DD23E98306F4";
shapes = (
{
closed = 1;
nodes = (
(1508,860,o),
(1480,989,o),
(1423,1096,cs),
(1366,1204,o),
(1284,1286,o),
(1178,1343,cs),
(1072,1401,o),
(944,1430,o),
(795,1430,cs),
(646,1430,o),
(518,1402,o),
(412,1345,cs),
(305,1287,o),
(223,1205,o),
(167,1098,cs),
(111,991,o),
(82,862,o),
(82,711,c),
(83,573,o),
(106,452,o),
(154,349,cs),
(200,245,o),
(268,163,o),
(358,101,cs),
(446,40,o),
(553,3,o),
(679,-9,c),
(723,-151,o),
(781,-252,o),
(853,-313,cs),
(924,-374,o),
(1015,-405,o),
(1125,-405,cs),
(1205,-405,o),
(1288,-395,o),
(1373,-376,c),
(1375,-167,l),
(1337,-173,o),
(1297,-177,o),
(1255,-177,cs),
(1181,-177,o),
(1123,-163,o),
(1082,-134,cs),
(1042,-105,o),
(1010,-59,o),
(989,5,c),
(1097,29,o),
(1191,72,o),
(1268,136,cs),
(1345,200,o),
(1405,280,o),
(1446,378,cs),
(1487,475,o),
(1508,586,o),
(1508,711,cs)
);
},
{
closed = 1;
nodes = (
(1197,554,o),
(1161,432,o),
(1092,346,cs),
(1022,261,o),
(922,219,o),
(793,219,cs),
(710,219,o),
(638,239,o),
(577,278,cs),
(517,318,o),
(471,374,o),
(439,449,cs),
(406,522,o),
(390,610,o),
(390,711,cs),
(390,862,o),
(425,980,o),
(495,1064,cs),
(565,1149,o),
(666,1190,o),
(795,1190,cs),
(922,1190,o),
(1020,1148,o),
(1091,1063,cs),
(1161,978,o),
(1197,860,o),
(1197,711,cs)
);
}
);
width = 1593;
},
{
layerId = "F7133933-345E-44EA-AD01-EBD83B4D43ED";
shapes = (
{
closed = 1;
nodes = (
(1498,859,o),
(1470,987,o),
(1415,1094,cs),
(1360,1201,o),
(1280,1284,o),
(1176,1343,cs),
(1072,1401,o),
(945,1430,o),
(797,1430,cs),
(650,1430,o),
(524,1401,o),
(418,1344,cs),
(313,1287,o),
(233,1205,o),
(177,1097,cs),
(122,990,o),
(94,862,o),
(94,711,cs),
(94,570,o),
(119,446,o),
(168,340,cs),
(218,234,o),
(289,150,o),
(382,89,cs),
(475,28,o),
(589,-6,o),
(721,-15,c),
(763,-150,o),
(817,-246,o),
(884,-304,cs),
(951,-362,o),
(1035,-391,o),
(1137,-391,cs),
(1200,-391,o),
(1265,-383,o),
(1331,-368,c),
(1331,-217,l),
(1293,-225,o),
(1254,-229,o),
(1215,-229,cs),
(1145,-229,o),
(1089,-211,o),
(1046,-176,cs),
(1003,-141,o),
(968,-83,o),
(941,-3,c),
(1058,14,o),
(1157,54,o),
(1240,118,cs),
(1324,181,o),
(1387,263,o),
(1432,364,cs),
(1476,465,o),
(1498,581,o),
(1498,711,cs)
);
},
{
closed = 1;
nodes = (
(1277,533,o),
(1236,396,o),
(1152,299,cs),
(1069,202,o),
(950,153,o),
(795,153,cs),
(694,153,o),
(608,176,o),
(536,222,cs),
(463,267,o),
(408,332,o),
(370,415,cs),
(331,499,o),
(312,597,o),
(312,711,cs),
(312,884,o),
(355,1017,o),
(439,1113,cs),
(523,1208,o),
(642,1256,o),
(797,1256,cs),
(950,1256,o),
(1068,1207,o),
(1152,1110,cs),
(1236,1014,o),
(1277,881,o),
(1277,711,cs)
);
}
);
width = 1593;
},
{
layerId = "F39F01FC-5766-40F9-87FF-669365FEE249";
shapes = (
{
closed = 1;
nodes = (
(1491,858,o),
(1464,986,o),
(1410,1093,cs),
(1356,1200,o),
(1277,1283,o),
(1174,1342,cs),
(1071,1401,o),
(945,1430,o),
(798,1430,cs),
(652,1430,o),
(527,1401,o),
(423,1344,cs),
(319,1286,o),
(239,1204,o),
(184,1097,cs),
(129,990,o),
(101,862,o),
(101,711,c),
(102,568,o),
(127,442,o),
(178,335,cs),
(229,227,o),
(302,142,o),
(399,81,cs),
(495,20,o),
(612,-13,o),
(749,-18,c),
(790,-149,o),
(842,-242,o),
(905,-298,cs),
(968,-354,o),
(1048,-382,o),
(1146,-382,cs),
(1197,-382,o),
(1250,-375,o),
(1303,-362,c),
(1302,-250,l),
(1263,-259,o),
(1225,-264,o),
(1188,-264,cs),
(1122,-264,o),
(1066,-244,o),
(1021,-204,cs),
(976,-164,o),
(939,-99,o),
(910,-9,c),
(1031,5,o),
(1135,43,o),
(1222,106,cs),
(1309,169,o),
(1376,252,o),
(1422,355,cs),
(1468,458,o),
(1491,577,o),
(1491,711,cs)
);
},
{
closed = 1;
nodes = (
(1331,520,o),
(1285,372,o),
(1193,267,cs),
(1101,162,o),
(969,110,o),
(796,110,cs),
(684,110,o),
(588,135,o),
(508,184,cs),
(428,233,o),
(367,303,o),
(325,393,cs),
(282,483,o),
(261,589,o),
(261,711,cs),
(261,898,o),
(308,1042,o),
(401,1145,cs),
(494,1248,o),
(627,1299,o),
(798,1299,cs),
(968,1299,o),
(1099,1247,o),
(1192,1142,cs),
(1285,1038,o),
(1331,894,o),
(1331,711,cs)
);
}
);
width = 1593;
}
);
unicode = 81;
}
{
glyphname = T;
layers = (
{
layerId = "0A527CAB-40A8-47D6-8FB3-136A5153B95C";
shapes = (
{
closed = 1;
nodes = (
(809,1133,l),
(1246,1133,l),
(1246,1409,l),
(8,1409,l),
(8,1133,l),
(443,1133,l),
(443,0,l),
(809,0,l)
);
}
);
width = 1251;
},
{
layerId = "878309BC-9289-4993-9212-ED28064DE1EA";
shapes = (
{
closed = 1;
nodes = (
(779,1174,l),
(1232,1174,l),
(1232,1409,l),
(21,1409,l),
(21,1174,l),
(473,1174,l),
(473,0,l),
(779,0,l)
);
}
);
width = 1251;
},
{
layerId = "6543F4AE-1A40-4DBA-A005-BFFCCFE6B0CF";
shapes = (
{
closed = 1;
nodes = (
(733,1236,l),
(1210,1236,l),
(1210,1409,l),
(41,1409,l),
(41,1236,l),
(517,1236,l),
(517,0,l),
(733,0,l)
);
}
);
width = 1251;
},
{
layerId = "1E741E55-12B1-42F1-9EAF-651FD3104344";
shapes = (
{
closed = 1;
nodes = (
(703,1277,l),
(1196,1277,l),
(1196,1409,l),
(54,1409,l),
(54,1277,l),
(547,1277,l),
(547,0,l),
(703,0,l)
);
}
);
width = 1251;
}
);
unicode = 84;
}
{
glyphname = V;
layers = (
{
layerId = "9CBD3AC2-9D8D-48B9-985E-25F89544A3BC";
shapes = (
{
closed = 1;
nodes = (
(1349,1409,l),
(974,1409,l),
(751,562,ls),
(749,553,o),
(745,532,o),
(739,500,cs),
(732,468,o),
(715,396,o),
(687,285,c),
(671,356,o),
(657,415,o),
(645,461,cs),
(633,507,o),
(625,541,o),
(620,562,cs),
(397,1409,l),
(17,1409,l),
(502,0,l),
(869,0,l)
);
}
);
width = 1366;
},
{
layerId = "9CAA62FE-9EBF-4577-B1F1-D704579B9400";
shapes = (
{
closed = 1;
nodes = (
(1352,1409,l),
(1036,1409,l),
(757,512,l),
(751,495,o),
(744,467,o),
(735,431,cs),
(725,394,o),
(709,332,o),
(686,245,c),
(671,306,o),
(657,359,o),
(644,404,cs),
(632,448,o),
(622,484,o),
(613,512,cs),
(333,1409,l),
(14,1409,l),
(530,0,l),
(839,0,l)
);
}
);
width = 1366;
},
{
layerId = "4CFB2959-BEB7-4CB7-85AA-15E8C72B431E";
shapes = (
{
closed = 1;
nodes = (
(1356,1409,l),
(1130,1409,l),
(765,438,ls),
(754,407,o),
(741,371,o),
(728,327,c),
(714,284,o),
(700,236,o),
(684,185,c),
(670,230,o),
(656,275,o),
(644,317,cs),
(631,360,o),
(617,400,o),
(603,438,cs),
(237,1409,l),
(10,1409,l),
(572,0,l),
(795,0,l)
);
}
);
width = 1366;
},
{
layerId = "6C107EBF-3F3D-4659-9DBC-490DE09F0738";
shapes = (
{
closed = 1;
nodes = (
(1359,1409,l),
(1192,1409,l),
(771,388,ls),
(756,349,o),
(740,306,o),
(724,258,cs),
(707,210,o),
(694,172,o),
(683,145,c),
(670,180,o),
(656,219,o),
(643,260,cs),
(630,301,o),
(614,343,o),
(596,388,cs),
(173,1409,l),
(7,1409,l),
(600,0,l),
(765,0,l)
);
}
);
width = 1366;
}
);
unicode = 86;
}
{
glyphname = W;
layers = (
{
layerId = "40F9559D-0C66-47C0-904D-85A1A1CF5568";
shapes = (
{
closed = 1;
nodes = (
(917,796,l),
(919,810,o),
(924,834,o),
(929,866,cs),
(935,899,o),
(941,933,o),
(948,970,cs),
(955,1008,o),
(961,1038,o),
(966,1062,c),
(969,1023,o),
(975,978,o),
(984,928,cs),
(992,878,o),
(1004,823,o),
(1017,761,cs),
(1173,0,l),
(1605,0,l),
(1934,1409,l),
(1568,1409,l),
(1434,620,l),
(1424,567,o),
(1416,528,o),
(1410,504,c),
(1396,439,ls),
(1392,420,o),
(1386,392,o),
(1378,353,c),
(1371,426,o),
(1364,487,o),
(1358,535,cs),
(1351,583,o),
(1349,607,o),
(1350,605,c),
(1185,1409,l),
(757,1409,l),
(596,578,ls),
(590,550,o),
(586,525,o),
(582,505,cs),
(579,485,o),
(576,463,o),
(572,441,c),
(569,418,o),
(563,389,o),
(556,353,c),
(553,389,o),
(548,428,o),
(540,470,c),
(531,511,o),
(525,544,o),
(521,567,cs),
(363,1409,l),
(-3,1409,l),
(325,0,l),
(757,0,l)
);
}
);
width = 1933;
},
{
layerId = "5D6D431B-CC1B-4FAD-85A4-67ADFEBCB3CA";
shapes = (
{
closed = 1;
nodes = (
(910,828,ls),
(913,843,o),
(919,868,o),
(925,901,cs),
(932,934,o),
(939,970,o),
(947,1008,cs),
(955,1047,o),
(962,1080,o),
(967,1108,c),
(974,1057,o),
(983,1007,o),
(993,957,cs),
(1002,906,o),
(1013,857,o),
(1024,807,cs),
(1211,0,l),
(1573,0,l),
(1931,1409,l),
(1622,1409,l),
(1448,579,ls),
(1440,539,o),
(1433,504,o),
(1425,475,c),
(1406,390,ls),
(1399,362,o),
(1392,329,o),
(1383,290,c),
(1375,355,o),
(1366,414,o),
(1357,466,cs),
(1347,518,o),
(1340,557,o),
(1335,580,cs),
(1142,1409,l),
(798,1409,l),
(605,549,ls),
(598,521,o),
(592,492,o),
(586,465,cs),
(581,438,o),
(575,409,o),
(570,381,cs),
(565,352,o),
(558,322,o),
(552,290,c),
(546,334,o),
(538,379,o),
(528,427,c),
(517,473,o),
(508,514,o),
(500,549,cs),
(310,1409,l),
(1,1409,l),
(359,0,l),
(721,0,l)
);
}
);
width = 1933;
},
{
layerId = "4F4EDE15-BE4F-4838-A8D1-739248E5F6B1";
shapes = (
{
closed = 1;
nodes = (
(900,876,ls),
(904,893,o),
(911,919,o),
(919,953,cs),
(928,988,o),
(937,1024,o),
(946,1065,cs),
(956,1106,o),
(963,1143,o),
(969,1176,c),
(983,1109,o),
(995,1049,o),
(1006,999,cs),
(1017,949,o),
(1027,908,o),
(1036,875,cs),
(1267,0,l),
(1525,0,l),
(1927,1409,l),
(1704,1409,l),
(1470,519,l),
(1465,497,o),
(1458,468,o),
(1449,433,cs),
(1420,316,l),
(1411,274,o),
(1401,233,o),
(1391,194,c),
(1381,247,o),
(1369,304,o),
(1356,363,cs),
(1342,422,o),
(1328,482,o),
(1311,542,cs),
(1078,1409,l),
(860,1409,l),
(617,507,ls),
(609,478,o),
(601,444,o),
(592,406,cs),
(583,367,o),
(575,329,o),
(566,291,cs),
(558,253,o),
(552,221,o),
(546,194,c),
(534,251,o),
(523,307,o),
(510,362,cs),
(497,417,o),
(483,470,o),
(470,521,cs),
(230,1409,l),
(7,1409,l),
(409,0,l),
(667,0,l)
);
}
);
width = 1933;
},
{
layerId = "B3E42AB7-2F0B-4826-A062-029E39AD2446";
shapes = (
{
closed = 1;
nodes = (
(893,908,ls),
(898,926,o),
(906,953,o),
(915,988,cs),
(925,1023,o),
(935,1061,o),
(945,1103,cs),
(956,1145,o),
(964,1185,o),
(970,1222,c),
(988,1143,o),
(1003,1078,o),
(1015,1028,cs),
(1027,977,o),
(1036,942,o),
(1043,921,c),
(1305,0,l),
(1493,0,l),
(1924,1409,l),
(1758,1409,l),
(1484,478,ls),
(1481,469,o),
(1475,444,o),
(1464,404,cs),
(1430,267,ls),
(1418,216,o),
(1407,170,o),
(1396,131,c),
(1385,176,o),
(1371,231,o),
(1355,294,cs),
(1338,357,o),
(1319,432,o),
(1296,517,c),
(1035,1409,l),
(901,1409,l),
(626,478,ls),
(617,449,o),
(607,411,o),
(596,366,cs),
(585,320,o),
(574,275,o),
(564,231,cs),
(554,187,o),
(547,154,o),
(542,131,c),
(527,196,o),
(513,258,o),
(498,319,cs),
(483,379,o),
(466,440,o),
(449,503,c),
(177,1409,l),
(11,1409,l),
(443,0,l),
(631,0,l)
);
}
);
width = 1933;
}
);
unicode = 87;
}
{
glyphname = X;
layers = (
{
layerId = "40F9559D-0C66-47C0-904D-85A1A1CF5568";
shapes = (
{
closed = 1;
nodes = (
(681,524,l),
(988,0,l),
(1365,0,l),
(932,742,l),
(1324,1409,l),
(947,1409,l),
(680,948,l),
(420,1409,l),
(40,1409,l),
(455,747,l),
(-1,0,l),
(379,0,l)
);
}
);
width = 1366;
},
{
layerId = "5D6D431B-CC1B-4FAD-85A4-67ADFEBCB3CA";
shapes = (
{
closed = 1;
nodes = (
(684,555,l),
(1030,0,l),
(1351,0,l),
(887,741,l),
(1310,1409,l),
(989,1409,l),
(683,917,l),
(378,1409,l),
(56,1409,l),
(498,742,l),
(15,0,l),
(337,0,l)
);
}
);
width = 1366;
},
{
layerId = "4F4EDE15-BE4F-4838-A8D1-739248E5F6B1";
shapes = (
{
closed = 1;
nodes = (
(688,603,l),
(1094,0,l),
(1329,0,l),
(819,739,l),
(1288,1409,l),
(1053,1409,l),
(689,869,l),
(316,1409,l),
(80,1409,l),
(564,734,l),
(39,0,l),
(275,0,l)
);
}
);
width = 1366;
},
{
layerId = "B3E42AB7-2F0B-4826-A062-029E39AD2446";
shapes = (
{
closed = 1;
nodes = (
(691,634,l),
(1136,0,l),
(1315,0,l),
(774,738,l),
(1274,1409,l),
(1095,1409,l),
(692,838,l),
(274,1409,l),
(96,1409,l),
(607,729,l),
(55,0,l),
(233,0,l)
);
}
);
width = 1366;
}
);
unicode = 88;
}
{
glyphname = Y;
layers = (
{
layerId = "9CBD3AC2-9D8D-48B9-985E-25F89544A3BC";
shapes = (
{
closed = 1;
nodes = (
(867,574,l),
(1341,1409,l),
(966,1409,l),
(681,863,l),
(404,1409,l),
(28,1409,l),
(503,574,l),
(503,0,l),
(867,0,l)
);
}
);
width = 1366;
},
{
layerId = "9CAA62FE-9EBF-4577-B1F1-D704579B9400";
shapes = (
{
closed = 1;
nodes = (
(836,577,l),
(1334,1409,l),
(1016,1409,l),
(682,820,l),
(353,1409,l),
(34,1409,l),
(532,577,l),
(532,0,l),
(836,0,l)
);
}
);
width = 1366;
},
{
layerId = "4CFB2959-BEB7-4CB7-85AA-15E8C72B431E";
shapes = (
{
closed = 1;
nodes = (
(790,583,l),
(1324,1409,l),
(1090,1409,l),
(684,756,l),
(277,1409,l),
(42,1409,l),
(575,583,l),
(575,0,l),
(790,0,l)
);
}
);
width = 1366;
},
{
layerId = "6C107EBF-3F3D-4659-9DBC-490DE09F0738";
shapes = (
{
closed = 1;
nodes = (
(759,586,l),
(1317,1409,l),
(1140,1409,l),
(685,713,l),
(226,1409,l),
(48,1409,l),
(604,586,l),
(604,0,l),
(759,0,l)
);
}
);
width = 1366;
}
);
unicode = 89;
}
{
glyphname = Z;
layers = (
{
layerId = "0A527CAB-40A8-47D6-8FB3-136A5153B95C";
shapes = (
{
closed = 1;
nodes = (
(1195,281,l),
(461,281,l),
(1158,1160,l),
(1158,1409,l),
(136,1409,l),
(136,1128,l),
(756,1128,l),
(58,253,l),
(58,0,l),
(1195,0,l)
);
}
);
width = 1251;
},
{
layerId = "878309BC-9289-4993-9212-ED28064DE1EA";
shapes = (
{
closed = 1;
nodes = (
(1192,238,l),
(400,238,l),
(1152,1198,l),
(1152,1409,l),
(137,1409,l),
(137,1171,l),
(813,1171,l),
(60,215,l),
(60,0,l),
(1192,0,l)
);
}
);
width = 1251;
},
{
layerId = "6543F4AE-1A40-4DBA-A005-BFFCCFE6B0CF";
shapes = (
{
closed = 1;
nodes = (
(1188,174,l),
(308,174,l),
(1142,1254,l),
(1142,1409,l),
(137,1409,l),
(137,1235,l),
(899,1235,l),
(64,159,l),
(64,0,l),
(1188,0,l)
);
}
);
width = 1251;
},
{
layerId = "1E741E55-12B1-42F1-9EAF-651FD3104344";
shapes = (
{
closed = 1;
nodes = (
(1185,131,l),
(247,131,l),
(1136,1292,l),
(1136,1409,l),
(138,1409,l),
(138,1278,l),
(956,1278,l),
(66,121,l),
(66,0,l),
(1185,0,l)
);
}
);
width = 1251;
}
);
unicode = 90;
}
{
glyphname = bracketleft;
layers = (
{
layerId = "0A527CAB-40A8-47D6-8FB3-136A5153B95C";
shapes = (
{
closed = 1;
nodes = (
(727,-192,l),
(422,-192,l),
(422,1253,l),
(727,1253,l),
(727,1484,l),
(94,1484,l),
(94,-425,l),
(727,-425,l)
);
}
);
width = 757;
},
{
layerId = "878309BC-9289-4993-9212-ED28064DE1EA";
shapes = (
{
closed = 1;
nodes = (
(663,-227,l),
(382,-227,l),
(382,1288,l),
(663,1288,l),
(663,1484,l),
(107,1484,l),
(107,-425,l),
(663,-425,l)
);
}
);
width = 682;
},
{
layerId = "6543F4AE-1A40-4DBA-A005-BFFCCFE6B0CF";
shapes = (
{
closed = 1;
nodes = (
(564,-281,l),
(321,-281,l),
(321,1340,l),
(564,1340,l),
(564,1484,l),
(124,1484,l),
(124,-425,l),
(564,-425,l)
);
}
);
width = 569;
},
{
layerId = "1E741E55-12B1-42F1-9EAF-651FD3104344";
shapes = (
{
closed = 1;
nodes = (
(519,-316,l),
(300,-316,l),
(300,1375,l),
(519,1375,l),
(519,1484,l),
(156,1484,l),
(156,-425,l),
(519,-425,l)
);
}
);
width = 531;
}
);
unicode = 91;
}
{
glyphname = backslash;
layers = (
{
layerId = "1DEF85E5-E6DA-4BD7-A4F9-3FA9E428A319";
shapes = (
{
closed = 1;
nodes = (
(327,1486,l),
(35,1486,l),
(240,-55,l),
(537,-55,l)
);
}
);
width = 569;
},
{
layerId = "F8FBB777-9D69-46EE-A2C4-A8FDEBDF8C7E";
shapes = (
{
closed = 1;
nodes = (
(269,1485,l),
(23,1485,l),
(297,-43,l),
(548,-43,l)
);
}
);
width = 569;
},
{
layerId = "6975E435-B590-441E-B7DA-A87770204C86";
shapes = (
{
closed = 1;
nodes = (
(183,1485,l),
(5,1485,l),
(383,-25,l),
(564,-25,l)
);
}
);
width = 569;
},
{
layerId = "AB1FD75E-92AF-4808-893A-81D0A5D4219E";
shapes = (
{
closed = 1;
nodes = (
(125,1484,l),
(-7,1484,l),
(440,-13,l),
(575,-13,l)
);
}
);
width = 569;
}
);
unicode = 92;
}
{
glyphname = bracketright;
layers = (
{
layerId = "48B546D8-C5CA-40A8-8404-D5B3E1476F73";
shapes = (
{
closed = 1;
nodes = (
(663,1484,l),
(31,1484,l),
(31,1253,l),
(339,1253,l),
(339,-192,l),
(31,-192,l),
(31,-425,l),
(663,-425,l)
);
}
);
width = 757;
},
{
layerId = "9443E7DC-0C4A-42CC-997B-DD23E98306F4";
shapes = (
{
closed = 1;
nodes = (
(576,1484,l),
(21,1484,l),
(21,1288,l),
(303,1288,l),
(303,-227,l),
(21,-227,l),
(21,-425,l),
(576,-425,l)
);
}
);
width = 682;
},
{
layerId = "F7133933-345E-44EA-AD01-EBD83B4D43ED";
shapes = (
{
closed = 1;
nodes = (
(443,1484,l),
(4,1484,l),
(4,1340,l),
(248,1340,l),
(248,-281,l),
(4,-281,l),
(4,-425,l),
(443,-425,l)
);
}
);
width = 569;
},
{
layerId = "F39F01FC-5766-40F9-87FF-669365FEE249";
shapes = (
{
closed = 1;
nodes = (
(375,1484,l),
(13,1484,l),
(13,1375,l),
(231,1375,l),
(231,-316,l),
(13,-316,l),
(13,-425,l),
(375,-425,l)
);
}
);
width = 531;
}
);
unicode = 93;
}
{
glyphname = asciicircum;
layers = (
{
layerId = "48B546D8-C5CA-40A8-8404-D5B3E1476F73";
shapes = (
{
closed = 1;
nodes = (
(68,407,l),
(339,407,l),
(675,1239,l),
(1012,407,l),
(1285,407,l),
(877,1409,l),
(475,1409,l)
);
}
);
width = 1353;
},
{
layerId = "9443E7DC-0C4A-42CC-997B-DD23E98306F4";
shapes = (
{
closed = 1;
nodes = (
(36,498,l),
(270,498,l),
(596,1262,l),
(923,498,l),
(1159,498,l),
(764,1409,l),
(430,1409,l)
);
}
);
width = 1196;
},
{
layerId = "F7133933-345E-44EA-AD01-EBD83B4D43ED";
shapes = (
{
closed = 1;
nodes = (
(-10,634,l),
(168,634,l),
(478,1296,l),
(791,634,l),
(971,634,l),
(596,1409,l),
(364,1409,l)
);
}
);
width = 961;
},
{
layerId = "F39F01FC-5766-40F9-87FF-669365FEE249";
shapes = (
{
closed = 1;
nodes = (
(-2,725,l),
(139,725,l),
(439,1319,l),
(742,725,l),
(885,725,l),
(523,1409,l),
(359,1409,l)
);
}
);
width = 883;
}
);
unicode = 94;
}
{
glyphname = underscore;
layers = (
{
layerId = "1DEF85E5-E6DA-4BD7-A4F9-3FA9E428A319";
shapes = (
{
closed = 1;
nodes = (
(1154,-102,l),
(-13,-102,l),
(-13,-145,l),
(1154,-145,l)
);
}
);
width = 1139;
},
{
layerId = "F8FBB777-9D69-46EE-A2C4-A8FDEBDF8C7E";
shapes = (
{
closed = 1;
nodes = (
(1157,-162,l),
(-19,-162,l),
(-19,-235,l),
(1157,-235,l)
);
}
);
width = 1139;
},
{
layerId = "6975E435-B590-441E-B7DA-A87770204C86";
shapes = (
{
closed = 1;
nodes = (
(1161,-252,l),
(-29,-252,l),
(-29,-369,l),
(1161,-369,l)
);
}
);
width = 1139;
},
{
layerId = "AB1FD75E-92AF-4808-893A-81D0A5D4219E";
shapes = (
{
closed = 1;
nodes = (
(1164,-312,l),
(-35,-312,l),
(-35,-459,l),
(1164,-459,l)
);
}
);
width = 1139;
}
);
unicode = 95;
}
{
glyphname = grave;
layers = (
{
layerId = "9CBD3AC2-9D8D-48B9-985E-25F89544A3BC";
shapes = (
{
closed = 1;
nodes = (
(605,1209,l),
(331,1498,l),
(39,1498,l),
(39,1446,l),
(386,1171,l),
(605,1171,l)
);
}
);
width = 682;
},
{
layerId = "9CAA62FE-9EBF-4577-B1F1-D704579B9400";
shapes = (
{
closed = 1;
nodes = (
(579,1213,l),
(325,1501,l),
(62,1501,l),
(62,1457,l),
(403,1181,l),
(579,1181,l)
);
}
);
width = 682;
},
{
layerId = "4CFB2959-BEB7-4CB7-85AA-15E8C72B431E";
shapes = (
{
closed = 1;
nodes = (
(541,1219,l),
(315,1507,l),
(96,1507,l),
(96,1475,l),
(429,1197,l),
(541,1197,l)
);
}
);
width = 682;
},
{
layerId = "6C107EBF-3F3D-4659-9DBC-490DE09F0738";
shapes = (
{
closed = 1;
nodes = (
(515,1223,l),
(309,1510,l),
(119,1510,l),
(119,1486,l),
(446,1207,l),
(515,1207,l)
);
}
);
width = 682;
}
);
unicode = 96;
}
{
glyphname = a;
layers = (
{
layerId = "9CBD3AC2-9D8D-48B9-985E-25F89544A3BC";
shapes = (
{
closed = 1;
nodes = (
(453,-20,o),
(519,-2,o),
(577,35,cs),
(635,71,o),
(682,121,o),
(717,184,c),
(723,184,l),
(731,121,o),
(753,73,o),
(789,38,cs),
(825,4,o),
(880,-13,o),
(953,-13,cs),
(998,-13,o),
(1033,-11,o),
(1058,-5,c),
(1084,0,o),
(1118,8,o),
(1161,19,c),
(1161,198,l),
(1141,195,o),
(1120,193,o),
(1097,193,cs),
(1070,193,o),
(1049,203,o),
(1036,223,cs),
(1022,244,o),
(1016,287,o),
(1016,352,cs),
(1016,698,ls),
(1016,826,o),
(977,925,o),
(899,996,cs),
(822,1067,o),
(714,1102,o),
(577,1102,cs),
(294,1102,o),
(132,989,o),
(92,762,c),
(455,750,l),
(460,801,o),
(471,837,o),
(487,858,cs),
(503,879,o),
(527,890,o),
(560,890,cs),
(600,890,o),
(628,874,o),
(644,842,cs),
(660,810,o),
(668,765,o),
(668,706,cs),
(668,653,l),
(442,649,ls),
(320,648,o),
(223,618,o),
(151,562,cs),
(78,505,o),
(42,421,o),
(42,309,cs),
(42,203,o),
(73,122,o),
(134,65,cs),
(195,8,o),
(277,-20,o),
(379,-20,cs)
);
},
{
closed = 1;
nodes = (
(668,479,l),
(668,447,ls),
(668,405,o),
(661,366,o),
(646,330,cs),
(632,295,o),
(612,267,o),
(586,247,cs),
(559,227,o),
(531,217,o),
(502,217,cs),
(475,217,o),
(453,227,o),
(435,247,cs),
(416,268,o),
(407,301,o),
(407,347,cs),
(407,378,o),
(411,402,o),
(420,420,cs),
(428,438,o),
(440,451,o),
(456,461,c),
(471,467,o),
(506,473,o),
(560,478,c)
);
}
);
width = 1139;
},
{
layerId = "9CAA62FE-9EBF-4577-B1F1-D704579B9400";
shapes = (
{
closed = 1;
nodes = (
(470,-20,o),
(538,-2,o),
(597,34,cs),
(656,69,o),
(706,122,o),
(744,192,c),
(750,192,l),
(757,125,o),
(777,74,o),
(811,39,cs),
(845,5,o),
(898,-12,o),
(969,-12,cs),
(1007,-12,o),
(1038,-10,o),
(1062,-5,c),
(1087,-1,o),
(1117,5,o),
(1154,14,c),
(1154,171,l),
(1133,167,o),
(1113,165,o),
(1091,165,cs),
(1060,165,o),
(1037,176,o),
(1024,198,cs),
(1010,222,o),
(1003,264,o),
(1003,325,cs),
(1003,712,ls),
(1003,836,o),
(966,932,o),
(891,1000,cs),
(817,1068,o),
(711,1102,o),
(574,1102,cs),
(300,1102,o),
(144,994,o),
(107,779,c),
(410,765,l),
(416,819,o),
(430,857,o),
(454,881,cs),
(477,904,o),
(512,916,o),
(562,916,cs),
(615,916,o),
(654,899,o),
(677,865,cs),
(700,831,o),
(712,780,o),
(712,711,cs),
(712,655,l),
(480,651,ls),
(344,649,o),
(240,619,o),
(167,561,cs),
(94,503,o),
(57,419,o),
(57,307,cs),
(57,203,o),
(87,122,o),
(146,65,cs),
(205,8,o),
(287,-20,o),
(391,-20,cs)
);
},
{
closed = 1;
nodes = (
(712,498,l),
(712,446,ls),
(712,400,o),
(702,355,o),
(682,314,cs),
(663,273,o),
(636,241,o),
(601,217,cs),
(566,194,o),
(528,182,o),
(486,182,cs),
(448,182,o),
(418,194,o),
(396,218,cs),
(372,243,o),
(361,280,o),
(361,330,cs),
(361,369,o),
(368,400,o),
(381,423,cs),
(395,447,o),
(414,464,o),
(439,476,c),
(464,485,o),
(509,492,o),
(574,496,c)
);
}
);
width = 1139;
},
{
layerId = "4CFB2959-BEB7-4CB7-85AA-15E8C72B431E";
shapes = (
{
closed = 1;
nodes = (
(494,-20,o),
(568,-3,o),
(628,32,cs),
(689,67,o),
(741,124,o),
(786,204,c),
(792,204,l),
(796,131,o),
(814,77,o),
(845,42,cs),
(876,7,o),
(926,-10,o),
(993,-10,cs),
(1019,-10,o),
(1044,-9,o),
(1068,-6,cs),
(1092,-3,o),
(1117,2,o),
(1142,8,c),
(1142,129,l),
(1122,125,o),
(1102,123,o),
(1083,123,cs),
(1045,123,o),
(1019,136,o),
(1005,162,cs),
(991,188,o),
(985,228,o),
(985,283,cs),
(985,732,l),
(984,852,o),
(949,943,o),
(879,1007,cs),
(809,1071,o),
(706,1102,o),
(570,1102,cs),
(308,1102,o),
(161,1003,o),
(129,803,c),
(342,787,l),
(349,845,o),
(370,888,o),
(403,914,cs),
(437,941,o),
(491,954,o),
(564,954,cs),
(639,954,o),
(693,935,o),
(727,898,cs),
(761,861,o),
(778,801,o),
(778,717,cs),
(778,659,l),
(538,655,ls),
(380,652,o),
(264,620,o),
(191,561,cs),
(117,501,o),
(81,415,o),
(81,303,cs),
(81,202,o),
(109,123,o),
(164,66,cs),
(219,9,o),
(301,-20,o),
(409,-20,cs)
);
},
{
closed = 1;
nodes = (
(778,526,l),
(778,446,ls),
(778,391,o),
(765,340,o),
(737,290,cs),
(710,241,o),
(673,201,o),
(625,173,cs),
(578,144,o),
(523,130,o),
(462,130,cs),
(408,130,o),
(366,145,o),
(336,175,cs),
(306,205,o),
(291,249,o),
(291,306,c),
(292,357,o),
(302,397,o),
(324,429,cs),
(344,460,o),
(375,483,o),
(415,498,cs),
(455,513,o),
(515,521,o),
(594,522,cs)
);
}
);
width = 1139;
},
{
layerId = "6C107EBF-3F3D-4659-9DBC-490DE09F0738";
shapes = (
{
closed = 1;
nodes = (
(511,-20,o),
(587,-3,o),
(648,31,cs),
(710,65,o),
(765,125,o),
(813,212,c),
(819,212,l),
(822,135,o),
(838,78,o),
(867,43,cs),
(896,8,o),
(944,-9,o),
(1009,-9,cs),
(1028,-9,o),
(1049,-8,o),
(1072,-6,cs),
(1095,-4,o),
(1116,-1,o),
(1135,3,c),
(1135,102,l),
(1114,97,o),
(1095,95,o),
(1077,95,cs),
(1035,95,o),
(1007,109,o),
(993,137,cs),
(979,166,o),
(972,205,o),
(972,256,cs),
(972,746,l),
(971,862,o),
(938,950,o),
(871,1011,cs),
(804,1072,o),
(703,1102,o),
(567,1102,cs),
(314,1102,o),
(173,1008,o),
(144,820,c),
(297,802,l),
(305,863,o),
(329,908,o),
(370,937,cs),
(411,966,o),
(476,980,o),
(566,980,cs),
(654,980,o),
(719,960,o),
(760,921,cs),
(801,882,o),
(822,816,o),
(822,722,cs),
(822,661,l),
(576,657,l),
(404,653,o),
(281,621,o),
(207,560,cs),
(133,499,o),
(96,413,o),
(96,301,cs),
(96,202,o),
(123,123,o),
(176,66,cs),
(229,9,o),
(311,-20,o),
(421,-20,cs)
);
},
{
closed = 1;
nodes = (
(822,545,l),
(822,445,ls),
(822,386,o),
(806,329,o),
(773,274,cs),
(741,219,o),
(697,175,o),
(640,143,cs),
(585,111,o),
(520,95,o),
(446,95,cs),
(381,95,o),
(331,112,o),
(297,146,cs),
(262,180,o),
(245,228,o),
(245,289,c),
(246,348,o),
(259,395,o),
(285,432,cs),
(311,469,o),
(349,496,o),
(398,513,cs),
(448,531,o),
(518,540,o),
(608,540,c)
);
}
);
width = 1139;
}
);
unicode = 97;
}
{
glyphname = f;
layers = (
{
layerId = "1DEF85E5-E6DA-4BD7-A4F9-3FA9E428A319";
shapes = (
{
closed = 1;
nodes = (
(548,852,l),
(762,852,l),
(762,1082,l),
(548,1082,l),
(548,1159,ls),
(548,1198,o),
(558,1226,o),
(577,1242,cs),
(596,1258,o),
(630,1266,o),
(679,1266,cs),
(712,1266,o),
(739,1263,o),
(762,1256,c),
(762,1467,l),
(679,1479,o),
(608,1485,o),
(550,1485,cs),
(433,1485,o),
(346,1460,o),
(288,1410,cs),
(230,1360,o),
(201,1287,o),
(201,1189,cs),
(201,1082,l),
(39,1082,l),
(39,852,l),
(201,852,l),
(201,0,l),
(548,0,l)
);
}
);
width = 757;
},
{
layerId = "F8FBB777-9D69-46EE-A2C4-A8FDEBDF8C7E";
shapes = (
{
closed = 1;
nodes = (
(479,886,l),
(692,886,l),
(692,1082,l),
(479,1082,l),
(479,1166,ls),
(479,1213,o),
(489,1245,o),
(509,1264,cs),
(528,1283,o),
(562,1292,o),
(610,1292,cs),
(639,1292,o),
(666,1289,o),
(692,1282,c),
(692,1468,l),
(625,1479,o),
(564,1484,o),
(509,1484,cs),
(402,1484,o),
(322,1460,o),
(269,1412,cs),
(216,1365,o),
(189,1292,o),
(189,1194,cs),
(189,1082,l),
(31,1082,l),
(31,886,l),
(189,886,l),
(189,0,l),
(479,0,l)
);
}
);
width = 682;
},
{
layerId = "6975E435-B590-441E-B7DA-A87770204C86";
shapes = (
{
closed = 1;
nodes = (
(374,936,l),
(585,936,l),
(585,1082,l),
(374,1082,l),
(374,1176,l),
(375,1234,o),
(385,1275,o),
(405,1297,cs),
(426,1319,o),
(459,1330,o),
(505,1330,cs),
(528,1330,o),
(554,1327,o),
(585,1322,c),
(585,1470,l),
(544,1478,o),
(498,1482,o),
(446,1482,cs),
(353,1482,o),
(284,1460,o),
(238,1416,cs),
(192,1371,o),
(170,1301,o),
(170,1202,cs),
(170,1082,l),
(16,1082,l),
(16,936,l),
(170,936,l),
(170,0,l),
(374,0,l)
);
}
);
width = 569;
},
{
layerId = "AB1FD75E-92AF-4808-893A-81D0A5D4219E";
shapes = (
{
closed = 1;
nodes = (
(324,970,l),
(534,970,l),
(534,1082,l),
(324,1082,l),
(324,1183,l),
(325,1249,o),
(335,1294,o),
(356,1319,cs),
(377,1344,o),
(410,1356,o),
(455,1356,cs),
(474,1356,o),
(500,1353,o),
(534,1348,c),
(534,1471,l),
(509,1478,o),
(473,1481,o),
(424,1481,cs),
(341,1481,o),
(279,1460,o),
(238,1418,cs),
(197,1376,o),
(177,1306,o),
(177,1207,cs),
(177,1082,l),
(27,1082,l),
(27,970,l),
(177,970,l),
(177,0,l),
(324,0,l)
);
}
);
width = 531;
}
);
unicode = 102;
}
{
glyphname = i;
layers = (
{
layerId = "9CBD3AC2-9D8D-48B9-985E-25F89544A3BC";
shapes = (
{
closed = 1;
nodes = (
(496,1484,l),
(147,1484,l),
(147,1254,l),
(496,1254,l)
);
},
{
closed = 1;
nodes = (
(496,1082,l),
(147,1082,l),
(147,0,l),
(496,0,l)
);
}
);
width = 645;
},
{
layerId = "9CAA62FE-9EBF-4577-B1F1-D704579B9400";
shapes = (
{
closed = 1;
nodes = (
(429,1484,l),
(138,1484,l),
(138,1274,l),
(429,1274,l)
);
},
{
closed = 1;
nodes = (
(429,1082,l),
(138,1082,l),
(138,0,l),
(429,0,l)
);
}
);
width = 569;
},
{
layerId = "4CFB2959-BEB7-4CB7-85AA-15E8C72B431E";
shapes = (
{
closed = 1;
nodes = (
(329,1484,l),
(124,1484,l),
(124,1304,l),
(329,1304,l)
);
},
{
closed = 1;
nodes = (
(329,1082,l),
(124,1082,l),
(124,0,l),
(329,0,l)
);
}
);
width = 455;
},
{
layerId = "6C107EBF-3F3D-4659-9DBC-490DE09F0738";
shapes = (
{
closed = 1;
nodes = (
(282,1484,l),
(135,1484,l),
(135,1324,l),
(282,1324,l)
);
},
{
closed = 1;
nodes = (
(282,1082,l),
(135,1082,l),
(135,0,l),
(282,0,l)
);
}
);
width = 417;
}
);
unicode = 105;
}
{
glyphname = j;
layers = (
{
layerId = "0A527CAB-40A8-47D6-8FB3-136A5153B95C";
shapes = (
{
closed = 1;
nodes = (
(497,1484,l),
(149,1484,l),
(149,1254,l),
(497,1254,l)
);
},
{
closed = 1;
nodes = (
(283,-425,o),
(363,-398,o),
(416,-343,cs),
(470,-288,o),
(497,-215,o),
(497,-124,cs),
(497,1082,l),
(149,1082,l),
(149,-29,ls),
(149,-92,o),
(140,-134,o),
(123,-153,cs),
(106,-172,o),
(73,-181,o),
(24,-181,cs),
(16,-181,o),
(9,-181,o),
(2,-180,cs),
(-5,-179,o),
(-13,-179,o),
(-20,-178,c),
(-20,-416,l),
(37,-422,o),
(103,-425,o),
(179,-425,cs)
);
}
);
width = 645;
},
{
layerId = "878309BC-9289-4993-9212-ED28064DE1EA";
shapes = (
{
closed = 1;
nodes = (
(429,1484,l),
(139,1484,l),
(139,1274,l),
(429,1274,l)
);
},
{
closed = 1;
nodes = (
(234,-425,o),
(307,-399,o),
(355,-348,cs),
(405,-295,o),
(429,-222,o),
(429,-127,cs),
(429,1082,l),
(139,1082,l),
(139,-56,ls),
(139,-121,o),
(130,-165,o),
(112,-185,c),
(95,-206,o),
(62,-216,o),
(14,-216,cs),
(5,-216,o),
(-3,-216,o),
(-11,-215,cs),
(-19,-213,o),
(-28,-213,o),
(-36,-212,c),
(-36,-416,l),
(12,-422,o),
(70,-425,o),
(138,-425,cs)
);
}
);
width = 569;
},
{
layerId = "6543F4AE-1A40-4DBA-A005-BFFCCFE6B0CF";
shapes = (
{
closed = 1;
nodes = (
(329,1484,l),
(125,1484,l),
(125,1304,l),
(329,1304,l)
);
},
{
closed = 1;
nodes = (
(161,-425,o),
(224,-402,o),
(266,-354,cs),
(307,-307,o),
(329,-233,o),
(329,-133,cs),
(329,1082,l),
(125,1082,l),
(125,-96,l),
(124,-165,o),
(115,-210,o),
(97,-234,c),
(78,-257,o),
(46,-268,o),
(0,-268,cs),
(-10,-268,o),
(-20,-267,o),
(-30,-266,cs),
(-40,-265,o),
(-50,-263,o),
(-60,-262,c),
(-60,-416,l),
(-23,-422,o),
(23,-425,o),
(78,-425,cs)
);
}
);
width = 455;
},
{
layerId = "1E741E55-12B1-42F1-9EAF-651FD3104344";
shapes = (
{
closed = 1;
nodes = (
(281,1484,l),
(135,1484,l),
(135,1324,l),
(281,1324,l)
);
},
{
closed = 1;
nodes = (
(132,-425,o),
(188,-403,o),
(225,-359,cs),
(262,-314,o),
(281,-240,o),
(281,-136,cs),
(281,1082,l),
(135,1082,l),
(135,-123,l),
(134,-194,o),
(125,-241,o),
(106,-266,cs),
(87,-291,o),
(55,-303,o),
(10,-303,cs),
(-1,-303,o),
(-12,-302,o),
(-23,-301,cs),
(-34,-299,o),
(-45,-297,o),
(-56,-296,c),
(-56,-416,l),
(-28,-422,o),
(10,-425,o),
(57,-425,cs)
);
}
);
width = 417;
}
);
unicode = 106;
}
{
glyphname = l;
layers = (
{
layerId = "40F9559D-0C66-47C0-904D-85A1A1CF5568";
shapes = (
{
closed = 1;
nodes = (
(486,1484,l),
(142,1484,l),
(142,280,ls),
(142,180,o),
(166,107,o),
(217,61,c),
(266,13,o),
(338,-12,o),
(428,-11,c),
(514,-11,o),
(624,-3,o),
(689,15,c),
(689,224,l),
(666,219,o),
(626,217,o),
(613,217,c),
(571,218,o),
(539,232,o),
(518,259,cs),
(497,286,o),
(486,326,o),
(486,381,cs)
);
}
);
width = 704;
},
{
layerId = "5D6D431B-CC1B-4FAD-85A4-67ADFEBCB3CA";
shapes = (
{
closed = 1;
nodes = (
(428,1484,l),
(140,1484,l),
(140,262,ls),
(140,169,o),
(162,100,o),
(208,55,cs),
(253,10,o),
(318,-13,o),
(402,-13,cs),
(476,-13,o),
(555,-6,o),
(614,9,c),
(614,193,l),
(589,188,o),
(565,186,o),
(551,186,cs),
(509,186,o),
(478,199,o),
(458,224,cs),
(438,249,o),
(428,288,o),
(428,342,cs)
);
}
);
width = 631;
},
{
layerId = "4F4EDE15-BE4F-4838-A8D1-739248E5F6B1";
shapes = (
{
closed = 1;
nodes = (
(341,1484,l),
(137,1484,l),
(137,235,ls),
(137,152,o),
(156,89,o),
(195,46,cs),
(233,5,o),
(288,-15,o),
(363,-16,cs),
(419,-16,o),
(452,-11,o),
(502,0,c),
(502,146,l),
(474,141,o),
(473,139,o),
(458,139,c),
(416,138,o),
(386,149,o),
(368,171,cs),
(350,194,o),
(341,231,o),
(341,283,cs)
);
}
);
width = 522;
},
{
layerId = "B3E42AB7-2F0B-4826-A062-029E39AD2446";
shapes = (
{
closed = 1;
nodes = (
(283,1484,l),
(135,1484,l),
(135,217,ls),
(135,141,o),
(152,82,o),
(186,40,c),
(220,2,o),
(268,-16,o),
(337,-18,c),
(381,-18,o),
(386,-14,o),
(430,-6,c),
(430,115,l),
(400,110,o),
(412,108,o),
(396,108,c),
(354,106,o),
(325,116,o),
(308,136,cs),
(291,157,o),
(283,193,o),
(283,244,cs)
);
}
);
width = 449;
}
);
unicode = 108;
}
{
glyphname = m;
layers = (
{
layerId = "9CBD3AC2-9D8D-48B9-985E-25F89544A3BC";
shapes = (
{
closed = 1;
nodes = (
(493,549,ls),
(493,631,o),
(508,701,o),
(537,758,cs),
(567,816,o),
(604,844,o),
(647,844,cs),
(688,844,o),
(722,818,o),
(748,766,cs),
(775,714,o),
(788,643,o),
(788,554,cs),
(788,0,l),
(1135,0,l),
(1135,570,ls),
(1135,654,o),
(1151,721,o),
(1183,770,cs),
(1215,820,o),
(1250,844,o),
(1289,844,cs),
(1330,844,o),
(1364,818,o),
(1390,766,cs),
(1417,714,o),
(1430,643,o),
(1430,554,cs),
(1430,0,l),
(1776,0,l),
(1776,664,ls),
(1776,797,o),
(1747,904,o),
(1688,984,cs),
(1629,1064,o),
(1548,1104,o),
(1445,1104,cs),
(1363,1104,o),
(1297,1084,o),
(1247,1044,cs),
(1196,1004,o),
(1153,938,o),
(1117,847,c),
(1109,847,l),
(1093,930,o),
(1058,994,o),
(1006,1038,cs),
(954,1082,o),
(886,1104,o),
(803,1104,cs),
(731,1104,o),
(669,1083,o),
(616,1040,cs),
(563,998,o),
(521,934,o),
(489,847,c),
(484,847,l),
(484,857,o),
(483,880,o),
(481,916,cs),
(478,953,o),
(476,989,o),
(474,1024,cs),
(471,1059,o),
(469,1078,o),
(468,1082,c),
(134,1082,l),
(136,1042,o),
(138,1005,o),
(141,968,cs),
(143,932,o),
(144,887,o),
(144,833,cs),
(144,0,l),
(493,0,l)
);
}
);
width = 1898;
},
{
layerId = "9CAA62FE-9EBF-4577-B1F1-D704579B9400";
shapes = (
{
closed = 1;
nodes = (
(428,576,ls),
(428,666,o),
(446,740,o),
(480,798,cs),
(515,856,o),
(560,885,o),
(615,885,cs),
(667,885,o),
(707,861,o),
(734,813,cs),
(762,765,o),
(775,694,o),
(775,599,cs),
(775,0,l),
(1064,0,l),
(1064,589,ls),
(1064,681,o),
(1082,754,o),
(1118,806,cs),
(1154,859,o),
(1198,885,o),
(1251,885,cs),
(1303,885,o),
(1343,861,o),
(1370,813,cs),
(1398,765,o),
(1411,694,o),
(1411,599,cs),
(1411,0,l),
(1700,0,l),
(1700,683,ls),
(1700,817,o),
(1672,921,o),
(1617,994,cs),
(1561,1067,o),
(1480,1103,o),
(1375,1103,cs),
(1295,1103,o),
(1230,1085,o),
(1179,1047,cs),
(1127,1010,o),
(1083,949,o),
(1047,864,c),
(1041,864,l),
(1024,943,o),
(989,1003,o),
(939,1043,cs),
(888,1083,o),
(821,1103,o),
(739,1103,cs),
(667,1103,o),
(605,1084,o),
(553,1046,cs),
(501,1008,o),
(458,948,o),
(424,864,c),
(420,864,l),
(420,877,o),
(419,900,o),
(418,931,c),
(415,964,o),
(414,995,o),
(412,1025,cs),
(410,1056,o),
(408,1074,o),
(407,1082,c),
(129,1082,l),
(131,1051,o),
(132,1018,o),
(135,980,c),
(136,943,o),
(137,896,o),
(137,839,cs),
(137,0,l),
(428,0,l)
);
}
);
width = 1821;
},
{
layerId = "4CFB2959-BEB7-4CB7-85AA-15E8C72B431E";
shapes = (
{
closed = 1;
nodes = (
(332,616,ls),
(332,719,o),
(353,800,o),
(395,858,cs),
(438,917,o),
(496,945,o),
(567,945,cs),
(637,945,o),
(686,924,o),
(714,883,cs),
(742,842,o),
(757,769,o),
(757,667,cs),
(757,0,l),
(960,0,l),
(960,619,ls),
(960,723,o),
(981,803,o),
(1023,860,cs),
(1065,917,o),
(1122,945,o),
(1195,945,cs),
(1265,945,o),
(1314,924,o),
(1342,883,cs),
(1370,842,o),
(1385,769,o),
(1385,667,cs),
(1385,0,l),
(1586,0,l),
(1586,713,l),
(1587,848,o),
(1562,947,o),
(1510,1009,cs),
(1459,1071,o),
(1380,1103,o),
(1271,1103,cs),
(1195,1103,o),
(1130,1086,o),
(1078,1053,cs),
(1025,1019,o),
(980,965,o),
(943,890,c),
(939,890,l),
(921,963,o),
(888,1016,o),
(839,1051,cs),
(791,1086,o),
(726,1103,o),
(643,1103,cs),
(571,1102,o),
(510,1086,o),
(460,1054,cs),
(410,1023,o),
(366,968,o),
(328,890,c),
(324,890,l),
(325,908,o),
(325,929,o),
(323,955,c),
(323,980,o),
(321,1004,o),
(320,1028,c),
(318,1051,o),
(316,1069,o),
(315,1082,c),
(121,1082,l),
(123,1064,o),
(125,1036,o),
(126,998,c),
(128,961,o),
(129,911,o),
(129,849,cs),
(129,0,l),
(332,0,l)
);
}
);
width = 1706;
},
{
layerId = "6C107EBF-3F3D-4659-9DBC-490DE09F0738";
shapes = (
{
closed = 1;
nodes = (
(287,643,ls),
(287,754,o),
(311,839,o),
(358,898,cs),
(406,957,o),
(472,986,o),
(555,986,cs),
(636,986,o),
(691,967,o),
(720,930,cs),
(749,893,o),
(764,820,o),
(764,712,cs),
(764,0,l),
(909,0,l),
(909,638,ls),
(909,750,o),
(932,836,o),
(978,896,cs),
(1024,956,o),
(1090,986,o),
(1177,986,cs),
(1258,986,o),
(1313,967,o),
(1342,930,cs),
(1371,893,o),
(1386,820,o),
(1386,712,cs),
(1386,0,l),
(1530,0,l),
(1530,732,l),
(1531,868,o),
(1507,964,o),
(1459,1019,cs),
(1411,1074,o),
(1332,1102,o),
(1221,1102,cs),
(1147,1102,o),
(1083,1087,o),
(1030,1056,cs),
(976,1025,o),
(930,976,o),
(893,907,c),
(891,907,l),
(872,976,o),
(839,1025,o),
(792,1056,cs),
(745,1087,o),
(681,1102,o),
(599,1102,c),
(527,1101,o),
(466,1087,o),
(417,1060,cs),
(368,1033,o),
(323,982,o),
(283,907,c),
(280,907,l),
(281,928,o),
(281,949,o),
(280,970,c),
(280,991,o),
(279,1010,o),
(278,1029,cs),
(277,1048,o),
(275,1065,o),
(274,1082,c),
(136,1082,l),
(138,1073,o),
(139,1049,o),
(140,1010,cs),
(141,972,o),
(142,920,o),
(142,855,cs),
(142,0,l),
(287,0,l)
);
}
);
width = 1668;
}
);
unicode = 109;
}
{
glyphname = p;
layers = (
{
layerId = "48B546D8-C5CA-40A8-8404-D5B3E1476F73";
shapes = (
{
closed = 1;
nodes = (
(1243,716,o),
(1208,852,o),
(1136,954,cs),
(1064,1057,o),
(968,1108,o),
(847,1108,cs),
(766,1108,o),
(694,1091,o),
(632,1056,cs),
(571,1022,o),
(525,971,o),
(494,905,c),
(490,905,l),
(490,935,o),
(489,961,o),
(489,983,c),
(488,1005,o),
(487,1024,o),
(485,1040,cs),
(483,1057,o),
(480,1070,o),
(476,1082,c),
(137,1082,l),
(140,1041,o),
(142,998,o),
(144,954,cs),
(146,909,o),
(146,863,o),
(146,814,cs),
(146,-425,l),
(495,-425,l),
(495,-15,ls),
(495,81,o),
(493,144,o),
(488,175,c),
(494,175,l),
(559,45,o),
(667,-20,o),
(817,-20,cs),
(949,-20,o),
(1052,31,o),
(1129,132,cs),
(1205,233,o),
(1243,371,o),
(1243,546,cs)
);
},
{
closed = 1;
nodes = (
(881,444,o),
(863,362,o),
(828,302,cs),
(794,242,o),
(743,212,o),
(677,212,cs),
(623,212,o),
(578,242,o),
(542,303,cs),
(506,365,o),
(488,445,o),
(488,545,cs),
(488,638,o),
(505,717,o),
(540,780,cs),
(574,843,o),
(621,875,o),
(679,875,cs),
(744,875,o),
(794,846,o),
(829,788,cs),
(863,730,o),
(881,650,o),
(881,549,cs)
);
}
);
width = 1326;
},
{
layerId = "9443E7DC-0C4A-42CC-997B-DD23E98306F4";
shapes = (
{
closed = 1;
nodes = (
(1172,723,o),
(1138,861,o),
(1068,958,cs),
(998,1057,o),
(901,1106,o),
(775,1106,cs),
(693,1106,o),
(621,1089,o),
(563,1055,c),
(504,1023,o),
(460,972,o),
(429,906,c),
(425,906,l),
(425,930,o),
(424,954,o),
(423,978,cs),
(422,1001,o),
(421,1022,o),
(419,1041,cs),
(417,1060,o),
(415,1073,o),
(412,1082,c),
(129,1082,l),
(132,1049,o),
(134,1011,o),
(135,970,cs),
(137,927,o),
(137,881,o),
(137,830,cs),
(137,-425,l),
(428,-425,l),
(428,-10,ls),
(428,90,o),
(427,151,o),
(423,173,c),
(428,173,l),
(490,44,o),
(600,-20,o),
(756,-20,cs),
(888,-20,o),
(989,30,o),
(1063,129,cs),
(1136,227,o),
(1172,366,o),
(1172,546,cs)
);
},
{
closed = 1;
nodes = (
(869,425,o),
(850,333,o),
(813,271,cs),
(777,209,o),
(721,178,o),
(647,178,cs),
(577,178,o),
(522,209,o),
(483,272,cs),
(443,336,o),
(424,425,o),
(424,539,cs),
(424,653,o),
(443,742,o),
(483,807,cs),
(521,872,o),
(577,905,o),
(649,905,cs),
(722,905,o),
(777,875,o),
(814,814,cs),
(850,754,o),
(869,665,o),
(869,547,cs)
);
}
);
width = 1251;
},
{
layerId = "F7133933-345E-44EA-AD01-EBD83B4D43ED";
shapes = (
{
closed = 1;
nodes = (
(1066,734,o),
(1033,873,o),
(966,965,cs),
(899,1056,o),
(800,1102,o),
(669,1102,cs),
(583,1102,o),
(514,1087,o),
(459,1055,cs),
(406,1023,o),
(363,975,o),
(331,908,c),
(327,908,l),
(327,923,o),
(326,943,o),
(326,969,c),
(324,996,o),
(322,1020,o),
(321,1042,cs),
(319,1065,o),
(317,1078,o),
(316,1082,c),
(119,1082,l),
(121,1061,o),
(122,1031,o),
(124,993,cs),
(125,955,o),
(125,909,o),
(125,854,cs),
(125,-425,l),
(330,-425,l),
(330,-4,ls),
(330,103,o),
(328,161,o),
(325,169,c),
(330,169,l),
(389,43,o),
(500,-20,o),
(664,-20,cs),
(797,-20,o),
(897,28,o),
(965,123,cs),
(1032,219,o),
(1066,360,o),
(1066,546,cs)
);
},
{
closed = 1;
nodes = (
(853,395,o),
(833,290,o),
(792,225,cs),
(752,160,o),
(689,128,o),
(603,128,cs),
(508,127,o),
(438,160,o),
(394,227,cs),
(351,294,o),
(328,394,o),
(328,531,c),
(329,674,o),
(352,781,o),
(397,848,cs),
(443,915,o),
(512,949,o),
(605,949,cs),
(690,949,o),
(753,917,o),
(793,854,cs),
(833,791,o),
(853,687,o),
(853,543,cs)
);
}
);
width = 1139;
},
{
layerId = "F39F01FC-5766-40F9-87FF-669365FEE249";
shapes = (
{
closed = 1;
nodes = (
(1015,741,o),
(983,882,o),
(918,969,cs),
(853,1056,o),
(753,1100,o),
(617,1100,cs),
(530,1100,o),
(461,1085,o),
(410,1054,cs),
(359,1024,o),
(318,976,o),
(286,909,c),
(282,909,l),
(282,918,o),
(281,936,o),
(280,964,cs),
(278,992,o),
(276,1018,o),
(275,1043,cs),
(273,1068,o),
(272,1081,o),
(272,1082,c),
(131,1082,l),
(133,1069,o),
(134,1044,o),
(135,1009,cs),
(136,973,o),
(136,927,o),
(136,870,cs),
(136,-425,l),
(283,-425,l),
(283,1,ls),
(283,112,o),
(282,168,o),
(280,167,c),
(284,167,l),
(340,42,o),
(453,-20,o),
(623,-20,cs),
(756,-20,o),
(854,27,o),
(919,120,cs),
(983,213,o),
(1015,355,o),
(1015,546,cs)
);
},
{
closed = 1;
nodes = (
(861,376,o),
(840,261,o),
(797,194,cs),
(755,127,o),
(687,94,o),
(593,94,c),
(482,93,o),
(402,127,o),
(355,196,cs),
(308,265,o),
(284,374,o),
(284,525,c),
(285,689,o),
(310,806,o),
(360,875,cs),
(410,944,o),
(488,979,o),
(595,979,cs),
(688,979,o),
(756,946,o),
(798,880,cs),
(840,815,o),
(861,702,o),
(861,541,cs)
);
}
);
width = 1102;
}
);
unicode = 112;
}
{
glyphname = q;
layers = (
{
layerId = "1DEF85E5-E6DA-4BD7-A4F9-3FA9E428A319";
shapes = (
{
closed = 1;
nodes = (
(83,372,o),
(119,235,o),
(190,133,cs),
(262,31,o),
(357,-20,o),
(476,-20,cs),
(564,-20,o),
(639,-2,o),
(703,33,cs),
(766,68,o),
(811,118,o),
(838,181,c),
(840,181,l),
(834,32,l),
(834,-425,l),
(1180,-425,l),
(1180,854,ls),
(1180,881,o),
(1180,912,o),
(1181,948,cs),
(1182,984,o),
(1183,1025,o),
(1185,1073,c),
(850,1073,l),
(849,1063,o),
(846,1049,o),
(843,1033,cs),
(840,1016,o),
(838,996,o),
(836,975,cs),
(834,953,o),
(833,930,o),
(833,904,c),
(806,968,o),
(765,1017,o),
(711,1052,cs),
(656,1086,o),
(590,1104,o),
(514,1104,cs),
(381,1104,o),
(276,1053,o),
(199,952,cs),
(121,851,o),
(83,715,o),
(83,543,cs)
);
},
{
closed = 1;
nodes = (
(838,438,o),
(819,357,o),
(783,297,cs),
(746,237,o),
(701,208,o),
(647,208,cs),
(582,208,o),
(532,237,o),
(497,295,cs),
(463,354,o),
(445,435,o),
(445,539,cs),
(445,645,o),
(463,727,o),
(499,784,cs),
(536,842,o),
(585,870,o),
(649,870,cs),
(707,870,o),
(753,840,o),
(787,779,cs),
(821,719,o),
(838,639,o),
(838,541,cs)
);
}
);
width = 1326;
},
{
layerId = "F8FBB777-9D69-46EE-A2C4-A8FDEBDF8C7E";
shapes = (
{
closed = 1;
nodes = (
(78,365,o),
(113,227,o),
(181,128,cs),
(251,29,o),
(348,-20,o),
(473,-20,cs),
(560,-20,o),
(632,-3,o),
(693,30,c),
(752,64,o),
(797,114,o),
(827,180,c),
(829,180,l),
(823,26,l),
(823,-425,l),
(1113,-425,l),
(1113,836,ls),
(1113,880,o),
(1113,923,o),
(1114,963,cs),
(1115,1004,o),
(1116,1043,o),
(1118,1081,c),
(839,1081,l),
(838,1074,o),
(835,1060,o),
(832,1041,c),
(830,1021,o),
(828,999,o),
(826,976,c),
(825,951,o),
(824,929,o),
(824,907,c),
(794,973,o),
(751,1021,o),
(697,1054,cs),
(643,1087,o),
(576,1103,o),
(498,1103,cs),
(365,1103,o),
(262,1054,o),
(188,955,cs),
(114,856,o),
(78,718,o),
(78,541,cs)
);
},
{
closed = 1;
nodes = (
(826,428,o),
(806,338,o),
(766,273,cs),
(726,209,o),
(671,178,o),
(601,178,cs),
(527,177,o),
(472,208,o),
(436,268,cs),
(400,329,o),
(381,420,o),
(381,540,cs),
(381,661,o),
(399,752,o),
(437,812,cs),
(475,874,o),
(530,904,o),
(603,904,cs),
(676,904,o),
(731,872,o),
(769,809,cs),
(807,746,o),
(826,658,o),
(826,546,cs)
);
}
);
width = 1251;
},
{
layerId = "6975E435-B590-441E-B7DA-A87770204C86";
shapes = (
{
closed = 1;
nodes = (
(72,354,o),
(104,215,o),
(169,121,cs),
(234,27,o),
(334,-20,o),
(469,-20,cs),
(554,-20,o),
(624,-4,o),
(678,27,cs),
(732,57,o),
(776,108,o),
(811,178,c),
(813,178,l),
(809,16,l),
(809,-425,l),
(1013,-425,l),
(1013,808,l),
(1012,880,o),
(1013,939,o),
(1014,987,cs),
(1015,1034,o),
(1017,1069,o),
(1020,1093,c),
(823,1093,l),
(822,1089,o),
(820,1076,o),
(818,1053,cs),
(816,1029,o),
(814,1003,o),
(813,976,cs),
(811,949,o),
(810,928,o),
(810,913,c),
(776,979,o),
(732,1028,o),
(678,1058,cs),
(623,1087,o),
(555,1103,o),
(474,1103,cs),
(341,1103,o),
(241,1054,o),
(174,959,cs),
(106,864,o),
(72,724,o),
(72,537,cs)
);
},
{
closed = 1;
nodes = (
(810,414,o),
(787,308,o),
(743,238,cs),
(698,167,o),
(628,132,o),
(533,132,cs),
(447,132,o),
(384,163,o),
(344,228,cs),
(305,293,o),
(285,397,o),
(285,542,cs),
(285,684,o),
(305,788,o),
(344,855,cs),
(384,921,o),
(447,954,o),
(535,954,cs),
(629,954,o),
(698,921,o),
(743,854,cs),
(788,788,o),
(810,687,o),
(810,552,cs)
);
}
);
width = 1139;
},
{
layerId = "AB1FD75E-92AF-4808-893A-81D0A5D4219E";
shapes = (
{
closed = 1;
nodes = (
(87,347,o),
(118,207,o),
(180,116,cs),
(243,25,o),
(345,-20,o),
(486,-20,cs),
(570,-20,o),
(637,-5,o),
(688,24,cs),
(738,53,o),
(782,104,o),
(820,177,c),
(822,177,l),
(818,10,l),
(818,-425,l),
(966,-425,l),
(966,790,l),
(965,879,o),
(966,950,o),
(967,1002,cs),
(968,1054,o),
(970,1087,o),
(973,1101,c),
(832,1101,l),
(831,1100,o),
(829,1087,o),
(827,1061,c),
(826,1034,o),
(824,1006,o),
(823,977,cs),
(822,947,o),
(821,927,o),
(821,916,c),
(784,984,o),
(738,1032,o),
(684,1060,cs),
(630,1088,o),
(561,1102,o),
(478,1102,cs),
(345,1102,o),
(247,1055,o),
(183,962,cs),
(119,869,o),
(87,727,o),
(87,535,cs)
);
},
{
closed = 1;
nodes = (
(818,404,o),
(794,289,o),
(746,214,cs),
(698,139,o),
(618,102,o),
(507,102,c),
(412,101,o),
(344,134,o),
(303,201,cs),
(262,268,o),
(241,382,o),
(241,543,cs),
(241,700,o),
(261,813,o),
(302,883,cs),
(343,953,o),
(412,988,o),
(509,988,cs),
(618,988,o),
(696,953,o),
(745,884,cs),
(794,815,o),
(818,706,o),
(818,557,cs)
);
}
);
width = 1102;
}
);
unicode = 113;
}
{
glyphname = v;
layers = (
{
layerId = "40F9559D-0C66-47C0-904D-85A1A1CF5568";
shapes = (
{
closed = 1;
nodes = (
(1206,1082,l),
(843,1082,l),
(672,515,ls),
(665,491,o),
(655,460,o),
(644,422,cs),
(633,384,o),
(623,351,o),
(615,324,cs),
(607,296,o),
(603,283,o),
(605,285,c),
(586,352,o),
(571,407,o),
(559,450,cs),
(547,493,o),
(538,524,o),
(532,543,cs),
(376,1082,l),
(9,1082,l),
(392,0,l),
(810,0,l)
);
}
);
width = 1216;
},
{
layerId = "5D6D431B-CC1B-4FAD-85A4-67ADFEBCB3CA";
shapes = (
{
closed = 1;
nodes = (
(1135,1082,l),
(831,1082,l),
(635,468,ls),
(628,445,o),
(618,416,o),
(608,382,cs),
(598,348,o),
(588,317,o),
(580,289,cs),
(572,261,o),
(567,243,o),
(565,236,c),
(546,302,o),
(531,356,o),
(520,398,cs),
(508,440,o),
(499,469,o),
(493,486,c),
(309,1082,l),
(2,1082,l),
(389,0,l),
(737,0,l)
);
}
);
width = 1139;
},
{
layerId = "4F4EDE15-BE4F-4838-A8D1-739248E5F6B1";
shapes = (
{
closed = 1;
nodes = (
(1031,1082,l),
(815,1082,l),
(579,396,ls),
(572,375,o),
(564,351,o),
(555,322,cs),
(546,294,o),
(538,266,o),
(530,238,cs),
(522,209,o),
(514,184,o),
(507,162,c),
(488,227,o),
(473,280,o),
(461,320,cs),
(450,360,o),
(442,388,o),
(437,402,cs),
(211,1082,l),
(-6,1082,l),
(385,0,l),
(627,0,l)
);
}
);
width = 1024;
},
{
layerId = "B3E42AB7-2F0B-4826-A062-029E39AD2446";
shapes = (
{
closed = 1;
nodes = (
(980,1082,l),
(823,1082,l),
(562,349,ls),
(555,329,o),
(547,307,o),
(539,282,cs),
(531,258,o),
(523,232,o),
(515,203,cs),
(507,174,o),
(498,144,o),
(487,113,c),
(468,177,o),
(453,229,o),
(442,268,cs),
(431,307,o),
(423,333,o),
(418,345,c),
(164,1082,l),
(7,1082,l),
(402,0,l),
(574,0,l)
);
}
);
width = 986;
}
);
unicode = 118;
}
{
glyphname = x;
layers = (
{
layerId = "40F9559D-0C66-47C0-904D-85A1A1CF5568";
shapes = (
{
closed = 1;
nodes = (
(605,357,l),
(831,0,l),
(1206,0,l),
(801,565,l),
(1184,1082,l),
(810,1082,l),
(605,773,l),
(400,1082,l),
(28,1082,l),
(411,561,l),
(8,0,l),
(377,0,l)
);
}
);
width = 1216;
},
{
layerId = "5D6D431B-CC1B-4FAD-85A4-67ADFEBCB3CA";
shapes = (
{
closed = 1;
nodes = (
(566,387,l),
(815,0,l),
(1130,0,l),
(730,563,l),
(1108,1082,l),
(793,1082,l),
(566,735,l),
(339,1082,l),
(27,1082,l),
(404,559,l),
(7,0,l),
(316,0,l)
);
}
);
width = 1139;
},
{
layerId = "4F4EDE15-BE4F-4838-A8D1-739248E5F6B1";
shapes = (
{
closed = 1;
nodes = (
(510,431,l),
(791,0,l),
(1018,0,l),
(626,559,l),
(994,1082,l),
(769,1082,l),
(510,677,l),
(249,1082,l),
(25,1082,l),
(394,557,l),
(7,0,l),
(226,0,l)
);
}
);
width = 1024;
},
{
layerId = "B3E42AB7-2F0B-4826-A062-029E39AD2446";
shapes = (
{
closed = 1;
nodes = (
(491,461,l),
(795,0,l),
(962,0,l),
(575,557,l),
(938,1082,l),
(772,1082,l),
(491,639,l),
(208,1082,l),
(44,1082,l),
(407,555,l),
(26,0,l),
(185,0,l)
);
}
);
width = 986;
}
);
unicode = 120;
}
{
glyphname = braceleft;
layers = (
{
layerId = "40F9559D-0C66-47C0-904D-85A1A1CF5568";
shapes = (
{
closed = 1;
nodes = (
(825,-425,l),
(825,-192,l),
(770,-192,ls),
(710,-192,o),
(665,-176,o),
(638,-143,cs),
(610,-110,o),
(596,-58,o),
(596,13,cs),
(596,276,ls),
(596,336,o),
(576,389,o),
(537,435,cs),
(498,481,o),
(446,512,o),
(380,527,c),
(380,532,l),
(443,544,o),
(495,573,o),
(535,619,cs),
(576,665,o),
(596,720,o),
(596,784,cs),
(596,1048,ls),
(596,1117,o),
(610,1168,o),
(638,1202,cs),
(665,1236,o),
(710,1253,o),
(770,1253,cs),
(825,1253,l),
(825,1484,l),
(586,1484,ls),
(491,1484,o),
(415,1458,o),
(357,1407,cs),
(300,1356,o),
(271,1281,o),
(271,1181,cs),
(271,876,ls),
(271,802,o),
(252,747,o),
(216,710,cs),
(180,672,o),
(118,652,o),
(32,648,c),
(32,408,l),
(116,408,o),
(176,389,o),
(214,352,cs),
(252,315,o),
(271,259,o),
(271,184,cs),
(271,-122,ls),
(271,-218,o),
(300,-292,o),
(359,-345,cs),
(418,-398,o),
(494,-425,o),
(586,-425,cs)
);
}
);
width = 872;
},
{
layerId = "5D6D431B-CC1B-4FAD-85A4-67ADFEBCB3CA";
shapes = (
{
closed = 1;
nodes = (
(759,-425,l),
(759,-227,l),
(702,-227,ls),
(642,-227,o),
(597,-211,o),
(571,-177,cs),
(544,-143,o),
(530,-90,o),
(530,-19,cs),
(530,276,ls),
(530,337,o),
(510,391,o),
(473,437,cs),
(435,483,o),
(385,513,o),
(321,528,c),
(321,532,l),
(383,545,o),
(433,574,o),
(471,620,cs),
(511,666,o),
(530,720,o),
(530,784,cs),
(530,1079,ls),
(530,1150,o),
(544,1201,o),
(571,1236,cs),
(597,1271,o),
(641,1288,o),
(702,1288,cs),
(759,1288,l),
(759,1484,l),
(556,1484,ls),
(464,1484,o),
(391,1458,o),
(338,1407,cs),
(285,1356,o),
(259,1282,o),
(259,1184,cs),
(259,860,ls),
(259,785,o),
(240,729,o),
(204,691,cs),
(168,653,o),
(109,633,o),
(28,629,c),
(28,428,l),
(108,427,o),
(166,407,o),
(203,370,cs),
(240,332,o),
(259,276,o),
(259,199,cs),
(259,-125,l),
(258,-220,o),
(285,-293,o),
(340,-346,cs),
(394,-398,o),
(466,-425,o),
(556,-425,cs)
);
}
);
width = 797;
},
{
layerId = "4F4EDE15-BE4F-4838-A8D1-739248E5F6B1";
shapes = (
{
closed = 1;
nodes = (
(660,-425,l),
(660,-281,l),
(597,-281,ls),
(537,-281,o),
(494,-263,o),
(468,-227,cs),
(442,-191,o),
(429,-138,o),
(429,-67,cs),
(429,276,l),
(428,340,o),
(411,395,o),
(375,440,cs),
(340,485,o),
(292,516,o),
(232,530,c),
(232,532,l),
(290,546,o),
(338,576,o),
(375,621,cs),
(411,666,o),
(429,721,o),
(429,784,cs),
(429,1127,ls),
(429,1198,o),
(442,1252,o),
(468,1287,cs),
(494,1322,o),
(537,1340,o),
(597,1340,cs),
(660,1340,l),
(660,1484,l),
(509,1484,ls),
(421,1484,o),
(354,1459,o),
(307,1408,cs),
(262,1357,o),
(238,1285,o),
(238,1190,cs),
(238,836,ls),
(238,758,o),
(220,701,o),
(185,663,cs),
(150,624,o),
(94,604,o),
(19,601,c),
(19,458,l),
(94,455,o),
(149,435,o),
(185,396,cs),
(221,358,o),
(238,300,o),
(238,223,cs),
(238,-131,ls),
(238,-223,o),
(262,-296,o),
(309,-347,cs),
(357,-399,o),
(424,-425,o),
(509,-425,cs)
);
}
);
width = 684;
},
{
layerId = "B3E42AB7-2F0B-4826-A062-029E39AD2446";
shapes = (
{
closed = 1;
nodes = (
(613,-425,l),
(613,-316,l),
(548,-316,ls),
(488,-316,o),
(445,-298,o),
(420,-261,cs),
(395,-224,o),
(382,-170,o),
(382,-99,cs),
(382,276,l),
(381,341,o),
(364,397,o),
(330,442,cs),
(296,487,o),
(250,517,o),
(192,531,c),
(192,532,l),
(249,547,o),
(295,577,o),
(330,622,cs),
(365,667,o),
(382,721,o),
(382,784,cs),
(382,1158,ls),
(382,1231,o),
(395,1285,o),
(420,1321,cs),
(445,1357,o),
(487,1375,o),
(548,1375,cs),
(613,1375,l),
(613,1484,l),
(498,1484,ls),
(413,1484,o),
(349,1459,o),
(307,1408,cs),
(266,1357,o),
(245,1286,o),
(245,1193,cs),
(245,820,ls),
(245,741,o),
(227,683,o),
(192,644,cs),
(157,605,o),
(104,585,o),
(34,582,c),
(34,478,l),
(105,474,o),
(158,453,o),
(193,414,cs),
(228,375,o),
(245,317,o),
(245,238,cs),
(245,-134,l),
(244,-225,o),
(266,-297,o),
(309,-348,cs),
(352,-399,o),
(415,-425,o),
(498,-425,cs)
);
}
);
width = 646;
}
);
unicode = 123;
}
{
glyphname = bar;
layers = (
{
layerId = "48B546D8-C5CA-40A8-8404-D5B3E1476F73";
shapes = (
{
closed = 1;
nodes = (
(464,1484,l),
(138,1484,l),
(138,-469,l),
(464,-469,l)
);
}
);
width = 600;
},
{
layerId = "9443E7DC-0C4A-42CC-997B-DD23E98306F4";
shapes = (
{
closed = 1;
nodes = (
(423,1484,l),
(151,1484,l),
(151,-457,l),
(423,-457,l)
);
}
);
width = 573;
},
{
layerId = "F7133933-345E-44EA-AD01-EBD83B4D43ED";
shapes = (
{
closed = 1;
nodes = (
(360,1484,l),
(172,1484,l),
(172,-439,l),
(360,-439,l)
);
}
);
width = 532;
},
{
layerId = "F39F01FC-5766-40F9-87FF-669365FEE249";
shapes = (
{
closed = 1;
nodes = (
(326,1484,l),
(192,1484,l),
(192,-427,l),
(326,-427,l)
);
}
);
width = 518;
}
);
unicode = 124;
}
{
glyphname = braceright;
layers = (
{
layerId = "0A527CAB-40A8-47D6-8FB3-136A5153B95C";
shapes = (
{
closed = 1;
nodes = (
(49,-192,l),
(49,-425,l),
(290,-425,ls),
(383,-425,o),
(459,-398,o),
(518,-345,cs),
(576,-292,o),
(605,-217,o),
(605,-122,cs),
(605,184,ls),
(605,255,o),
(624,310,o),
(662,349,cs),
(700,388,o),
(761,407,o),
(846,408,c),
(846,648,l),
(761,652,o),
(699,673,o),
(662,710,cs),
(624,748,o),
(605,803,o),
(605,876,cs),
(605,1181,ls),
(605,1281,o),
(577,1356,o),
(519,1407,cs),
(461,1458,o),
(385,1484,o),
(290,1484,cs),
(49,1484,l),
(49,1253,l),
(104,1253,ls),
(167,1253,o),
(212,1236,o),
(238,1202,cs),
(264,1168,o),
(277,1117,o),
(277,1048,cs),
(277,784,ls),
(277,720,o),
(298,666,o),
(338,620,cs),
(379,573,o),
(431,544,o),
(494,532,c),
(494,527,l),
(429,511,o),
(377,480,o),
(337,434,cs),
(297,387,o),
(277,335,o),
(277,276,cs),
(277,13,ls),
(277,-58,o),
(264,-110,o),
(238,-143,cs),
(212,-176,o),
(167,-192,o),
(104,-192,cs)
);
}
);
width = 872;
},
{
layerId = "878309BC-9289-4993-9212-ED28064DE1EA";
shapes = (
{
closed = 1;
nodes = (
(39,-227,l),
(39,-425,l),
(243,-425,ls),
(333,-425,o),
(405,-398,o),
(460,-346,c),
(513,-293,o),
(540,-219,o),
(540,-125,cs),
(540,199,ls),
(540,273,o),
(558,329,o),
(596,368,cs),
(633,407,o),
(691,426,o),
(773,428,c),
(773,629,l),
(692,633,o),
(632,654,o),
(596,691,cs),
(559,729,o),
(540,786,o),
(540,860,cs),
(540,1184,ls),
(540,1282,o),
(514,1356,o),
(461,1407,cs),
(408,1458,o),
(335,1484,o),
(243,1484,cs),
(39,1484,l),
(39,1288,l),
(96,1288,ls),
(158,1288,o),
(202,1271,o),
(228,1236,cs),
(254,1201,o),
(267,1150,o),
(267,1079,cs),
(267,784,ls),
(267,720,o),
(287,666,o),
(326,620,cs),
(365,574,o),
(415,544,o),
(476,532,c),
(476,528,l),
(413,513,o),
(363,483,o),
(325,437,cs),
(287,390,o),
(267,337,o),
(267,276,cs),
(267,-19,l),
(268,-90,o),
(255,-143,o),
(228,-177,cs),
(202,-211,o),
(158,-227,o),
(96,-227,cs)
);
}
);
width = 797;
},
{
layerId = "6543F4AE-1A40-4DBA-A005-BFFCCFE6B0CF";
shapes = (
{
closed = 1;
nodes = (
(22,-281,l),
(22,-425,l),
(170,-425,ls),
(256,-425,o),
(323,-399,o),
(370,-347,cs),
(418,-296,o),
(441,-223,o),
(441,-131,cs),
(441,223,ls),
(441,299,o),
(459,357,o),
(494,396,cs),
(530,435,o),
(586,456,o),
(662,458,c),
(662,601,l),
(586,604,o),
(531,624,o),
(495,663,cs),
(459,702,o),
(441,759,o),
(441,836,cs),
(441,1190,l),
(442,1285,o),
(419,1357,o),
(372,1408,cs),
(326,1459,o),
(259,1484,o),
(170,1484,cs),
(22,1484,l),
(22,1340,l),
(81,1340,ls),
(142,1340,o),
(186,1322,o),
(213,1287,cs),
(239,1252,o),
(252,1198,o),
(252,1127,cs),
(252,784,ls),
(252,719,o),
(270,665,o),
(306,620,cs),
(343,574,o),
(391,545,o),
(449,532,c),
(449,530,l),
(389,516,o),
(341,486,o),
(305,441,cs),
(269,396,o),
(252,341,o),
(252,276,cs),
(252,-67,ls),
(252,-138,o),
(239,-191,o),
(213,-227,cs),
(186,-263,o),
(142,-281,o),
(81,-281,cs)
);
}
);
width = 684;
},
{
layerId = "1E741E55-12B1-42F1-9EAF-651FD3104344";
shapes = (
{
closed = 1;
nodes = (
(31,-316,l),
(31,-425,l),
(142,-425,ls),
(225,-425,o),
(288,-399,o),
(331,-348,cs),
(374,-297,o),
(395,-225,o),
(395,-134,cs),
(395,238,ls),
(395,317,o),
(412,376,o),
(447,415,cs),
(482,454,o),
(535,475,o),
(608,478,c),
(608,582,l),
(536,585,o),
(483,605,o),
(448,644,cs),
(413,683,o),
(395,742,o),
(395,820,cs),
(395,1193,l),
(396,1286,o),
(375,1357,o),
(333,1408,cs),
(292,1459,o),
(228,1484,o),
(142,1484,cs),
(31,1484,l),
(31,1375,l),
(92,1375,ls),
(152,1375,o),
(195,1357,o),
(222,1321,cs),
(248,1285,o),
(261,1231,o),
(261,1158,cs),
(261,784,ls),
(261,719,o),
(278,665,o),
(313,620,cs),
(348,575,o),
(394,545,o),
(450,532,c),
(450,531,l),
(392,518,o),
(346,489,o),
(312,444,cs),
(278,399,o),
(261,343,o),
(261,276,cs),
(261,-99,l),
(262,-170,o),
(249,-224,o),
(222,-261,cs),
(195,-298,o),
(152,-316,o),
(92,-316,cs)
);
}
);
width = 646;
}
);
unicode = 125;
}
{
glyphname = asciitilde;
layers = (
{
layerId = "48B546D8-C5CA-40A8-8404-D5B3E1476F73";
shapes = (
{
closed = 1;
nodes = (
(915,491,o),
(964,497,o),
(1003,509,cs),
(1042,520,o),
(1084,541,o),
(1129,571,c),
(1129,837,l),
(1052,776,o),
(969,745,o),
(878,745,cs),
(874,745,o),
(872,743,o),
(872,739,cs),
(872,735,o),
(865,734,o),
(851,735,c),
(852,731,o),
(838,734,o),
(809,744,cs),
(780,754,o),
(736,770,o),
(676,792,cs),
(550,839,o),
(442,862,o),
(350,862,cs),
(242,862,o),
(150,834,o),
(74,778,c),
(74,518,l),
(117,547,o),
(159,569,o),
(199,584,cs),
(239,599,o),
(284,606,o),
(333,606,cs),
(389,606,o),
(463,590,o),
(557,558,cs),
(608,541,o),
(658,525,o),
(706,512,cs),
(754,498,o),
(805,491,o),
(857,491,cs)
);
}
);
width = 1196;
},
{
layerId = "9443E7DC-0C4A-42CC-997B-DD23E98306F4";
shapes = (
{
closed = 1;
nodes = (
(910,512,o),
(959,518,o),
(998,531,c),
(1037,542,o),
(1078,563,o),
(1120,592,c),
(1120,818,l),
(1043,757,o),
(961,726,o),
(872,726,cs),
(859,726,o),
(846,727,o),
(832,728,cs),
(818,729,o),
(803,732,o),
(787,735,cs),
(773,738,o),
(751,744,o),
(721,754,cs),
(691,763,o),
(653,777,o),
(606,793,cs),
(509,826,o),
(425,843,o),
(352,843,cs),
(246,843,o),
(155,815,o),
(80,759,c),
(80,539,l),
(123,569,o),
(165,591,o),
(204,606,c),
(244,620,o),
(288,627,o),
(335,627,cs),
(392,627,o),
(466,611,o),
(557,580,cs),
(607,563,o),
(657,547,o),
(705,534,c),
(753,519,o),
(802,512,o),
(852,512,cs)
);
}
);
width = 1196;
},
{
layerId = "F7133933-345E-44EA-AD01-EBD83B4D43ED";
shapes = (
{
closed = 1;
nodes = (
(903,544,o),
(951,551,o),
(990,563,cs),
(1029,576,o),
(1068,596,o),
(1108,624,c),
(1108,790,l),
(1031,729,o),
(949,698,o),
(862,698,cs),
(836,698,o),
(806,702,o),
(772,711,cs),
(738,720,o),
(711,728,o),
(691,735,cs),
(654,747,o),
(620,759,o),
(588,768,cs),
(556,778,o),
(527,786,o),
(500,793,cs),
(447,808,o),
(398,815,o),
(354,815,cs),
(252,815,o),
(164,787,o),
(90,731,c),
(90,571,l),
(133,602,o),
(173,625,o),
(213,638,c),
(251,652,o),
(293,659,o),
(339,659,cs),
(397,659,o),
(469,644,o),
(557,614,cs),
(607,597,o),
(655,581,o),
(703,566,cs),
(751,552,o),
(799,544,o),
(846,544,cs)
);
}
);
width = 1196;
},
{
layerId = "F39F01FC-5766-40F9-87FF-669365FEE249";
shapes = (
{
closed = 1;
nodes = (
(898,565,o),
(946,572,o),
(985,585,cs),
(1024,598,o),
(1062,618,o),
(1099,645,c),
(1099,771,l),
(1022,710,o),
(941,679,o),
(856,679,cs),
(821,679,o),
(780,686,o),
(732,700,cs),
(684,714,o),
(649,726,o),
(627,735,c),
(575,754,o),
(533,769,o),
(500,778,cs),
(467,787,o),
(444,793,o),
(430,794,cs),
(406,795,o),
(381,796,o),
(356,796,cs),
(256,796,o),
(169,768,o),
(96,712,c),
(96,592,l),
(139,624,o),
(179,647,o),
(218,660,cs),
(256,673,o),
(297,680,o),
(341,680,cs),
(400,680,o),
(472,665,o),
(557,636,cs),
(606,619,o),
(654,603,o),
(702,588,cs),
(750,573,o),
(796,565,o),
(841,565,cs)
);
}
);
width = 1196;
}
);
unicode = 126;
}
{
glyphname = exclamdown;
layers = (
{
layerId = "0223EC17-1D6C-4E86-A3CA-0633C37BA543";
shapes = (
{
closed = 1;
nodes = (
(520,1082,l),
(169,1082,l),
(169,766,l),
(520,766,l)
);
},
{
closed = 1;
nodes = (
(162,-327,l),
(522,-327,l),
(484,633,l),
(199,633,l)
);
}
);
width = 682;
},
{
layerId = "D23BE918-FDD7-48F3-9118-B5187C1A8D3A";
shapes = (
{
closed = 1;
nodes = (
(493,1082,l),
(195,1082,l),
(195,805,l),
(493,805,l)
);
},
{
closed = 1;
nodes = (
(189,-327,l),
(493,-327,l),
(460,651,l),
(222,651,l)
);
}
);
width = 682;
},
{
layerId = "18E55F76-04A3-47B5-A890-6BB42B40107E";
shapes = (
{
closed = 1;
nodes = (
(451,1082,l),
(235,1082,l),
(235,865,l),
(451,865,l)
);
},
{
closed = 1;
nodes = (
(231,-327,l),
(451,-327,l),
(424,677,l),
(256,677,l)
);
}
);
width = 682;
},
{
layerId = "68B4E185-86CD-4FB2-9D99-F65C6A982671";
shapes = (
{
closed = 1;
nodes = (
(424,1082,l),
(261,1082,l),
(261,904,l),
(424,904,l)
);
},
{
closed = 1;
nodes = (
(258,-327,l),
(422,-327,l),
(400,695,l),
(279,695,l)
);
}
);
width = 682;
}
);
unicode = 161;
}
{
glyphname = cent;
layers = (
{
layerId = "40F9559D-0C66-47C0-904D-85A1A1CF5568";
shapes = (
{
closed = 1;
nodes = (
(509,382,o),
(451,410,o),
(407,465,cs),
(363,519,o),
(341,595,o),
(341,693,cs),
(341,775,o),
(363,846,o),
(405,906,cs),
(448,966,o),
(506,996,o),
(581,996,cs),
(632,996,o),
(676,980,o),
(713,949,c),
(749,917,o),
(773,871,o),
(784,810,c),
(1131,824,l),
(1111,930,o),
(1061,1016,o),
(980,1083,cs),
(899,1150,o),
(796,1191,o),
(672,1206,c),
(672,1409,l),
(485,1409,l),
(485,1206,l),
(329,1185,o),
(208,1129,o),
(123,1036,cs),
(37,943,o),
(-5,824,o),
(-5,679,cs),
(-5,532,o),
(39,414,o),
(127,327,cs),
(215,239,o),
(334,187,o),
(485,172,c),
(485,-31,l),
(672,-31,l),
(672,175,l),
(805,193,o),
(912,237,o),
(994,310,cs),
(1076,382,o),
(1126,471,o),
(1142,577,c),
(791,589,l),
(782,526,o),
(759,476,o),
(721,438,cs),
(684,401,o),
(638,382,o),
(583,382,cs)
);
}
);
width = 1139;
},
{
layerId = "5D6D431B-CC1B-4FAD-85A4-67ADFEBCB3CA";
shapes = (
{
closed = 1;
nodes = (
(508,346,o),
(446,376,o),
(402,436,cs),
(357,495,o),
(335,582,o),
(335,696,cs),
(335,801,o),
(356,884,o),
(399,945,cs),
(442,1007,o),
(504,1037,o),
(586,1037,cs),
(643,1037,o),
(691,1021,o),
(728,988,cs),
(764,955,o),
(788,908,o),
(799,848,c),
(1090,862,l),
(1071,963,o),
(1025,1045,o),
(951,1108,cs),
(877,1171,o),
(783,1209,o),
(669,1223,c),
(669,1409,l),
(503,1409,l),
(503,1223,l),
(355,1205,o),
(241,1150,o),
(162,1056,cs),
(82,962,o),
(43,838,o),
(43,685,cs),
(43,530,o),
(84,407,o),
(165,317,cs),
(246,226,o),
(359,174,o),
(503,160,c),
(503,-31,l),
(669,-31,l),
(669,162,l),
(790,177,o),
(888,218,o),
(963,287,cs),
(1039,355,o),
(1085,440,o),
(1100,543,c),
(806,555,l),
(797,489,o),
(773,437,o),
(733,401,c),
(694,364,o),
(646,346,o),
(588,346,cs)
);
}
);
width = 1139;
},
{
layerId = "4F4EDE15-BE4F-4838-A8D1-739248E5F6B1";
shapes = (
{
closed = 1;
nodes = (
(505,292,o),
(439,326,o),
(393,393,cs),
(348,460,o),
(325,562,o),
(325,700,cs),
(325,840,o),
(347,942,o),
(389,1005,cs),
(432,1067,o),
(500,1099,o),
(592,1099,cs),
(660,1099,o),
(712,1081,o),
(750,1047,cs),
(788,1012,o),
(812,965,o),
(821,904,c),
(1030,918,l),
(1011,1012,o),
(970,1088,o),
(907,1145,cs),
(844,1202,o),
(762,1237,o),
(663,1247,c),
(663,1409,l),
(531,1409,l),
(531,1247,l),
(395,1234,o),
(292,1180,o),
(221,1085,cs),
(150,990,o),
(115,860,o),
(115,695,cs),
(115,527,o),
(150,396,o),
(221,302,cs),
(292,208,o),
(395,154,o),
(531,142,c),
(531,-31,l),
(663,-31,l),
(663,142,l),
(766,153,o),
(851,189,o),
(917,252,cs),
(983,314,o),
(1023,394,o),
(1036,491,c),
(830,503,l),
(819,432,o),
(793,380,o),
(751,344,cs),
(710,310,o),
(657,292,o),
(594,292,cs)
);
}
);
width = 1139;
},
{
layerId = "B3E42AB7-2F0B-4826-A062-029E39AD2446";
shapes = (
{
closed = 1;
nodes = (
(504,256,o),
(434,292,o),
(388,364,cs),
(342,436,o),
(319,549,o),
(319,703,cs),
(319,866,o),
(340,980,o),
(383,1044,cs),
(426,1108,o),
(498,1140,o),
(597,1140,cs),
(671,1140,o),
(727,1122,o),
(765,1086,cs),
(803,1050,o),
(827,1002,o),
(836,942,c),
(989,956,l),
(971,1045,o),
(934,1117,o),
(878,1170,cs),
(822,1223,o),
(749,1255,o),
(660,1264,c),
(660,1409,l),
(549,1409,l),
(549,1264,l),
(421,1254,o),
(325,1201,o),
(260,1105,cs),
(195,1009,o),
(163,874,o),
(163,701,cs),
(163,525,o),
(195,389,o),
(259,292,cs),
(323,195,o),
(420,141,o),
(549,130,c),
(549,-31,l),
(660,-31,l),
(660,129,l),
(751,137,o),
(827,170,o),
(886,229,cs),
(946,287,o),
(982,363,o),
(994,457,c),
(845,469,l),
(834,395,o),
(807,341,o),
(763,307,cs),
(720,273,o),
(665,256,o),
(599,256,cs)
);
}
);
width = 1139;
}
);
unicode = 162;
}
{
glyphname = sterling;
layers = (
{
layerId = "48B546D8-C5CA-40A8-8404-D5B3E1476F73";
shapes = (
{
closed = 1;
nodes = (
(1077,0,l),
(1077,247,l),
(292,247,l),
(369,291,o),
(420,332,o),
(445,372,cs),
(470,412,o),
(482,463,o),
(482,524,cs),
(482,590,l),
(687,590,l),
(687,787,l),
(482,787,l),
(482,970,ls),
(482,1054,o),
(492,1114,o),
(512,1153,cs),
(531,1191,o),
(566,1210,o),
(617,1210,cs),
(658,1210,o),
(690,1199,o),
(711,1177,cs),
(731,1155,o),
(749,1115,o),
(763,1058,c),
(1035,1098,l),
(1002,1220,o),
(953,1306,o),
(890,1355,cs),
(826,1405,o),
(733,1430,o),
(611,1430,cs),
(462,1430,o),
(352,1395,o),
(279,1324,cs),
(205,1254,o),
(169,1151,o),
(169,1014,cs),
(169,787,l),
(-4,787,l),
(-4,590,l),
(186,590,l),
(186,533,ls),
(186,470,o),
(174,416,o),
(152,372,cs),
(129,327,o),
(81,283,o),
(7,239,c),
(7,0,l)
);
}
);
width = 1139;
},
{
layerId = "9443E7DC-0C4A-42CC-997B-DD23E98306F4";
shapes = (
{
closed = 1;
nodes = (
(1068,0,l),
(1068,215,l),
(279,215,l),
(348,253,o),
(395,295,o),
(422,343,cs),
(449,391,o),
(462,448,o),
(462,515,cs),
(462,602,l),
(737,602,l),
(737,776,l),
(462,776,l),
(462,995,ls),
(462,1078,o),
(475,1139,o),
(501,1178,cs),
(526,1216,o),
(569,1235,o),
(628,1235,cs),
(672,1235,o),
(707,1223,o),
(734,1200,c),
(759,1177,o),
(780,1139,o),
(794,1087,c),
(1032,1133,l),
(1003,1238,o),
(955,1314,o),
(891,1360,cs),
(826,1407,o),
(737,1430,o),
(623,1430,cs),
(480,1430,o),
(374,1396,o),
(302,1326,cs),
(230,1257,o),
(195,1156,o),
(195,1021,cs),
(195,776,l),
(17,776,l),
(17,602,l),
(206,602,l),
(206,515,ls),
(206,446,o),
(193,388,o),
(169,341,cs),
(144,293,o),
(97,249,o),
(28,210,c),
(28,0,l)
);
}
);
width = 1139;
},
{
layerId = "F7133933-345E-44EA-AD01-EBD83B4D43ED";
shapes = (
{
closed = 1;
nodes = (
(1054,0,l),
(1054,167,l),
(261,167,l),
(315,196,o),
(358,240,o),
(388,299,cs),
(417,358,o),
(432,426,o),
(432,503,cs),
(432,620,l),
(811,620,l),
(811,758,l),
(432,758,l),
(432,1031,l),
(433,1115,o),
(450,1175,o),
(485,1214,cs),
(520,1252,o),
(573,1271,o),
(646,1271,cs),
(692,1271,o),
(733,1259,o),
(767,1235,cs),
(802,1211,o),
(826,1176,o),
(840,1131,c),
(1028,1185,l),
(1004,1265,o),
(959,1325,o),
(893,1367,cs),
(827,1409,o),
(742,1430,o),
(641,1430,cs),
(508,1430,o),
(407,1396,o),
(338,1328,cs),
(268,1261,o),
(233,1162,o),
(233,1031,cs),
(233,758,l),
(49,758,l),
(49,620,l),
(236,620,l),
(236,489,ls),
(236,411,o),
(222,345,o),
(194,293,cs),
(166,241,o),
(122,199,o),
(60,166,c),
(60,0,l)
);
}
);
width = 1139;
},
{
layerId = "F39F01FC-5766-40F9-87FF-669365FEE249";
shapes = (
{
closed = 1;
nodes = (
(1045,0,l),
(1045,135,l),
(248,135,l),
(294,158,o),
(333,203,o),
(365,270,cs),
(396,337,o),
(412,411,o),
(412,494,cs),
(412,632,l),
(861,632,l),
(861,747,l),
(412,747,l),
(412,1056,l),
(413,1139,o),
(433,1200,o),
(474,1239,cs),
(515,1277,o),
(576,1296,o),
(657,1296,cs),
(706,1296,o),
(750,1283,o),
(790,1258,cs),
(830,1233,o),
(857,1200,o),
(871,1160,c),
(1025,1220,l),
(1005,1283,o),
(961,1333,o),
(894,1372,cs),
(827,1411,o),
(746,1430,o),
(653,1430,cs),
(526,1430,o),
(429,1397,o),
(361,1330,cs),
(293,1264,o),
(259,1167,o),
(259,1038,cs),
(259,747,l),
(70,747,l),
(70,632,l),
(256,632,l),
(256,471,ls),
(256,387,o),
(241,317,o),
(211,262,cs),
(181,207,o),
(138,165,o),
(81,137,c),
(81,0,l)
);
}
);
width = 1139;
}
);
unicode = 163;
}
{
glyphname = currency;
layers = (
{
layerId = "40F9559D-0C66-47C0-904D-85A1A1CF5568";
shapes = (
{
closed = 1;
nodes = (
(132,611,o),
(147,545,o),
(177,487,c),
(19,327,l),
(213,133,l),
(368,292,l),
(428,264,o),
(495,250,o),
(567,250,cs),
(639,250,o),
(706,265,o),
(768,296,c),
(922,138,l),
(1118,335,l),
(961,490,l),
(989,549,o),
(1003,614,o),
(1003,684,cs),
(1003,758,o),
(987,823,o),
(956,881,c),
(1119,1042,l),
(925,1236,l),
(765,1075,l),
(707,1105,o),
(641,1120,o),
(567,1120,cs),
(497,1120,o),
(432,1105,o),
(370,1076,c),
(217,1231,l),
(25,1039,l),
(180,884,l),
(148,824,o),
(132,757,o),
(132,684,cs)
);
},
{
closed = 1;
nodes = (
(406,715,o),
(413,742,o),
(428,767,cs),
(442,791,o),
(461,811,o),
(485,825,cs),
(509,840,o),
(536,847,o),
(567,847,cs),
(598,847,o),
(625,839,o),
(649,824,cs),
(673,809,o),
(692,790,o),
(706,766,cs),
(720,742,o),
(727,716,o),
(727,686,cs),
(727,658,o),
(719,632,o),
(705,607,cs),
(690,582,o),
(671,562,o),
(647,547,cs),
(623,532,o),
(597,525,o),
(567,525,cs),
(536,525,o),
(509,532,o),
(485,547,cs),
(460,562,o),
(441,582,o),
(427,606,cs),
(413,631,o),
(406,657,o),
(406,686,cs)
);
}
);
width = 1139;
},
{
layerId = "5D6D431B-CC1B-4FAD-85A4-67ADFEBCB3CA";
shapes = (
{
closed = 1;
nodes = (
(134,604,o),
(152,532,o),
(190,468,c),
(51,328,l),
(214,164,l),
(351,305,l),
(416,268,o),
(489,250,o),
(569,250,cs),
(647,250,o),
(720,269,o),
(787,307,c),
(923,168,l),
(1087,334,l),
(949,470,l),
(986,535,o),
(1005,606,o),
(1005,684,cs),
(1005,763,o),
(985,835,o),
(946,900,c),
(1086,1039,l),
(923,1202,l),
(785,1063,l),
(720,1101,o),
(648,1120,o),
(569,1120,cs),
(490,1120,o),
(419,1101,o),
(352,1063,c),
(218,1200,l),
(56,1038,l),
(192,902,l),
(153,836,o),
(134,764,o),
(134,684,cs)
);
},
{
closed = 1;
nodes = (
(367,723,o),
(376,757,o),
(395,788,cs),
(413,818,o),
(437,843,o),
(467,861,cs),
(497,879,o),
(531,888,o),
(569,888,cs),
(607,888,o),
(640,878,o),
(670,860,cs),
(701,842,o),
(725,818,o),
(743,787,cs),
(761,757,o),
(770,724,o),
(770,686,cs),
(770,650,o),
(760,617,o),
(742,586,cs),
(723,555,o),
(699,530,o),
(669,512,cs),
(639,493,o),
(606,484,o),
(569,484,cs),
(531,484,o),
(497,493,o),
(467,512,c),
(436,530,o),
(412,555,o),
(394,585,cs),
(376,616,o),
(367,649,o),
(367,686,cs)
);
}
);
width = 1139;
},
{
layerId = "4F4EDE15-BE4F-4838-A8D1-739248E5F6B1";
shapes = (
{
closed = 1;
nodes = (
(136,595,o),
(161,513,o),
(210,440,c),
(99,330,l),
(214,212,l),
(327,325,l),
(398,275,o),
(480,250,o),
(571,250,cs),
(660,250,o),
(741,274,o),
(815,323,c),
(923,214,l),
(1039,332,l),
(931,440,l),
(982,513,o),
(1007,595,o),
(1007,684,cs),
(1007,772,o),
(982,852,o),
(932,928,c),
(1038,1033,l),
(921,1152,l),
(815,1045,l),
(741,1095,o),
(660,1120,o),
(571,1120,cs),
(481,1120,o),
(399,1094,o),
(326,1043,c),
(218,1152,l),
(102,1036,l),
(210,928,l),
(161,855,o),
(136,773,o),
(136,684,cs)
);
},
{
closed = 1;
nodes = (
(307,735,o),
(319,780,o),
(344,820,cs),
(368,859,o),
(400,891,o),
(440,914,cs),
(480,938,o),
(523,950,o),
(571,950,c),
(619,949,o),
(663,938,o),
(703,914,cs),
(742,890,o),
(774,859,o),
(798,819,cs),
(822,779,o),
(834,735,o),
(834,686,cs),
(834,637,o),
(822,593,o),
(798,553,cs),
(774,513,o),
(742,482,o),
(702,458,cs),
(662,435,o),
(619,424,o),
(571,424,cs),
(523,424,o),
(480,435,o),
(440,458,cs),
(399,482,o),
(367,513,o),
(343,553,cs),
(319,593,o),
(307,637,o),
(307,686,cs)
);
}
);
width = 1139;
},
{
layerId = "B3E42AB7-2F0B-4826-A062-029E39AD2446";
shapes = (
{
closed = 1;
nodes = (
(138,588,o),
(166,500,o),
(223,421,c),
(131,331,l),
(215,243,l),
(310,338,l),
(386,279,o),
(474,250,o),
(573,250,cs),
(668,250,o),
(755,278,o),
(834,334,c),
(924,244,l),
(1008,331,l),
(919,420,l),
(979,499,o),
(1009,587,o),
(1009,684,cs),
(1009,777,o),
(980,864,o),
(922,947,c),
(1005,1030,l),
(919,1118,l),
(835,1033,l),
(754,1091,o),
(667,1120,o),
(573,1120,cs),
(474,1120,o),
(386,1090,o),
(308,1030,c),
(219,1121,l),
(133,1035,l),
(222,946,l),
(166,867,o),
(138,780,o),
(138,684,cs)
);
},
{
closed = 1;
nodes = (
(268,743,o),
(282,795,o),
(311,841,cs),
(339,886,o),
(376,923,o),
(422,950,cs),
(468,977,o),
(518,991,o),
(573,991,c),
(628,990,o),
(678,977,o),
(724,950,cs),
(770,923,o),
(807,887,o),
(835,840,cs),
(863,794,o),
(877,743,o),
(877,686,cs),
(877,629,o),
(863,578,o),
(835,532,cs),
(807,486,o),
(770,450,o),
(724,423,cs),
(678,396,o),
(628,383,o),
(573,383,cs),
(518,383,o),
(468,396,o),
(422,423,cs),
(375,450,o),
(338,486,o),
(310,532,cs),
(282,578,o),
(268,629,o),
(268,686,cs)
);
}
);
width = 1139;
}
);
unicode = 164;
}
{
glyphname = yen;
layers = (
{
layerId = "40F9559D-0C66-47C0-904D-85A1A1CF5568";
shapes = (
{
closed = 1;
nodes = (
(735,191,l),
(1043,191,l),
(1043,352,l),
(735,352,l),
(735,519,l),
(1043,519,l),
(1043,679,l),
(797,679,l),
(1122,1409,l),
(773,1409,l),
(566,847,l),
(364,1409,l),
(15,1409,l),
(341,679,l),
(94,679,l),
(94,519,l),
(402,519,l),
(400,352,l),
(94,352,l),
(94,191,l),
(400,191,l),
(400,0,l),
(735,0,l)
);
}
);
width = 1139;
},
{
layerId = "5D6D431B-CC1B-4FAD-85A4-67ADFEBCB3CA";
shapes = (
{
closed = 1;
nodes = (
(709,229,l),
(1042,229,l),
(1042,379,l),
(709,379,l),
(709,541,l),
(1042,541,l),
(1042,689,l),
(771,689,l),
(1129,1409,l),
(831,1409,l),
(567,818,l),
(307,1409,l),
(9,1409,l),
(368,689,l),
(96,689,l),
(96,541,l),
(429,541,l),
(427,379,l),
(96,379,l),
(96,229,l),
(427,229,l),
(427,0,l),
(709,0,l)
);
}
);
width = 1139;
},
{
layerId = "4F4EDE15-BE4F-4838-A8D1-739248E5F6B1";
shapes = (
{
closed = 1;
nodes = (
(669,287,l),
(1042,287,l),
(1042,419,l),
(669,419,l),
(669,575,l),
(1042,575,l),
(1042,705,l),
(731,705,l),
(1139,1409,l),
(919,1409,l),
(567,774,l),
(221,1409,l),
(1,1409,l),
(408,705,l),
(98,705,l),
(98,575,l),
(471,575,l),
(469,419,l),
(98,419,l),
(98,287,l),
(469,287,l),
(469,0,l),
(669,0,l)
);
}
);
width = 1139;
},
{
layerId = "B3E42AB7-2F0B-4826-A062-029E39AD2446";
shapes = (
{
closed = 1;
nodes = (
(643,325,l),
(1041,325,l),
(1041,446,l),
(643,446,l),
(643,597,l),
(1041,597,l),
(1041,715,l),
(705,715,l),
(1146,1409,l),
(977,1409,l),
(568,745,l),
(164,1409,l),
(-5,1409,l),
(435,715,l),
(100,715,l),
(100,597,l),
(498,597,l),
(496,446,l),
(100,446,l),
(100,325,l),
(496,325,l),
(496,0,l),
(643,0,l)
);
}
);
width = 1139;
}
);
unicode = 165;
}
{
glyphname = brokenbar;
layers = (
{
layerId = "0223EC17-1D6C-4E86-A3CA-0633C37BA543";
shapes = (
{
closed = 1;
nodes = (
(464,1434,l),
(138,1434,l),
(138,656,l),
(464,656,l)
);
},
{
closed = 1;
nodes = (
(464,310,l),
(138,310,l),
(138,-469,l),
(464,-469,l)
);
}
);
width = 600;
},
{
layerId = "D23BE918-FDD7-48F3-9118-B5187C1A8D3A";
shapes = (
{
closed = 1;
nodes = (
(423,1451,l),
(151,1451,l),
(151,673,l),
(423,673,l)
);
},
{
closed = 1;
nodes = (
(423,322,l),
(151,322,l),
(151,-457,l),
(423,-457,l)
);
}
);
width = 573;
},
{
layerId = "18E55F76-04A3-47B5-A890-6BB42B40107E";
shapes = (
{
closed = 1;
nodes = (
(360,1477,l),
(172,1477,l),
(172,699,l),
(360,699,l)
);
},
{
closed = 1;
nodes = (
(360,340,l),
(172,340,l),
(172,-439,l),
(360,-439,l)
);
}
);
width = 532;
},
{
layerId = "68B4E185-86CD-4FB2-9D99-F65C6A982671";
shapes = (
{
closed = 1;
nodes = (
(326,1494,l),
(192,1494,l),
(192,716,l),
(326,716,l)
);
},
{
closed = 1;
nodes = (
(326,352,l),
(192,352,l),
(192,-427,l),
(326,-427,l)
);
}
);
width = 518;
}
);
unicode = 166;
}
{
glyphname = section;
layers = (
{
layerId = "1DEF85E5-E6DA-4BD7-A4F9-3FA9E428A319";
shapes = (
{
closed = 1;
nodes = (
(408,1389,o),
(286,1360,o),
(203,1304,cs),
(119,1247,o),
(77,1167,o),
(77,1063,cs),
(77,1008,o),
(92,958,o),
(122,912,cs),
(152,866,o),
(195,829,o),
(252,801,c),
(185,775,o),
(134,744,o),
(100,705,cs),
(66,667,o),
(49,616,o),
(49,552,cs),
(49,478,o),
(78,414,o),
(135,362,cs),
(192,310,o),
(292,267,o),
(434,233,cs),
(573,201,o),
(657,179,o),
(688,167,cs),
(717,155,o),
(737,141,o),
(750,124,cs),
(762,108,o),
(768,85,o),
(768,57,cs),
(768,5,o),
(749,-30,o),
(711,-46,cs),
(673,-63,o),
(617,-71,o),
(542,-71,cs),
(470,-71,o),
(415,-59,o),
(377,-36,cs),
(338,-12,o),
(313,24,o),
(299,73,c),
(11,32,l),
(40,-72,o),
(96,-148,o),
(182,-196,cs),
(267,-243,o),
(387,-267,o),
(542,-267,cs),
(708,-267,o),
(834,-237,o),
(923,-176,cs),
(1011,-115,o),
(1055,-25,o),
(1055,95,cs),
(1055,153,o),
(1041,204,o),
(1013,245,c),
(986,287,o),
(946,320,o),
(895,343,c),
(947,362,o),
(991,395,o),
(1025,441,cs),
(1060,487,o),
(1077,540,o),
(1077,599,cs),
(1077,660,o),
(1063,711,o),
(1035,753,cs),
(1007,794,o),
(966,828,o),
(912,855,cs),
(854,883,o),
(765,910,o),
(647,936,cs),
(559,955,o),
(500,970,o),
(470,983,cs),
(440,995,o),
(417,1009,o),
(400,1025,cs),
(383,1041,o),
(374,1061,o),
(374,1085,cs),
(374,1126,o),
(389,1154,o),
(419,1169,cs),
(448,1184,o),
(497,1192,o),
(566,1192,cs),
(616,1192,o),
(659,1182,o),
(694,1161,cs),
(729,1141,o),
(751,1113,o),
(760,1077,c),
(1051,1105,l),
(1033,1197,o),
(982,1267,o),
(899,1316,cs),
(816,1364,o),
(705,1389,o),
(566,1389,cs)
);
},
{
closed = 1;
nodes = (
(786,522,o),
(774,496,o),
(750,479,cs),
(726,462,o),
(686,451,o),
(630,447,c),
(533,467,o),
(470,483,o),
(443,493,cs),
(412,505,o),
(388,517,o),
(371,532,cs),
(355,546,o),
(346,565,o),
(346,589,cs),
(346,624,o),
(359,651,o),
(383,670,cs),
(408,689,o),
(450,703,o),
(509,713,c),
(622,694,o),
(697,675,o),
(734,657,c),
(768,638,o),
(786,605,o),
(786,558,cs)
);
}
);
width = 1139;
},
{
layerId = "F8FBB777-9D69-46EE-A2C4-A8FDEBDF8C7E";
shapes = (
{
closed = 1;
nodes = (
(423,1422,o),
(308,1394,o),
(229,1339,cs),
(150,1284,o),
(110,1207,o),
(110,1106,cs),
(110,1051,o),
(126,1001,o),
(159,955,cs),
(191,909,o),
(237,874,o),
(296,848,c),
(228,824,o),
(176,791,o),
(139,749,cs),
(103,707,o),
(84,655,o),
(84,593,cs),
(85,518,o),
(113,455,o),
(170,403,cs),
(227,351,o),
(325,308,o),
(463,276,cs),
(589,246,o),
(668,224,o),
(703,210,c),
(736,195,o),
(760,178,o),
(776,158,cs),
(791,139,o),
(799,113,o),
(799,82,cs),
(799,29,o),
(778,-9,o),
(736,-29,c),
(695,-50,o),
(634,-61,o),
(554,-61,cs),
(474,-61,o),
(413,-48,o),
(373,-24,cs),
(331,2,o),
(305,40,o),
(291,93,c),
(46,55,l),
(73,-45,o),
(127,-118,o),
(208,-165,cs),
(289,-211,o),
(404,-234,o),
(554,-234,cs),
(711,-234,o),
(831,-205,o),
(916,-146,cs),
(1000,-86,o),
(1042,-1,o),
(1042,112,cs),
(1042,171,o),
(1027,222,o),
(997,264,cs),
(968,306,o),
(923,341,o),
(864,367,c),
(921,385,o),
(968,418,o),
(1004,465,cs),
(1041,513,o),
(1059,567,o),
(1059,629,cs),
(1059,687,o),
(1045,737,o),
(1016,778,cs),
(988,819,o),
(947,852,o),
(894,880,c),
(837,908,o),
(753,934,o),
(643,959,cs),
(556,978,o),
(496,995,o),
(463,1009,cs),
(431,1023,o),
(406,1039,o),
(388,1058,cs),
(370,1076,o),
(360,1099,o),
(360,1126,c),
(361,1169,o),
(378,1200,o),
(412,1219,cs),
(446,1238,o),
(500,1247,o),
(573,1247,cs),
(632,1247,o),
(681,1237,o),
(718,1214,cs),
(755,1192,o),
(778,1161,o),
(787,1120,c),
(1034,1146,l),
(1016,1235,o),
(967,1304,o),
(888,1351,cs),
(809,1397,o),
(704,1422,o),
(573,1422,cs)
);
},
{
closed = 1;
nodes = (
(813,551,o),
(798,518,o),
(767,496,cs),
(735,473,o),
(688,460,o),
(624,457,c),
(531,477,o),
(468,495,o),
(438,507,c),
(405,522,o),
(379,537,o),
(361,555,cs),
(344,572,o),
(335,594,o),
(335,622,cs),
(335,664,o),
(350,697,o),
(381,722,cs),
(412,746,o),
(460,762,o),
(523,770,c),
(638,749,o),
(715,726,o),
(756,702,c),
(794,677,o),
(813,641,o),
(813,594,cs)
);
}
);
width = 1139;
},
{
layerId = "6975E435-B590-441E-B7DA-A87770204C86";
shapes = (
{
closed = 1;
nodes = (
(446,1470,o),
(340,1444,o),
(269,1392,cs),
(196,1339,o),
(160,1266,o),
(160,1172,cs),
(160,1115,o),
(178,1064,o),
(214,1019,cs),
(250,974,o),
(299,940,o),
(362,918,c),
(293,897,o),
(238,863,o),
(198,815,cs),
(157,768,o),
(138,714,o),
(138,653,cs),
(138,579,o),
(167,515,o),
(224,463,cs),
(281,412,o),
(374,371,o),
(505,340,cs),
(613,315,o),
(686,293,o),
(725,274,c),
(765,256,o),
(795,234,o),
(815,210,cs),
(835,186,o),
(845,155,o),
(845,118,cs),
(845,64,o),
(822,24,o),
(775,-4,cs),
(728,-32,o),
(661,-45,o),
(572,-45,cs),
(479,-45,o),
(411,-32,o),
(366,-5,cs),
(322,22,o),
(292,65,o),
(279,123,c),
(100,91,l),
(124,-4,o),
(172,-74,o),
(248,-119,cs),
(323,-163,o),
(431,-186,o),
(572,-186,cs),
(716,-186,o),
(827,-157,o),
(906,-100,cs),
(985,-44,o),
(1024,36,o),
(1024,138,cs),
(1023,198,o),
(1007,250,o),
(974,292,cs),
(941,335,o),
(889,372,o),
(818,403,c),
(882,419,o),
(934,452,o),
(973,502,cs),
(1012,551,o),
(1031,609,o),
(1031,673,cs),
(1031,729,o),
(1017,776,o),
(989,816,c),
(960,855,o),
(920,889,o),
(868,916,cs),
(813,944,o),
(736,970,o),
(637,993,cs),
(551,1014,o),
(489,1032,o),
(453,1049,cs),
(417,1066,o),
(390,1085,o),
(370,1107,cs),
(350,1130,o),
(340,1156,o),
(340,1186,cs),
(340,1233,o),
(361,1268,o),
(402,1293,cs),
(442,1318,o),
(503,1331,o),
(585,1331,cs),
(657,1331,o),
(713,1318,o),
(754,1294,cs),
(795,1270,o),
(820,1234,o),
(829,1186,c),
(1008,1206,l),
(990,1293,o),
(945,1358,o),
(872,1403,cs),
(799,1448,o),
(704,1470,o),
(585,1470,cs)
);
},
{
closed = 1;
nodes = (
(855,594,o),
(833,552,o),
(791,520,cs),
(750,489,o),
(690,473,o),
(614,471,c),
(527,493,o),
(466,512,o),
(430,529,cs),
(394,546,o),
(367,566,o),
(347,589,cs),
(327,612,o),
(317,639,o),
(317,670,cs),
(317,723,o),
(338,766,o),
(378,799,cs),
(419,833,o),
(474,851,o),
(545,856,c),
(662,830,o),
(743,801,o),
(788,768,cs),
(832,736,o),
(855,696,o),
(855,648,cs)
);
}
);
width = 1139;
},
{
layerId = "AB1FD75E-92AF-4808-893A-81D0A5D4219E";
shapes = (
{
closed = 1;
nodes = (
(461,1503,o),
(362,1478,o),
(295,1427,cs),
(227,1376,o),
(193,1306,o),
(193,1215,cs),
(193,1158,o),
(212,1107,o),
(251,1062,cs),
(289,1017,o),
(341,985,o),
(406,965,c),
(336,946,o),
(280,910,o),
(237,859,cs),
(194,808,o),
(173,753,o),
(173,694,c),
(174,619,o),
(202,556,o),
(259,504,cs),
(316,453,o),
(407,412,o),
(534,383,c),
(629,360,o),
(697,338,o),
(740,317,cs),
(784,296,o),
(818,271,o),
(841,244,cs),
(864,217,o),
(876,183,o),
(876,143,cs),
(876,88,o),
(851,45,o),
(800,13,cs),
(750,-19,o),
(678,-35,o),
(584,-35,cs),
(483,-35,o),
(409,-21,o),
(362,7,cs),
(315,36,o),
(284,81,o),
(271,143,c),
(135,114,l),
(157,23,o),
(203,-44,o),
(274,-88,cs),
(345,-131,o),
(448,-153,o),
(584,-153,cs),
(719,-153,o),
(824,-125,o),
(899,-70,cs),
(974,-15,o),
(1011,60,o),
(1011,155,c),
(1010,216,o),
(993,268,o),
(958,311,cs),
(923,354,o),
(866,393,o),
(787,427,c),
(856,442,o),
(911,475,o),
(952,526,cs),
(993,577,o),
(1013,636,o),
(1013,703,cs),
(1013,756,o),
(999,802,o),
(970,841,cs),
(941,880,o),
(901,913,o),
(850,941,cs),
(796,969,o),
(724,994,o),
(633,1016,cs),
(548,1037,o),
(485,1057,o),
(446,1075,c),
(408,1094,o),
(379,1115,o),
(358,1140,cs),
(337,1165,o),
(326,1194,o),
(326,1227,c),
(327,1276,o),
(350,1314,o),
(395,1343,cs),
(440,1372,o),
(506,1386,o),
(592,1386,cs),
(673,1386,o),
(735,1373,o),
(778,1347,cs),
(821,1321,o),
(847,1282,o),
(856,1229,c),
(991,1247,l),
(973,1331,o),
(930,1395,o),
(861,1438,cs),
(792,1481,o),
(703,1503,o),
(592,1503,cs)
);
},
{
closed = 1;
nodes = (
(882,623,o),
(857,574,o),
(808,537,cs),
(759,500,o),
(692,482,o),
(608,481,c),
(525,503,o),
(464,524,o),
(425,543,c),
(387,563,o),
(358,586,o),
(337,612,cs),
(316,638,o),
(306,668,o),
(306,703,cs),
(306,763,o),
(329,812,o),
(376,851,cs),
(423,890,o),
(484,910,o),
(559,913,c),
(678,885,o),
(761,852,o),
(810,813,cs),
(858,775,o),
(882,732,o),
(882,684,cs)
);
}
);
width = 1139;
}
);
unicode = 167;
}
{
glyphname = dieresis;
layers = (
{
layerId = "9CBD3AC2-9D8D-48B9-985E-25F89544A3BC";
shapes = (
{
closed = 1;
nodes = (
(711,1428,l),
(457,1428,l),
(457,1186,l),
(711,1186,l)
);
},
{
closed = 1;
nodes = (
(243,1428,l),
(-3,1428,l),
(-3,1186,l),
(243,1186,l)
);
}
);
width = 682;
},
{
layerId = "9CAA62FE-9EBF-4577-B1F1-D704579B9400";
shapes = (
{
closed = 1;
nodes = (
(674,1419,l),
(451,1419,l),
(451,1197,l),
(674,1197,l)
);
},
{
closed = 1;
nodes = (
(232,1419,l),
(14,1419,l),
(14,1197,l),
(232,1197,l)
);
}
);
width = 682;
},
{
layerId = "4CFB2959-BEB7-4CB7-85AA-15E8C72B431E";
shapes = (
{
closed = 1;
nodes = (
(618,1407,l),
(441,1407,l),
(441,1215,l),
(618,1215,l)
);
},
{
closed = 1;
nodes = (
(214,1407,l),
(38,1407,l),
(38,1215,l),
(214,1215,l)
);
}
);
width = 682;
},
{
layerId = "6C107EBF-3F3D-4659-9DBC-490DE09F0738";
shapes = (
{
closed = 1;
nodes = (
(581,1398,l),
(435,1398,l),
(435,1226,l),
(581,1226,l)
);
},
{
closed = 1;
nodes = (
(203,1398,l),
(55,1398,l),
(55,1226,l),
(203,1226,l)
);
}
);
width = 682;
}
);
unicode = 168;
}
{
glyphname = copyright;
layers = (
{
layerId = "0223EC17-1D6C-4E86-A3CA-0633C37BA543";
shapes = (
{
closed = 1;
nodes = (
(1479,836,o),
(1447,957,o),
(1383,1069,cs),
(1319,1180,o),
(1231,1268,o),
(1119,1333,cs),
(1006,1398,o),
(885,1430,o),
(756,1430,cs),
(627,1430,o),
(507,1398,o),
(395,1333,cs),
(283,1268,o),
(194,1180,o),
(130,1068,cs),
(65,957,o),
(33,836,o),
(33,707,cs),
(33,581,o),
(64,463,o),
(127,352,cs),
(189,241,o),
(277,152,o),
(390,85,cs),
(503,18,o),
(625,-16,o),
(756,-16,cs),
(884,-16,o),
(1005,16,o),
(1117,81,cs),
(1230,145,o),
(1318,233,o),
(1383,346,cs),
(1447,458,o),
(1479,578,o),
(1479,707,cs)
);
},
{
closed = 1;
nodes = (
(1353,601,o),
(1327,502,o),
(1273,409,cs),
(1220,316,o),
(1147,242,o),
(1055,189,cs),
(963,135,o),
(863,108,o),
(756,108,cs),
(649,108,o),
(549,135,o),
(458,189,cs),
(366,242,o),
(294,316,o),
(241,409,cs),
(188,502,o),
(161,601,o),
(161,707,cs),
(161,821,o),
(190,924,o),
(248,1016,cs),
(305,1108,o),
(379,1179,o),
(470,1228,cs),
(561,1277,o),
(656,1302,o),
(756,1302,cs),
(861,1302,o),
(960,1275,o),
(1053,1222,cs),
(1146,1168,o),
(1219,1096,o),
(1273,1004,cs),
(1326,913,o),
(1353,814,o),
(1353,707,cs)
);
},
{
closed = 1;
nodes = (
(575,788,o),
(591,848,o),
(622,890,cs),
(654,932,o),
(702,953,o),
(767,953,cs),
(810,953,o),
(845,942,o),
(873,919,cs),
(901,896,o),
(923,866,o),
(937,829,c),
(1121,876,l),
(1060,1037,o),
(939,1118,o),
(760,1118,cs),
(631,1118,o),
(533,1084,o),
(464,1015,cs),
(395,946,o),
(361,844,o),
(361,709,cs),
(361,575,o),
(396,472,o),
(467,399,cs),
(538,326,o),
(639,289,o),
(770,289,cs),
(856,289,o),
(928,309,o),
(987,348,cs),
(1046,387,o),
(1094,449,o),
(1131,534,c),
(941,589,l),
(910,500,o),
(853,455,o),
(770,455,cs),
(708,455,o),
(660,477,o),
(626,521,cs),
(592,565,o),
(575,628,o),
(575,709,cs)
);
}
);
width = 1509;
},
{
layerId = "D23BE918-FDD7-48F3-9118-B5187C1A8D3A";
shapes = (
{
closed = 1;
nodes = (
(1478,836,o),
(1446,957,o),
(1382,1069,cs),
(1318,1180,o),
(1230,1268,o),
(1118,1333,cs),
(1005,1398,o),
(884,1430,o),
(755,1430,cs),
(626,1430,o),
(506,1398,o),
(394,1333,cs),
(282,1268,o),
(194,1180,o),
(129,1068,cs),
(64,957,o),
(32,836,o),
(32,707,cs),
(32,581,o),
(63,463,o),
(126,352,cs),
(189,241,o),
(276,152,o),
(389,85,cs),
(502,18,o),
(624,-16,o),
(755,-16,cs),
(883,-16,o),
(1004,16,o),
(1116,81,cs),
(1229,145,o),
(1317,233,o),
(1382,346,cs),
(1446,458,o),
(1478,578,o),
(1478,707,cs)
);
},
{
closed = 1;
nodes = (
(1364,599,o),
(1337,498,o),
(1282,403,cs),
(1229,309,o),
(1154,234,o),
(1060,180,cs),
(966,125,o),
(864,98,o),
(755,98,cs),
(646,98,o),
(545,125,o),
(452,180,cs),
(358,234,o),
(285,309,o),
(231,403,cs),
(177,497,o),
(149,598,o),
(149,707,cs),
(149,820,o),
(178,924,o),
(235,1017,cs),
(292,1111,o),
(366,1184,o),
(460,1236,cs),
(553,1287,o),
(651,1313,o),
(755,1313,cs),
(863,1313,o),
(964,1286,o),
(1059,1232,cs),
(1154,1177,o),
(1228,1103,o),
(1283,1010,cs),
(1337,917,o),
(1364,816,o),
(1364,707,cs)
);
},
{
closed = 1;
nodes = (
(549,797,o),
(567,864,o),
(603,910,cs),
(639,956,o),
(693,979,o),
(765,979,cs),
(810,979,o),
(848,968,o),
(880,945,cs),
(912,922,o),
(936,890,o),
(953,850,c),
(1113,893,l),
(1051,1046,o),
(933,1123,o),
(759,1123,cs),
(631,1123,o),
(534,1088,o),
(466,1018,cs),
(398,947,o),
(364,844,o),
(364,709,cs),
(364,574,o),
(399,471,o),
(469,397,cs),
(539,323,o),
(639,286,o),
(768,286,cs),
(851,286,o),
(922,305,o),
(980,342,cs),
(1038,380,o),
(1086,440,o),
(1125,524,c),
(960,572,l),
(923,478,o),
(859,430,o),
(768,430,cs),
(699,430,o),
(645,455,o),
(607,503,cs),
(568,551,o),
(549,620,o),
(549,709,cs)
);
}
);
width = 1509;
},
{
layerId = "18E55F76-04A3-47B5-A890-6BB42B40107E";
shapes = (
{
closed = 1;
nodes = (
(1478,836,o),
(1446,956,o),
(1382,1068,cs),
(1318,1180,o),
(1230,1268,o),
(1118,1333,cs),
(1005,1398,o),
(884,1430,o),
(755,1430,cs),
(626,1430,o),
(506,1398,o),
(394,1333,cs),
(282,1268,o),
(193,1180,o),
(129,1068,cs),
(64,957,o),
(32,836,o),
(32,707,cs),
(32,581,o),
(63,463,o),
(126,352,cs),
(188,241,o),
(276,152,o),
(389,85,cs),
(502,18,o),
(624,-16,o),
(755,-16,cs),
(883,-16,o),
(1003,16,o),
(1116,80,cs),
(1229,144,o),
(1317,233,o),
(1382,346,cs),
(1446,458,o),
(1478,578,o),
(1478,707,cs)
);
},
{
closed = 1;
nodes = (
(1380,595,o),
(1353,491,o),
(1297,395,cs),
(1241,298,o),
(1165,222,o),
(1068,166,cs),
(971,110,o),
(867,82,o),
(755,82,cs),
(643,82,o),
(538,110,o),
(443,166,cs),
(347,222,o),
(271,298,o),
(215,395,cs),
(159,491,o),
(131,595,o),
(131,707,cs),
(131,819,o),
(159,923,o),
(216,1020,cs),
(271,1117,o),
(348,1193,o),
(444,1248,cs),
(541,1303,o),
(644,1331,o),
(755,1331,cs),
(867,1331,o),
(971,1302,o),
(1068,1246,cs),
(1165,1189,o),
(1241,1114,o),
(1297,1018,cs),
(1352,923,o),
(1380,819,o),
(1380,707,cs)
);
},
{
closed = 1;
nodes = (
(509,811,o),
(531,887,o),
(573,939,cs),
(617,991,o),
(679,1017,o),
(761,1017,cs),
(811,1017,o),
(854,1006,o),
(891,983,cs),
(928,960,o),
(957,927,o),
(977,882,c),
(1101,917,l),
(1038,1060,o),
(923,1131,o),
(759,1131,cs),
(632,1131,o),
(535,1095,o),
(468,1021,cs),
(401,948,o),
(368,844,o),
(368,709,c),
(367,574,o),
(402,468,o),
(472,393,cs),
(542,318,o),
(640,280,o),
(766,280,cs),
(845,280,o),
(912,298,o),
(969,334,cs),
(1026,368,o),
(1075,427,o),
(1115,508,c),
(990,546,l),
(943,444,o),
(868,394,o),
(766,394,cs),
(686,394,o),
(623,421,o),
(577,476,cs),
(532,531,o),
(509,609,o),
(509,709,cs)
);
}
);
width = 1509;
},
{
layerId = "68B4E185-86CD-4FB2-9D99-F65C6A982671";
shapes = (
{
closed = 1;
nodes = (
(1477,836,o),
(1445,956,o),
(1381,1068,cs),
(1317,1180,o),
(1229,1268,o),
(1117,1333,cs),
(1004,1398,o),
(883,1430,o),
(754,1430,cs),
(625,1430,o),
(505,1398,o),
(393,1333,cs),
(281,1268,o),
(193,1180,o),
(128,1068,cs),
(63,957,o),
(31,836,o),
(31,707,cs),
(31,581,o),
(62,463,o),
(125,352,cs),
(188,241,o),
(275,152,o),
(388,85,cs),
(501,18,o),
(623,-16,o),
(754,-16,cs),
(882,-16,o),
(1002,16,o),
(1115,80,cs),
(1228,144,o),
(1316,233,o),
(1381,346,cs),
(1445,458,o),
(1477,578,o),
(1477,707,cs)
);
},
{
closed = 1;
nodes = (
(1391,593,o),
(1363,487,o),
(1306,389,cs),
(1250,291,o),
(1172,214,o),
(1073,157,cs),
(974,100,o),
(868,72,o),
(754,72,cs),
(640,72,o),
(534,100,o),
(437,157,cs),
(339,214,o),
(262,291,o),
(205,389,cs),
(148,486,o),
(119,592,o),
(119,707,cs),
(119,818,o),
(147,923,o),
(203,1021,cs),
(258,1120,o),
(335,1198,o),
(434,1256,cs),
(533,1313,o),
(639,1342,o),
(754,1342,cs),
(869,1342,o),
(975,1313,o),
(1074,1256,cs),
(1173,1198,o),
(1250,1121,o),
(1307,1024,cs),
(1363,927,o),
(1391,821,o),
(1391,707,cs)
);
},
{
closed = 1;
nodes = (
(483,820,o),
(507,903,o),
(554,959,cs),
(602,1015,o),
(670,1043,o),
(759,1043,cs),
(811,1043,o),
(857,1032,o),
(898,1009,cs),
(939,986,o),
(970,951,o),
(993,903,c),
(1093,934,l),
(1029,1069,o),
(917,1136,o),
(758,1136,cs),
(632,1136,o),
(536,1099,o),
(470,1024,cs),
(404,949,o),
(371,844,o),
(371,709,c),
(370,573,o),
(405,467,o),
(474,391,cs),
(543,315,o),
(640,277,o),
(764,277,cs),
(840,277,o),
(906,294,o),
(962,328,cs),
(1018,361,o),
(1067,418,o),
(1109,498,c),
(1009,529,l),
(956,422,o),
(874,369,o),
(764,369,cs),
(677,369,o),
(608,399,o),
(558,458,cs),
(508,517,o),
(483,601,o),
(483,709,cs)
);
}
);
width = 1509;
}
);
unicode = 169;
}
